<svg xmlns="http://www.w3.org/2000/svg" width="320" height="660" viewBox="0 0 320 660" role="img" aria-label="Design System screen"><defs>
      <linearGradient id="gScr" x1="0" y1="0" x2="0.6" y2="1">
        <stop offset="0" stop-color="#181235"/><stop offset="1" stop-color="#0c0920"/></linearGradient>
      <linearGradient id="gFrame" x1="0" y1="0" x2="1" y2="1">
        <stop offset="0" stop-color="#2a2352"/><stop offset="1" stop-color="#0a0818"/></linearGradient>
      <linearGradient id="gCard" x1="0" y1="0" x2="0.4" y2="1">
        <stop offset="0" stop-color="#201a48"/><stop offset="1" stop-color="#181240"/></linearGradient>
      <linearGradient id="gBrand" x1="0" y1="0" x2="1" y2="0">
        <stop offset="0" stop-color="#38bdf8"/><stop offset="1" stop-color="#7dd3fc"/></linearGradient>
      <linearGradient id="gAmber" x1="0" y1="0" x2="1" y2="0">
        <stop offset="0" stop-color="#ffb84d"/><stop offset="1" stop-color="#ffd27a"/></linearGradient>
      <linearGradient id="mV" x1="0" y1="0" x2="1" y2="0"><stop offset="0" stop-color="#38bdf8"/><stop offset="1" stop-color="#7dd3fc"/></linearGradient>
      <linearGradient id="mA" x1="0" y1="0" x2="1" y2="0"><stop offset="0" stop-color="#ffb84d"/><stop offset="1" stop-color="#ff9f45"/></linearGradient>
      <linearGradient id="mG" x1="0" y1="0" x2="1" y2="0"><stop offset="0" stop-color="#5fb87a"/><stop offset="1" stop-color="#7bc47f"/></linearGradient>
      <linearGradient id="mC" x1="0" y1="0" x2="1" y2="0"><stop offset="0" stop-color="#6bb6d6"/><stop offset="1" stop-color="#9fd8e8"/></linearGradient>
      <radialGradient id="orb" cx="36%" cy="30%" r="78%">
        <stop offset="0" stop-color="#cbeeff"/><stop offset="38%" stop-color="#38bdf8"/>
        <stop offset="78%" stop-color="#1f6fb2"/><stop offset="100%" stop-color="#0b2438"/></radialGradient>
      <radialGradient id="glow" cx="50%" cy="50%" r="50%">
        <stop offset="0" stop-color="#38bdf8" stop-opacity="0.5"/><stop offset="1" stop-color="#38bdf8" stop-opacity="0"/></radialGradient>
    </defs><rect x="10.0" y="12.0" width="300.0" height="636.0" rx="40" fill="url(#gFrame)"/><rect x="20.0" y="22.0" width="280.0" height="616.0" rx="31" fill="url(#gScr)"/><rect x="126.0" y="26.0" width="68.0" height="17.0" rx="9" fill="#04030a"/><text x="34.0" y="56.0" font-family="-apple-system,BlinkMacSystemFont,'SF Pro Display','SF Pro Text','Segoe UI',Roboto,system-ui,sans-serif" font-size="11" font-weight="600" fill="#c7c9d9" text-anchor="start">9:41</text><text x="286.0" y="56.0" font-family="-apple-system,BlinkMacSystemFont,'SF Pro Display','SF Pro Text','Segoe UI',Roboto,system-ui,sans-serif" font-size="10" font-weight="700" fill="#38bdf8" text-anchor="end">● 19</text><text x="34.0" y="88.0" font-family="-apple-system,BlinkMacSystemFont,'SF Pro Display','SF Pro Text','Segoe UI',Roboto,system-ui,sans-serif" font-size="20" font-weight="700" fill="#f2effc" text-anchor="start" letter-spacing="-0.4">Design System</text><text x="34.0" y="106.0" font-family="-apple-system,BlinkMacSystemFont,'SF Pro Display','SF Pro Text','Segoe UI',Roboto,system-ui,sans-serif" font-size="11.5" font-weight="400" fill="#9a93c6" text-anchor="start">One world, vault cyan</text><text x="34.0" y="122.0" font-family="-apple-system,BlinkMacSystemFont,'SF Pro Display','SF Pro Text','Segoe UI',Roboto,system-ui,sans-serif" font-size="12" font-weight="700" fill="#f2effc" text-anchor="start">Colors</text><rect x="34.0" y="134.0" width="120.0" height="36.0" rx="10" fill="url(#gCard)" stroke="#302a60" stroke-width="1"/><rect x="42.0" y="142.0" width="20.0" height="20.0" rx="6" fill="#38BDF8" stroke="#302a60" stroke-width="1"/><text x="70.0" y="151.0" font-family="-apple-system,BlinkMacSystemFont,'SF Pro Display','SF Pro Text','Segoe UI',Roboto,system-ui,sans-serif" font-size="9.5" font-weight="600" fill="#f2effc" text-anchor="start">Vault Cyan</text><text x="70.0" y="163.0" font-family="ui-monospace,Menlo,monospace" font-size="8.5" font-weight="500" fill="#9a93c6" text-anchor="start">#38BDF8</text><rect x="166.0" y="134.0" width="120.0" height="36.0" rx="10" fill="url(#gCard)" stroke="#302a60" stroke-width="1"/><rect x="174.0" y="142.0" width="20.0" height="20.0" rx="6" fill="#9FD8E8" stroke="#302a60" stroke-width="1"/><text x="202.0" y="151.0" font-family="-apple-system,BlinkMacSystemFont,'SF Pro Display','SF Pro Text','Segoe UI',Roboto,system-ui,sans-serif" font-size="9.5" font-weight="600" fill="#f2effc" text-anchor="start">Soft Cyan</text><text x="202.0" y="163.0" font-family="ui-monospace,Menlo,monospace" font-size="8.5" font-weight="500" fill="#9a93c6" text-anchor="start">#9FD8E8</text><rect x="34.0" y="178.0" width="120.0" height="36.0" rx="10" fill="url(#gCard)" stroke="#302a60" stroke-width="1"/><rect x="42.0" y="186.0" width="20.0" height="20.0" rx="6" fill="#1A1333" stroke="#302a60" stroke-width="1"/><text x="70.0" y="195.0" font-family="-apple-system,BlinkMacSystemFont,'SF Pro Display','SF Pro Text','Segoe UI',Roboto,system-ui,sans-serif" font-size="9.5" font-weight="600" fill="#f2effc" text-anchor="start">Deep Indigo</text><text x="70.0" y="207.0" font-family="ui-monospace,Menlo,monospace" font-size="8.5" font-weight="500" fill="#9a93c6" text-anchor="start">#1A1333</text><rect x="166.0" y="178.0" width="120.0" height="36.0" rx="10" fill="url(#gCard)" stroke="#302a60" stroke-width="1"/><rect x="174.0" y="186.0" width="20.0" height="20.0" rx="6" fill="#C7C9D9" stroke="#302a60" stroke-width="1"/><text x="202.0" y="195.0" font-family="-apple-system,BlinkMacSystemFont,'SF Pro Display','SF Pro Text','Segoe UI',Roboto,system-ui,sans-serif" font-size="9.5" font-weight="600" fill="#f2effc" text-anchor="start">Soft Silver</text><text x="202.0" y="207.0" font-family="ui-monospace,Menlo,monospace" font-size="8.5" font-weight="500" fill="#9a93c6" text-anchor="start">#C7C9D9</text><text x="34.0" y="234.0" font-family="-apple-system,BlinkMacSystemFont,'SF Pro Display','SF Pro Text','Segoe UI',Roboto,system-ui,sans-serif" font-size="12" font-weight="700" fill="#f2effc" text-anchor="start">Principles</text><rect x="34.0" y="246.0" width="252.0" height="38.0" rx="10" fill="url(#gCard)" stroke="#302a60" stroke-width="1"/><rect x="50.28" y="263.76" width="7.4399999999999995" height="5.58" rx="2" fill="none" stroke="#38bdf8" stroke-width="1.05" stroke-linecap="round" stroke-linejoin="round"/><path d="M51.83 263.76 v-1.8599999999999999 a2.17 2.17 0 0 1 4.34 0 v1.8599999999999999" fill="none" stroke="#38bdf8" stroke-width="1.05" stroke-linecap="round" stroke-linejoin="round"/><circle cx="54" cy="266.55" r="0.744" fill="#38bdf8"/><text x="72.0" y="269.0" font-family="-apple-system,BlinkMacSystemFont,'SF Pro Display','SF Pro Text','Segoe UI',Roboto,system-ui,sans-serif" font-size="11" font-weight="550" fill="#f2effc" text-anchor="start">Encrypted at rest · AES-256-GCM</text><rect x="34.0" y="292.0" width="252.0" height="38.0" rx="10" fill="url(#gCard)" stroke="#302a60" stroke-width="1"/><path d="M54 306.04 l4.34 1.8599999999999999 v3.1 c0 3.1 -1.8599999999999999 4.34 -4.34 5.58 c-2.48 -1.24 -4.34 -2.48 -4.34 -5.58 v-3.1 Z" fill="none" stroke="#38bdf8" stroke-width="1.05" stroke-linecap="round" stroke-linejoin="round"/><path d="M52.14 311 l1.24 1.488 2.48 -2.79" fill="none" stroke="#38bdf8" stroke-width="1.05" stroke-linecap="round" stroke-linejoin="round"/><text x="72.0" y="315.0" font-family="-apple-system,BlinkMacSystemFont,'SF Pro Display','SF Pro Text','Segoe UI',Roboto,system-ui,sans-serif" font-size="11" font-weight="550" fill="#f2effc" text-anchor="start">Tamper-evident audit chain</text><rect x="34.0" y="338.0" width="252.0" height="38.0" rx="10" fill="url(#gCard)" stroke="#302a60" stroke-width="1"/><path d="M50.28 358.24 c0 -4.34 1.8599999999999999 -5.58 3.7199999999999998 -5.58 c1.8599999999999999 0 3.7199999999999998 1.24 3.7199999999999998 4.34" fill="none" stroke="#38bdf8" stroke-width="1.05" stroke-linecap="round" stroke-linejoin="round"/><path d="M52.14 359.48 c0 -3.7199999999999998 1.24 -4.34 1.8599999999999999 -4.34 c1.24 0 1.8599999999999999 1.24 1.8599999999999999 3.1" fill="none" stroke="#38bdf8" stroke-width="1.05" stroke-linecap="round" stroke-linejoin="round"/><path d="M54 360.72 v-3.7199999999999998" fill="none" stroke="#38bdf8" stroke-width="1.05" stroke-linecap="round" stroke-linejoin="round"/><text x="72.0" y="361.0" font-family="-apple-system,BlinkMacSystemFont,'SF Pro Display','SF Pro Text','Segoe UI',Roboto,system-ui,sans-serif" font-size="11" font-weight="550" fill="#f2effc" text-anchor="start">Tenant-isolated · AAD-bound</text><rect x="34.0" y="384.0" width="252.0" height="38.0" rx="10" fill="url(#gCard)" stroke="#302a60" stroke-width="1"/><rect x="50.28" y="398.04" width="7.4399999999999995" height="9.92" rx="1.5" fill="none" stroke="#38bdf8" stroke-width="1.05" stroke-linecap="round" stroke-linejoin="round"/><rect x="51.52" y="399.9" width="1.24" height="1.24" rx="0.4" fill="#38bdf8"/><rect x="53.38" y="399.9" width="1.24" height="1.24" rx="0.4" fill="#38bdf8"/><rect x="55.24" y="399.9" width="1.24" height="1.24" rx="0.4" fill="#38bdf8"/><rect x="51.52" y="402.008" width="1.24" height="1.24" rx="0.4" fill="#38bdf8"/><rect x="53.38" y="402.008" width="1.24" height="1.24" rx="0.4" fill="#38bdf8"/><rect x="55.24" y="402.008" width="1.24" height="1.24" rx="0.4" fill="#38bdf8"/><rect x="51.52" y="404.116" width="1.24" height="1.24" rx="0.4" fill="#38bdf8"/><rect x="53.38" y="404.116" width="1.24" height="1.24" rx="0.4" fill="#38bdf8"/><rect x="55.24" y="404.116" width="1.24" height="1.24" rx="0.4" fill="#38bdf8"/><text x="72.0" y="407.0" font-family="-apple-system,BlinkMacSystemFont,'SF Pro Display','SF Pro Text','Segoe UI',Roboto,system-ui,sans-serif" font-size="11" font-weight="550" fill="#f2effc" text-anchor="start">On-prem or colocation</text><rect x="20.0" y="586.0" width="280.0" height="52.0" rx="0" fill="#0e0a26"/><rect x="20" y="586" width="280" height="1" fill="#302a60"/><rect x="49.96" y="598.96" width="4.32" height="4.32" rx="1.4" fill="none" stroke="#6a6399" stroke-width="1.22" stroke-linecap="round" stroke-linejoin="round"/><rect x="55.72" y="598.96" width="4.32" height="4.32" rx="1.4" fill="none" stroke="#6a6399" stroke-width="1.22" stroke-linecap="round" stroke-linejoin="round"/><rect x="49.96" y="604.72" width="4.32" height="4.32" rx="1.4" fill="none" stroke="#6a6399" stroke-width="1.22" stroke-linecap="round" stroke-linejoin="round"/><rect x="55.72" y="604.72" width="4.32" height="4.32" rx="1.4" fill="none" stroke="#6a6399" stroke-width="1.22" stroke-linecap="round" stroke-linejoin="round"/><text x="55.0" y="626.0" font-family="-apple-system,BlinkMacSystemFont,'SF Pro Display','SF Pro Text','Segoe UI',Roboto,system-ui,sans-serif" font-size="8.2" font-weight="600" fill="#6a6399" text-anchor="middle">Overview</text><rect x="120.68" y="602.56" width="8.64" height="6.4799999999999995" rx="2" fill="none" stroke="#6a6399" stroke-width="1.22" stroke-linecap="round" stroke-linejoin="round"/><path d="M122.48 602.56 v-2.16 a2.52 2.52 0 0 1 5.04 0 v2.16" fill="none" stroke="#6a6399" stroke-width="1.22" stroke-linecap="round" stroke-linejoin="round"/><circle cx="125.0" cy="605.8" r="0.864" fill="#6a6399"/><text x="125.0" y="626.0" font-family="-apple-system,BlinkMacSystemFont,'SF Pro Display','SF Pro Text','Segoe UI',Roboto,system-ui,sans-serif" font-size="8.2" font-weight="600" fill="#6a6399" text-anchor="middle">Vault</text><path d="M195.0 598.24 l5.04 2.16 v3.5999999999999996 c0 3.5999999999999996 -2.16 5.04 -5.04 6.4799999999999995 c-2.88 -1.44 -5.04 -2.88 -5.04 -6.4799999999999995 v-3.5999999999999996 Z" fill="none" stroke="#6a6399" stroke-width="1.22" stroke-linecap="round" stroke-linejoin="round"/><path d="M192.84 604 l1.44 1.728 2.88 -3.2399999999999998" fill="none" stroke="#6a6399" stroke-width="1.22" stroke-linecap="round" stroke-linejoin="round"/><text x="195.0" y="626.0" font-family="-apple-system,BlinkMacSystemFont,'SF Pro Display','SF Pro Text','Segoe UI',Roboto,system-ui,sans-serif" font-size="8.2" font-weight="600" fill="#6a6399" text-anchor="middle">Audit</text><rect x="264.064" y="597.52" width="1.8719999999999999" height="2.88" rx="1" transform="rotate(0 265.0 604)" fill="#38bdf8"/><rect x="264.064" y="597.52" width="1.8719999999999999" height="2.88" rx="1" transform="rotate(45 265.0 604)" fill="#38bdf8"/><rect x="264.064" y="597.52" width="1.8719999999999999" height="2.88" rx="1" transform="rotate(90 265.0 604)" fill="#38bdf8"/><rect x="264.064" y="597.52" width="1.8719999999999999" height="2.88" rx="1" transform="rotate(135 265.0 604)" fill="#38bdf8"/><rect x="264.064" y="597.52" width="1.8719999999999999" height="2.88" rx="1" transform="rotate(180 265.0 604)" fill="#38bdf8"/><rect x="264.064" y="597.52" width="1.8719999999999999" height="2.88" rx="1" transform="rotate(225 265.0 604)" fill="#38bdf8"/><rect x="264.064" y="597.52" width="1.8719999999999999" height="2.88" rx="1" transform="rotate(270 265.0 604)" fill="#38bdf8"/><rect x="264.064" y="597.52" width="1.8719999999999999" height="2.88" rx="1" transform="rotate(315 265.0 604)" fill="#38bdf8"/><circle cx="265.0" cy="604" r="3.312" fill="none" stroke="#38bdf8" stroke-width="1.22" stroke-linecap="round" stroke-linejoin="round"/><text x="265.0" y="626.0" font-family="-apple-system,BlinkMacSystemFont,'SF Pro Display','SF Pro Text','Segoe UI',Roboto,system-ui,sans-serif" font-size="8.2" font-weight="600" fill="#38bdf8" text-anchor="middle">More</text></svg>