<svg xmlns="http://www.w3.org/2000/svg" width="320" height="660" viewBox="0 0 320 660" role="img" aria-label="Sign Out screen"><defs>
      <linearGradient id="gScr" x1="0" y1="0" x2="0.6" y2="1">
        <stop offset="0" stop-color="#181235"/><stop offset="1" stop-color="#0c0920"/></linearGradient>
      <linearGradient id="gFrame" x1="0" y1="0" x2="1" y2="1">
        <stop offset="0" stop-color="#2a2352"/><stop offset="1" stop-color="#0a0818"/></linearGradient>
      <linearGradient id="gCard" x1="0" y1="0" x2="0.4" y2="1">
        <stop offset="0" stop-color="#201a48"/><stop offset="1" stop-color="#181240"/></linearGradient>
      <linearGradient id="gBrand" x1="0" y1="0" x2="1" y2="0">
        <stop offset="0" stop-color="#38bdf8"/><stop offset="1" stop-color="#7dd3fc"/></linearGradient>
      <linearGradient id="gAmber" x1="0" y1="0" x2="1" y2="0">
        <stop offset="0" stop-color="#ffb84d"/><stop offset="1" stop-color="#ffd27a"/></linearGradient>
      <linearGradient id="mV" x1="0" y1="0" x2="1" y2="0"><stop offset="0" stop-color="#38bdf8"/><stop offset="1" stop-color="#7dd3fc"/></linearGradient>
      <linearGradient id="mA" x1="0" y1="0" x2="1" y2="0"><stop offset="0" stop-color="#ffb84d"/><stop offset="1" stop-color="#ff9f45"/></linearGradient>
      <linearGradient id="mG" x1="0" y1="0" x2="1" y2="0"><stop offset="0" stop-color="#5fb87a"/><stop offset="1" stop-color="#7bc47f"/></linearGradient>
      <linearGradient id="mC" x1="0" y1="0" x2="1" y2="0"><stop offset="0" stop-color="#6bb6d6"/><stop offset="1" stop-color="#9fd8e8"/></linearGradient>
      <radialGradient id="orb" cx="36%" cy="30%" r="78%">
        <stop offset="0" stop-color="#cbeeff"/><stop offset="38%" stop-color="#38bdf8"/>
        <stop offset="78%" stop-color="#1f6fb2"/><stop offset="100%" stop-color="#0b2438"/></radialGradient>
      <radialGradient id="glow" cx="50%" cy="50%" r="50%">
        <stop offset="0" stop-color="#7bc47f" stop-opacity="0.5"/><stop offset="1" stop-color="#7bc47f" stop-opacity="0"/></radialGradient>
    </defs><rect x="10.0" y="12.0" width="300.0" height="636.0" rx="40" fill="url(#gFrame)"/><rect x="20.0" y="22.0" width="280.0" height="616.0" rx="31" fill="url(#gScr)"/><rect x="130.0" y="27.0" width="60.0" height="15.0" rx="7.5" fill="#05070d"/><text x="34.0" y="56.0" font-family="-apple-system,BlinkMacSystemFont,'SF Pro Display','SF Pro Text','Segoe UI',Roboto,system-ui,sans-serif" font-size="11" font-weight="600" fill="#c7c9d9" text-anchor="start">9:41</text><rect x="264.0" y="50.0" width="20.0" height="11.0" rx="3" fill="none" stroke="#c7c9d9" stroke-width="1.1"/><rect x="266.0" y="52.0" width="14.0" height="7.0" rx="2" fill="#c7c9d9"/><rect x="284.6" y="53.5" width="2.0" height="5.0" rx="1" fill="#c7c9d9"/><path d="M251 55 a6 6 0 0 1 11 0" fill="none" stroke="#c7c9d9" stroke-width="1.3"/><circle cx="256.5" cy="59" r="1.2" fill="#c7c9d9"/><rect x="234.0" y="58.1" width="2.6" height="1.9" rx="0.8" fill="#c7c9d9"/><rect x="238.0" y="56.2" width="2.6" height="3.8" rx="0.8" fill="#c7c9d9"/><rect x="242.0" y="54.3" width="2.6" height="5.7" rx="0.8" fill="#c7c9d9"/><rect x="246.0" y="52.4" width="2.6" height="7.6" rx="0.8" fill="#c7c9d9"/><text x="34.0" y="88.0" font-family="-apple-system,BlinkMacSystemFont,'SF Pro Display','SF Pro Text','Segoe UI',Roboto,system-ui,sans-serif" font-size="20" font-weight="700" fill="#f2effc" text-anchor="start" letter-spacing="-0.4">Sign Out</text><text x="34.0" y="106.0" font-family="-apple-system,BlinkMacSystemFont,'SF Pro Display','SF Pro Text','Segoe UI',Roboto,system-ui,sans-serif" font-size="11.5" font-weight="400" fill="#9a93c6" text-anchor="start">Console locked</text><circle cx="160.0" cy="162" r="48.0" fill="url(#glow)"/><circle cx="160.0" cy="162" r="32" fill="url(#orb)"/><circle cx="160.0" cy="162" r="32" fill="none" stroke="rgba(255,255,255,0.20)" stroke-width="1"/><ellipse cx="151.0" cy="151.1" rx="9.6" ry="5.8" fill="rgba(255,255,255,0.40)"/><rect x="151.6" y="159.2" width="16.799999999999997" height="12.6" rx="2" fill="none" stroke="rgba(255,255,255,0.95)" stroke-width="2.38" stroke-linecap="round" stroke-linejoin="round"/><path d="M155.1 159.2 v-4.199999999999999 a4.8999999999999995 4.8999999999999995 0 0 1 9.799999999999999 0 v4.199999999999999" fill="none" stroke="rgba(255,255,255,0.95)" stroke-width="2.38" stroke-linecap="round" stroke-linejoin="round"/><circle cx="160.0" cy="165.5" r="1.68" fill="rgba(255,255,255,0.95)"/><text x="160.0" y="214.0" font-family="-apple-system,BlinkMacSystemFont,'SF Pro Display','SF Pro Text','Segoe UI',Roboto,system-ui,sans-serif" font-size="16" font-weight="750" fill="#fff" text-anchor="middle">Console locked</text><text x="160.0" y="234.0" font-family="-apple-system,BlinkMacSystemFont,'SF Pro Display','SF Pro Text','Segoe UI',Roboto,system-ui,sans-serif" font-size="10" font-weight="400" fill="#9a93c6" text-anchor="middle">Your session ended. The vault stays sealed.</text><rect x="34.0" y="256.0" width="252.0" height="48.0" rx="16" fill="url(#gCard)" stroke="#302a60" stroke-width="1"/><rect x="46.0" y="263.0" width="34.0" height="34.0" rx="11" fill="rgba(123,196,127,0.16)"/><path d="M63 272.64 l6.44 2.7600000000000002 v4.6000000000000005 c0 4.6000000000000005 -2.7600000000000002 6.44 -6.44 8.280000000000001 c-3.68 -1.84 -6.44 -3.68 -6.44 -8.280000000000001 v-4.6000000000000005 Z" fill="none" stroke="#7bc47f" stroke-width="1.56" stroke-linecap="round" stroke-linejoin="round"/><path d="M60.24 280.0 l1.84 2.208 3.68 -4.140000000000001" fill="none" stroke="#7bc47f" stroke-width="1.56" stroke-linecap="round" stroke-linejoin="round"/><text x="90.0" y="274.0" font-family="-apple-system,BlinkMacSystemFont,'SF Pro Display','SF Pro Text','Segoe UI',Roboto,system-ui,sans-serif" font-size="13" font-weight="600" fill="#f2effc" text-anchor="start">Sign-out recorded</text><text x="90.0" y="289.0" font-family="-apple-system,BlinkMacSystemFont,'SF Pro Display','SF Pro Text','Segoe UI',Roboto,system-ui,sans-serif" font-size="11" font-weight="400" fill="#9a93c6" text-anchor="start">in the tamper-evident chain</text><rect x="34.0" y="314.0" width="252.0" height="48.0" rx="16" fill="url(#gCard)" stroke="#302a60" stroke-width="1"/><rect x="46.0" y="321.0" width="34.0" height="34.0" rx="11" fill="rgba(159,216,232,0.16)"/><rect x="57.48" y="336.16" width="11.040000000000001" height="8.280000000000001" rx="2" fill="none" stroke="#9fd8e8" stroke-width="1.56" stroke-linecap="round" stroke-linejoin="round"/><path d="M59.78 336.16 v-2.7600000000000002 a3.22 3.22 0 0 1 6.44 0 v2.7600000000000002" fill="none" stroke="#9fd8e8" stroke-width="1.56" stroke-linecap="round" stroke-linejoin="round"/><circle cx="63" cy="340.3" r="1.104" fill="#9fd8e8"/><text x="90.0" y="332.0" font-family="-apple-system,BlinkMacSystemFont,'SF Pro Display','SF Pro Text','Segoe UI',Roboto,system-ui,sans-serif" font-size="13" font-weight="600" fill="#f2effc" text-anchor="start">Vault sealed</text><text x="90.0" y="347.0" font-family="-apple-system,BlinkMacSystemFont,'SF Pro Display','SF Pro Text','Segoe UI',Roboto,system-ui,sans-serif" font-size="11" font-weight="400" fill="#9a93c6" text-anchor="start">AES-256-GCM at rest</text><rect x="34.0" y="372.0" width="252.0" height="48.0" rx="16" fill="url(#gCard)" stroke="#302a60" stroke-width="1"/><rect x="46.0" y="379.0" width="34.0" height="34.0" rx="11" fill="rgba(255,184,77,0.16)"/><path d="M63 388.64 L70.36 401.52 H55.64 Z" fill="none" stroke="#ffb84d" stroke-width="1.56" stroke-linecap="round" stroke-linejoin="round"/><path d="M63 393.24 v3.68" fill="none" stroke="#ffb84d" stroke-width="1.56" stroke-linecap="round" stroke-linejoin="round"/><circle cx="63" cy="399.68" r="0.8280000000000001" fill="#ffb84d"/><text x="90.0" y="390.0" font-family="-apple-system,BlinkMacSystemFont,'SF Pro Display','SF Pro Text','Segoe UI',Roboto,system-ui,sans-serif" font-size="13" font-weight="600" fill="#f2effc" text-anchor="start">Token still valid</text><text x="90.0" y="405.0" font-family="-apple-system,BlinkMacSystemFont,'SF Pro Display','SF Pro Text','Segoe UI',Roboto,system-ui,sans-serif" font-size="11" font-weight="400" fill="#9a93c6" text-anchor="start">revoke it any time</text><rect x="34.0" y="432.0" width="252.0" height="42.0" rx="13" fill="url(#gBrand)"/><text x="160.0" y="457.5" font-family="-apple-system,BlinkMacSystemFont,'SF Pro Display','SF Pro Text','Segoe UI',Roboto,system-ui,sans-serif" font-size="13" font-weight="700" fill="#fff" text-anchor="middle">Sign Out</text><rect x="20.0" y="586.0" width="280.0" height="52.0" rx="0" fill="#0e0a26"/><rect x="20" y="586" width="280" height="1" fill="#302a60"/><rect x="49.96" y="598.96" width="4.32" height="4.32" rx="1.4" fill="none" stroke="#38bdf8" stroke-width="1.22" stroke-linecap="round" stroke-linejoin="round"/><rect x="55.72" y="598.96" width="4.32" height="4.32" rx="1.4" fill="none" stroke="#38bdf8" stroke-width="1.22" stroke-linecap="round" stroke-linejoin="round"/><rect x="49.96" y="604.72" width="4.32" height="4.32" rx="1.4" fill="none" stroke="#38bdf8" stroke-width="1.22" stroke-linecap="round" stroke-linejoin="round"/><rect x="55.72" y="604.72" width="4.32" height="4.32" rx="1.4" fill="none" stroke="#38bdf8" stroke-width="1.22" stroke-linecap="round" stroke-linejoin="round"/><text x="55.0" y="626.0" font-family="-apple-system,BlinkMacSystemFont,'SF Pro Display','SF Pro Text','Segoe UI',Roboto,system-ui,sans-serif" font-size="8.2" font-weight="600" fill="#38bdf8" text-anchor="middle">Overview</text><rect x="120.68" y="602.56" width="8.64" height="6.4799999999999995" rx="2" fill="none" stroke="#6a6399" stroke-width="1.22" stroke-linecap="round" stroke-linejoin="round"/><path d="M122.48 602.56 v-2.16 a2.52 2.52 0 0 1 5.04 0 v2.16" fill="none" stroke="#6a6399" stroke-width="1.22" stroke-linecap="round" stroke-linejoin="round"/><circle cx="125.0" cy="605.8" r="0.864" fill="#6a6399"/><text x="125.0" y="626.0" font-family="-apple-system,BlinkMacSystemFont,'SF Pro Display','SF Pro Text','Segoe UI',Roboto,system-ui,sans-serif" font-size="8.2" font-weight="600" fill="#6a6399" text-anchor="middle">Vault</text><path d="M195.0 598.24 l5.04 2.16 v3.5999999999999996 c0 3.5999999999999996 -2.16 5.04 -5.04 6.4799999999999995 c-2.88 -1.44 -5.04 -2.88 -5.04 -6.4799999999999995 v-3.5999999999999996 Z" fill="none" stroke="#6a6399" stroke-width="1.22" stroke-linecap="round" stroke-linejoin="round"/><path d="M192.84 604 l1.44 1.728 2.88 -3.2399999999999998" fill="none" stroke="#6a6399" stroke-width="1.22" stroke-linecap="round" stroke-linejoin="round"/><text x="195.0" y="626.0" font-family="-apple-system,BlinkMacSystemFont,'SF Pro Display','SF Pro Text','Segoe UI',Roboto,system-ui,sans-serif" font-size="8.2" font-weight="600" fill="#6a6399" text-anchor="middle">Audit</text><rect x="264.064" y="597.52" width="1.8719999999999999" height="2.88" rx="1" transform="rotate(0 265.0 604)" fill="#6a6399"/><rect x="264.064" y="597.52" width="1.8719999999999999" height="2.88" rx="1" transform="rotate(45 265.0 604)" fill="#6a6399"/><rect x="264.064" y="597.52" width="1.8719999999999999" height="2.88" rx="1" transform="rotate(90 265.0 604)" fill="#6a6399"/><rect x="264.064" y="597.52" width="1.8719999999999999" height="2.88" rx="1" transform="rotate(135 265.0 604)" fill="#6a6399"/><rect x="264.064" y="597.52" width="1.8719999999999999" height="2.88" rx="1" transform="rotate(180 265.0 604)" fill="#6a6399"/><rect x="264.064" y="597.52" width="1.8719999999999999" height="2.88" rx="1" transform="rotate(225 265.0 604)" fill="#6a6399"/><rect x="264.064" y="597.52" width="1.8719999999999999" height="2.88" rx="1" transform="rotate(270 265.0 604)" fill="#6a6399"/><rect x="264.064" y="597.52" width="1.8719999999999999" height="2.88" rx="1" transform="rotate(315 265.0 604)" fill="#6a6399"/><circle cx="265.0" cy="604" r="3.312" fill="none" stroke="#6a6399" stroke-width="1.22" stroke-linecap="round" stroke-linejoin="round"/><text x="265.0" y="626.0" font-family="-apple-system,BlinkMacSystemFont,'SF Pro Display','SF Pro Text','Segoe UI',Roboto,system-ui,sans-serif" font-size="8.2" font-weight="600" fill="#6a6399" text-anchor="middle">More</text><rect x="118.0" y="631.0" width="84.0" height="4.0" rx="2" fill="rgba(255,255,255,0.6)"/></svg>