<svg xmlns="http://www.w3.org/2000/svg" width="320" height="660" viewBox="0 0 320 660" role="img" aria-label="Connectors screen"><defs>
      <linearGradient id="gScr" x1="0" y1="0" x2="0.6" y2="1">
        <stop offset="0" stop-color="#181235"/><stop offset="1" stop-color="#0c0920"/></linearGradient>
      <linearGradient id="gFrame" x1="0" y1="0" x2="1" y2="1">
        <stop offset="0" stop-color="#2a2352"/><stop offset="1" stop-color="#0a0818"/></linearGradient>
      <linearGradient id="gCard" x1="0" y1="0" x2="0.4" y2="1">
        <stop offset="0" stop-color="#201a48"/><stop offset="1" stop-color="#181240"/></linearGradient>
      <linearGradient id="gBrand" x1="0" y1="0" x2="1" y2="0">
        <stop offset="0" stop-color="#38bdf8"/><stop offset="1" stop-color="#7dd3fc"/></linearGradient>
      <linearGradient id="gAmber" x1="0" y1="0" x2="1" y2="0">
        <stop offset="0" stop-color="#ffb84d"/><stop offset="1" stop-color="#ffd27a"/></linearGradient>
      <linearGradient id="mV" x1="0" y1="0" x2="1" y2="0"><stop offset="0" stop-color="#38bdf8"/><stop offset="1" stop-color="#7dd3fc"/></linearGradient>
      <linearGradient id="mA" x1="0" y1="0" x2="1" y2="0"><stop offset="0" stop-color="#ffb84d"/><stop offset="1" stop-color="#ff9f45"/></linearGradient>
      <linearGradient id="mG" x1="0" y1="0" x2="1" y2="0"><stop offset="0" stop-color="#5fb87a"/><stop offset="1" stop-color="#7bc47f"/></linearGradient>
      <linearGradient id="mC" x1="0" y1="0" x2="1" y2="0"><stop offset="0" stop-color="#6bb6d6"/><stop offset="1" stop-color="#9fd8e8"/></linearGradient>
      <radialGradient id="orb" cx="36%" cy="30%" r="78%">
        <stop offset="0" stop-color="#cbeeff"/><stop offset="38%" stop-color="#38bdf8"/>
        <stop offset="78%" stop-color="#1f6fb2"/><stop offset="100%" stop-color="#0b2438"/></radialGradient>
      <radialGradient id="glow" cx="50%" cy="50%" r="50%">
        <stop offset="0" stop-color="#38bdf8" stop-opacity="0.5"/><stop offset="1" stop-color="#38bdf8" stop-opacity="0"/></radialGradient>
    </defs><rect x="10.0" y="12.0" width="300.0" height="636.0" rx="40" fill="url(#gFrame)"/><rect x="20.0" y="22.0" width="280.0" height="616.0" rx="31" fill="url(#gScr)"/><rect x="130.0" y="27.0" width="60.0" height="15.0" rx="7.5" fill="#05070d"/><text x="34.0" y="56.0" font-family="-apple-system,BlinkMacSystemFont,'SF Pro Display','SF Pro Text','Segoe UI',Roboto,system-ui,sans-serif" font-size="11" font-weight="600" fill="#c7c9d9" text-anchor="start">9:41</text><rect x="264.0" y="50.0" width="20.0" height="11.0" rx="3" fill="none" stroke="#c7c9d9" stroke-width="1.1"/><rect x="266.0" y="52.0" width="14.0" height="7.0" rx="2" fill="#c7c9d9"/><rect x="284.6" y="53.5" width="2.0" height="5.0" rx="1" fill="#c7c9d9"/><path d="M251 55 a6 6 0 0 1 11 0" fill="none" stroke="#c7c9d9" stroke-width="1.3"/><circle cx="256.5" cy="59" r="1.2" fill="#c7c9d9"/><rect x="234.0" y="58.1" width="2.6" height="1.9" rx="0.8" fill="#c7c9d9"/><rect x="238.0" y="56.2" width="2.6" height="3.8" rx="0.8" fill="#c7c9d9"/><rect x="242.0" y="54.3" width="2.6" height="5.7" rx="0.8" fill="#c7c9d9"/><rect x="246.0" y="52.4" width="2.6" height="7.6" rx="0.8" fill="#c7c9d9"/><text x="34.0" y="88.0" font-family="-apple-system,BlinkMacSystemFont,'SF Pro Display','SF Pro Text','Segoe UI',Roboto,system-ui,sans-serif" font-size="20" font-weight="700" fill="#f2effc" text-anchor="start" letter-spacing="-0.4">Connectors</text><text x="34.0" y="106.0" font-family="-apple-system,BlinkMacSystemFont,'SF Pro Display','SF Pro Text','Segoe UI',Roboto,system-ui,sans-serif" font-size="11.5" font-weight="400" fill="#9a93c6" text-anchor="start">Collect into the vault · publish</text><text x="34.0" y="122.0" font-family="-apple-system,BlinkMacSystemFont,'SF Pro Display','SF Pro Text','Segoe UI',Roboto,system-ui,sans-serif" font-size="10.5" font-weight="400" fill="#9a93c6" text-anchor="start">Collect into the vault · publish to run.</text><text x="34.0" y="148.0" font-family="-apple-system,BlinkMacSystemFont,'SF Pro Display','SF Pro Text','Segoe UI',Roboto,system-ui,sans-serif" font-size="9.5" font-weight="700" fill="#6a6399" text-anchor="start" letter-spacing="0.8">COLLECTING</text><rect x="224.4" y="140.0" width="61.6" height="17.0" rx="8" fill="rgba(159,216,232,0.16)"/><text x="255.2" y="152.0" font-family="-apple-system,BlinkMacSystemFont,'SF Pro Display','SF Pro Text','Segoe UI',Roboto,system-ui,sans-serif" font-size="9.5" font-weight="700" fill="#9fd8e8" text-anchor="middle" letter-spacing="0.4">→ sealed</text><rect x="34.0" y="164.0" width="252.0" height="50.0" rx="14" fill="url(#gCard)" stroke="#302a60" stroke-width="1"/><rect x="44.0" y="172.0" width="34.0" height="34.0" rx="11" fill="rgba(56,189,248,0.16)"/><rect x="53.64" y="183.48" width="14.72" height="11.040000000000001" rx="2" fill="none" stroke="#38bdf8" stroke-width="1.56" stroke-linecap="round" stroke-linejoin="round"/><circle cx="58.24" cy="188.08" r="1.6560000000000001" fill="none" stroke="#38bdf8" stroke-width="1.56" stroke-linecap="round" stroke-linejoin="round"/><path d="M53.64 192.68 l4.6000000000000005 -3.68 3.68 2.7600000000000002 2.7600000000000002 -1.84 3.68 2.7600000000000002" fill="none" stroke="#38bdf8" stroke-width="1.56" stroke-linecap="round" stroke-linejoin="round"/><text x="88.0" y="186.0" font-family="-apple-system,BlinkMacSystemFont,'SF Pro Display','SF Pro Text','Segoe UI',Roboto,system-ui,sans-serif" font-size="12.5" font-weight="650" fill="#f2effc" text-anchor="start">Instagram</text><text x="88.0" y="201.0" font-family="-apple-system,BlinkMacSystemFont,'SF Pro Display','SF Pro Text','Segoe UI',Roboto,system-ui,sans-serif" font-size="10" font-weight="400" fill="#9a93c6" text-anchor="start">@dana · 1,204 sealed</text><rect x="218.6" y="178.0" width="55.4" height="17.0" rx="8" fill="rgba(159,216,232,0.16)"/><text x="246.3" y="190.0" font-family="-apple-system,BlinkMacSystemFont,'SF Pro Display','SF Pro Text','Segoe UI',Roboto,system-ui,sans-serif" font-size="9.5" font-weight="700" fill="#9fd8e8" text-anchor="middle" letter-spacing="0.4">COLLECT</text><rect x="34.0" y="222.0" width="252.0" height="50.0" rx="14" fill="url(#gCard)" stroke="#302a60" stroke-width="1"/><rect x="44.0" y="230.0" width="34.0" height="34.0" rx="11" fill="rgba(159,216,232,0.16)"/><path d="M53.64 241.48 h14.72 a2 2 0 0 1 2 2 v6.44 a2 2 0 0 1 -2 2 h-8.280000000000001 l-3.68 3.68 v-3.68 h-2.7600000000000002 a2 2 0 0 1 -2 -2 v-6.44 a2 2 0 0 1 2 -2 Z" fill="none" stroke="#9fd8e8" stroke-width="1.56" stroke-linecap="round" stroke-linejoin="round"/><text x="88.0" y="244.0" font-family="-apple-system,BlinkMacSystemFont,'SF Pro Display','SF Pro Text','Segoe UI',Roboto,system-ui,sans-serif" font-size="12.5" font-weight="650" fill="#f2effc" text-anchor="start">X</text><text x="88.0" y="259.0" font-family="-apple-system,BlinkMacSystemFont,'SF Pro Display','SF Pro Text','Segoe UI',Roboto,system-ui,sans-serif" font-size="10" font-weight="400" fill="#9a93c6" text-anchor="start">@dana · 820 sealed</text><rect x="218.6" y="236.0" width="55.4" height="17.0" rx="8" fill="rgba(159,216,232,0.16)"/><text x="246.3" y="248.0" font-family="-apple-system,BlinkMacSystemFont,'SF Pro Display','SF Pro Text','Segoe UI',Roboto,system-ui,sans-serif" font-size="9.5" font-weight="700" fill="#9fd8e8" text-anchor="middle" letter-spacing="0.4">COLLECT</text><text x="34.0" y="286.0" font-family="-apple-system,BlinkMacSystemFont,'SF Pro Display','SF Pro Text','Segoe UI',Roboto,system-ui,sans-serif" font-size="9.5" font-weight="700" fill="#6a6399" text-anchor="start" letter-spacing="0.8">PUBLISHING</text><rect x="174.8" y="278.0" width="111.2" height="17.0" rx="8" fill="rgba(123,196,127,0.16)"/><text x="230.4" y="290.0" font-family="-apple-system,BlinkMacSystemFont,'SF Pro Display','SF Pro Text','Segoe UI',Roboto,system-ui,sans-serif" font-size="9.5" font-weight="700" fill="#7bc47f" text-anchor="middle" letter-spacing="0.4">runs on platform</text><rect x="34.0" y="302.0" width="252.0" height="82.0" rx="15" fill="url(#gCard)" stroke="#302a60" stroke-width="1"/><rect x="46.0" y="314.0" width="34.0" height="34.0" rx="11" fill="rgba(56,189,248,0.16)"/><rect x="57.48" y="323.64" width="11.040000000000001" height="14.72" rx="1.5" fill="none" stroke="#38bdf8" stroke-width="1.56" stroke-linecap="round" stroke-linejoin="round"/><rect x="59.32" y="326.4" width="1.84" height="1.84" rx="0.4" fill="#38bdf8"/><rect x="62.08" y="326.4" width="1.84" height="1.84" rx="0.4" fill="#38bdf8"/><rect x="64.84" y="326.4" width="1.84" height="1.84" rx="0.4" fill="#38bdf8"/><rect x="59.32" y="329.52799999999996" width="1.84" height="1.84" rx="0.4" fill="#38bdf8"/><rect x="62.08" y="329.52799999999996" width="1.84" height="1.84" rx="0.4" fill="#38bdf8"/><rect x="64.84" y="329.52799999999996" width="1.84" height="1.84" rx="0.4" fill="#38bdf8"/><rect x="59.32" y="332.65599999999995" width="1.84" height="1.84" rx="0.4" fill="#38bdf8"/><rect x="62.08" y="332.65599999999995" width="1.84" height="1.84" rx="0.4" fill="#38bdf8"/><rect x="64.84" y="332.65599999999995" width="1.84" height="1.84" rx="0.4" fill="#38bdf8"/><text x="88.0" y="328.0" font-family="-apple-system,BlinkMacSystemFont,'SF Pro Display','SF Pro Text','Segoe UI',Roboto,system-ui,sans-serif" font-size="12.5" font-weight="650" fill="#f2effc" text-anchor="start">LinkedIn</text><text x="88.0" y="344.0" font-family="-apple-system,BlinkMacSystemFont,'SF Pro Display','SF Pro Text','Segoe UI',Roboto,system-ui,sans-serif" font-size="10" font-weight="400" fill="#9a93c6" text-anchor="start">@dana</text><rect x="146.0" y="323.0" width="38.0" height="16.0" rx="8" fill="rgba(123,196,127,0.14)"/><circle cx="155.0" cy="331" r="3" fill="#7bc47f"/><text x="162.0" y="335.0" font-family="-apple-system,BlinkMacSystemFont,'SF Pro Display','SF Pro Text','Segoe UI',Roboto,system-ui,sans-serif" font-size="9" font-weight="700" fill="#7bc47f" text-anchor="start" letter-spacing="0.5">LIVE</text><text x="88.0" y="364.0" font-family="-apple-system,BlinkMacSystemFont,'SF Pro Display','SF Pro Text','Segoe UI',Roboto,system-ui,sans-serif" font-size="9" font-weight="400" fill="#6a6399" text-anchor="start">scan to reach you</text><rect x="212.0" y="312.0" width="62.0" height="62.0" rx="14" fill="#ffffff"/><rect x="240.0" y="322.0" width="2.0" height="2.0" rx="0" fill="#140f34"/><rect x="242.0" y="322.0" width="2.0" height="2.0" rx="0" fill="#140f34"/><rect x="244.0" y="322.0" width="2.0" height="2.0" rx="0" fill="#140f34"/><rect x="244.0" y="324.0" width="2.0" height="2.0" rx="0" fill="#140f34"/><rect x="238.0" y="326.0" width="2.0" height="2.0" rx="0" fill="#140f34"/><rect x="246.0" y="326.0" width="2.0" height="2.0" rx="0" fill="#140f34"/><rect x="238.0" y="328.0" width="2.0" height="2.0" rx="0" fill="#140f34"/><rect x="246.0" y="328.0" width="2.0" height="2.0" rx="0" fill="#140f34"/><rect x="238.0" y="330.0" width="2.0" height="2.0" rx="0" fill="#140f34"/><rect x="240.0" y="330.0" width="2.0" height="2.0" rx="0" fill="#140f34"/><rect x="242.0" y="330.0" width="2.0" height="2.0" rx="0" fill="#140f34"/><rect x="244.0" y="330.0" width="2.0" height="2.0" rx="0" fill="#140f34"/><rect x="246.0" y="330.0" width="2.0" height="2.0" rx="0" fill="#140f34"/><rect x="238.0" y="332.0" width="2.0" height="2.0" rx="0" fill="#140f34"/><rect x="242.0" y="332.0" width="2.0" height="2.0" rx="0" fill="#140f34"/><rect x="246.0" y="332.0" width="2.0" height="2.0" rx="0" fill="#140f34"/><rect x="238.0" y="334.0" width="2.0" height="2.0" rx="0" fill="#140f34"/><rect x="240.0" y="336.0" width="2.0" height="2.0" rx="0" fill="#140f34"/><rect x="242.0" y="336.0" width="2.0" height="2.0" rx="0" fill="#140f34"/><rect x="244.0" y="336.0" width="2.0" height="2.0" rx="0" fill="#140f34"/><rect x="246.0" y="336.0" width="2.0" height="2.0" rx="0" fill="#140f34"/><rect x="222.0" y="338.0" width="2.0" height="2.0" rx="0" fill="#140f34"/><rect x="224.0" y="338.0" width="2.0" height="2.0" rx="0" fill="#140f34"/><rect x="228.0" y="338.0" width="2.0" height="2.0" rx="0" fill="#140f34"/><rect x="236.0" y="338.0" width="2.0" height="2.0" rx="0" fill="#140f34"/><rect x="242.0" y="338.0" width="2.0" height="2.0" rx="0" fill="#140f34"/><rect x="260.0" y="338.0" width="2.0" height="2.0" rx="0" fill="#140f34"/><rect x="262.0" y="338.0" width="2.0" height="2.0" rx="0" fill="#140f34"/><rect x="224.0" y="340.0" width="2.0" height="2.0" rx="0" fill="#140f34"/><rect x="226.0" y="340.0" width="2.0" height="2.0" rx="0" fill="#140f34"/><rect x="232.0" y="340.0" width="2.0" height="2.0" rx="0" fill="#140f34"/><rect x="234.0" y="340.0" width="2.0" height="2.0" rx="0" fill="#140f34"/><rect x="236.0" y="340.0" width="2.0" height="2.0" rx="0" fill="#140f34"/><rect x="242.0" y="340.0" width="2.0" height="2.0" rx="0" fill="#140f34"/><rect x="244.0" y="340.0" width="2.0" height="2.0" rx="0" fill="#140f34"/><rect x="246.0" y="340.0" width="2.0" height="2.0" rx="0" fill="#140f34"/><rect x="250.0" y="340.0" width="2.0" height="2.0" rx="0" fill="#140f34"/><rect x="254.0" y="340.0" width="2.0" height="2.0" rx="0" fill="#140f34"/><rect x="258.0" y="340.0" width="2.0" height="2.0" rx="0" fill="#140f34"/><rect x="260.0" y="340.0" width="2.0" height="2.0" rx="0" fill="#140f34"/><rect x="262.0" y="340.0" width="2.0" height="2.0" rx="0" fill="#140f34"/><rect x="224.0" y="342.0" width="2.0" height="2.0" rx="0" fill="#140f34"/><rect x="226.0" y="342.0" width="2.0" height="2.0" rx="0" fill="#140f34"/><rect x="228.0" y="342.0" width="2.0" height="2.0" rx="0" fill="#140f34"/><rect x="232.0" y="342.0" width="2.0" height="2.0" rx="0" fill="#140f34"/><rect x="240.0" y="342.0" width="2.0" height="2.0" rx="0" fill="#140f34"/><rect x="248.0" y="342.0" width="2.0" height="2.0" rx="0" fill="#140f34"/><rect x="250.0" y="342.0" width="2.0" height="2.0" rx="0" fill="#140f34"/><rect x="252.0" y="342.0" width="2.0" height="2.0" rx="0" fill="#140f34"/><rect x="222.0" y="344.0" width="2.0" height="2.0" rx="0" fill="#140f34"/><rect x="230.0" y="344.0" width="2.0" height="2.0" rx="0" fill="#140f34"/><rect x="238.0" y="344.0" width="2.0" height="2.0" rx="0" fill="#140f34"/><rect x="246.0" y="344.0" width="2.0" height="2.0" rx="0" fill="#140f34"/><rect x="248.0" y="344.0" width="2.0" height="2.0" rx="0" fill="#140f34"/><rect x="252.0" y="344.0" width="2.0" height="2.0" rx="0" fill="#140f34"/><rect x="258.0" y="344.0" width="2.0" height="2.0" rx="0" fill="#140f34"/><rect x="260.0" y="344.0" width="2.0" height="2.0" rx="0" fill="#140f34"/><rect x="262.0" y="344.0" width="2.0" height="2.0" rx="0" fill="#140f34"/><rect x="224.0" y="346.0" width="2.0" height="2.0" rx="0" fill="#140f34"/><rect x="226.0" y="346.0" width="2.0" height="2.0" rx="0" fill="#140f34"/><rect x="230.0" y="346.0" width="2.0" height="2.0" rx="0" fill="#140f34"/><rect x="248.0" y="346.0" width="2.0" height="2.0" rx="0" fill="#140f34"/><rect x="250.0" y="346.0" width="2.0" height="2.0" rx="0" fill="#140f34"/><rect x="254.0" y="346.0" width="2.0" height="2.0" rx="0" fill="#140f34"/><rect x="260.0" y="346.0" width="2.0" height="2.0" rx="0" fill="#140f34"/><rect x="244.0" y="348.0" width="2.0" height="2.0" rx="0" fill="#140f34"/><rect x="248.0" y="348.0" width="2.0" height="2.0" rx="0" fill="#140f34"/><rect x="238.0" y="350.0" width="2.0" height="2.0" rx="0" fill="#140f34"/><rect x="240.0" y="350.0" width="2.0" height="2.0" rx="0" fill="#140f34"/><rect x="244.0" y="350.0" width="2.0" height="2.0" rx="0" fill="#140f34"/><rect x="248.0" y="350.0" width="2.0" height="2.0" rx="0" fill="#140f34"/><rect x="252.0" y="350.0" width="2.0" height="2.0" rx="0" fill="#140f34"/><rect x="254.0" y="350.0" width="2.0" height="2.0" rx="0" fill="#140f34"/><rect x="262.0" y="350.0" width="2.0" height="2.0" rx="0" fill="#140f34"/><rect x="246.0" y="352.0" width="2.0" height="2.0" rx="0" fill="#140f34"/><rect x="250.0" y="352.0" width="2.0" height="2.0" rx="0" fill="#140f34"/><rect x="252.0" y="352.0" width="2.0" height="2.0" rx="0" fill="#140f34"/><rect x="254.0" y="352.0" width="2.0" height="2.0" rx="0" fill="#140f34"/><rect x="256.0" y="352.0" width="2.0" height="2.0" rx="0" fill="#140f34"/><rect x="258.0" y="352.0" width="2.0" height="2.0" rx="0" fill="#140f34"/><rect x="262.0" y="352.0" width="2.0" height="2.0" rx="0" fill="#140f34"/><rect x="238.0" y="354.0" width="2.0" height="2.0" rx="0" fill="#140f34"/><rect x="240.0" y="354.0" width="2.0" height="2.0" rx="0" fill="#140f34"/><rect x="242.0" y="354.0" width="2.0" height="2.0" rx="0" fill="#140f34"/><rect x="248.0" y="354.0" width="2.0" height="2.0" rx="0" fill="#140f34"/><rect x="250.0" y="354.0" width="2.0" height="2.0" rx="0" fill="#140f34"/><rect x="252.0" y="354.0" width="2.0" height="2.0" rx="0" fill="#140f34"/><rect x="256.0" y="354.0" width="2.0" height="2.0" rx="0" fill="#140f34"/><rect x="240.0" y="356.0" width="2.0" height="2.0" rx="0" fill="#140f34"/><rect x="244.0" y="356.0" width="2.0" height="2.0" rx="0" fill="#140f34"/><rect x="246.0" y="356.0" width="2.0" height="2.0" rx="0" fill="#140f34"/><rect x="248.0" y="356.0" width="2.0" height="2.0" rx="0" fill="#140f34"/><rect x="250.0" y="356.0" width="2.0" height="2.0" rx="0" fill="#140f34"/><rect x="254.0" y="356.0" width="2.0" height="2.0" rx="0" fill="#140f34"/><rect x="256.0" y="356.0" width="2.0" height="2.0" rx="0" fill="#140f34"/><rect x="258.0" y="356.0" width="2.0" height="2.0" rx="0" fill="#140f34"/><rect x="262.0" y="356.0" width="2.0" height="2.0" rx="0" fill="#140f34"/><rect x="242.0" y="358.0" width="2.0" height="2.0" rx="0" fill="#140f34"/><rect x="248.0" y="358.0" width="2.0" height="2.0" rx="0" fill="#140f34"/><rect x="260.0" y="358.0" width="2.0" height="2.0" rx="0" fill="#140f34"/><rect x="238.0" y="360.0" width="2.0" height="2.0" rx="0" fill="#140f34"/><rect x="240.0" y="360.0" width="2.0" height="2.0" rx="0" fill="#140f34"/><rect x="244.0" y="360.0" width="2.0" height="2.0" rx="0" fill="#140f34"/><rect x="246.0" y="360.0" width="2.0" height="2.0" rx="0" fill="#140f34"/><rect x="254.0" y="360.0" width="2.0" height="2.0" rx="0" fill="#140f34"/><rect x="256.0" y="360.0" width="2.0" height="2.0" rx="0" fill="#140f34"/><rect x="240.0" y="362.0" width="2.0" height="2.0" rx="0" fill="#140f34"/><rect x="244.0" y="362.0" width="2.0" height="2.0" rx="0" fill="#140f34"/><rect x="250.0" y="362.0" width="2.0" height="2.0" rx="0" fill="#140f34"/><rect x="254.0" y="362.0" width="2.0" height="2.0" rx="0" fill="#140f34"/><rect x="258.0" y="362.0" width="2.0" height="2.0" rx="0" fill="#140f34"/><rect x="260.0" y="362.0" width="2.0" height="2.0" rx="0" fill="#140f34"/><rect x="222.0" y="322.0" width="2.0" height="2.0" rx="0" fill="#140f34"/><rect x="224.0" y="322.0" width="2.0" height="2.0" rx="0" fill="#140f34"/><rect x="226.0" y="322.0" width="2.0" height="2.0" rx="0" fill="#140f34"/><rect x="228.0" y="322.0" width="2.0" height="2.0" rx="0" fill="#140f34"/><rect x="230.0" y="322.0" width="2.0" height="2.0" rx="0" fill="#140f34"/><rect x="232.0" y="322.0" width="2.0" height="2.0" rx="0" fill="#140f34"/><rect x="234.0" y="322.0" width="2.0" height="2.0" rx="0" fill="#140f34"/><rect x="222.0" y="324.0" width="2.0" height="2.0" rx="0" fill="#140f34"/><rect x="234.0" y="324.0" width="2.0" height="2.0" rx="0" fill="#140f34"/><rect x="222.0" y="326.0" width="2.0" height="2.0" rx="0" fill="#140f34"/><rect x="226.0" y="326.0" width="2.0" height="2.0" rx="0" fill="#140f34"/><rect x="228.0" y="326.0" width="2.0" height="2.0" rx="0" fill="#140f34"/><rect x="230.0" y="326.0" width="2.0" height="2.0" rx="0" fill="#140f34"/><rect x="234.0" y="326.0" width="2.0" height="2.0" rx="0" fill="#140f34"/><rect x="222.0" y="328.0" width="2.0" height="2.0" rx="0" fill="#140f34"/><rect x="226.0" y="328.0" width="2.0" height="2.0" rx="0" fill="#140f34"/><rect x="228.0" y="328.0" width="2.0" height="2.0" rx="0" fill="#140f34"/><rect x="230.0" y="328.0" width="2.0" height="2.0" rx="0" fill="#140f34"/><rect x="234.0" y="328.0" width="2.0" height="2.0" rx="0" fill="#140f34"/><rect x="222.0" y="330.0" width="2.0" height="2.0" rx="0" fill="#140f34"/><rect x="226.0" y="330.0" width="2.0" height="2.0" rx="0" fill="#140f34"/><rect x="228.0" y="330.0" width="2.0" height="2.0" rx="0" fill="#140f34"/><rect x="230.0" y="330.0" width="2.0" height="2.0" rx="0" fill="#140f34"/><rect x="234.0" y="330.0" width="2.0" height="2.0" rx="0" fill="#140f34"/><rect x="222.0" y="332.0" width="2.0" height="2.0" rx="0" fill="#140f34"/><rect x="234.0" y="332.0" width="2.0" height="2.0" rx="0" fill="#140f34"/><rect x="222.0" y="334.0" width="2.0" height="2.0" rx="0" fill="#140f34"/><rect x="224.0" y="334.0" width="2.0" height="2.0" rx="0" fill="#140f34"/><rect x="226.0" y="334.0" width="2.0" height="2.0" rx="0" fill="#140f34"/><rect x="228.0" y="334.0" width="2.0" height="2.0" rx="0" fill="#140f34"/><rect x="230.0" y="334.0" width="2.0" height="2.0" rx="0" fill="#140f34"/><rect x="232.0" y="334.0" width="2.0" height="2.0" rx="0" fill="#140f34"/><rect x="234.0" y="334.0" width="2.0" height="2.0" rx="0" fill="#140f34"/><rect x="250.0" y="322.0" width="2.0" height="2.0" rx="0" fill="#140f34"/><rect x="252.0" y="322.0" width="2.0" height="2.0" rx="0" fill="#140f34"/><rect x="254.0" y="322.0" width="2.0" height="2.0" rx="0" fill="#140f34"/><rect x="256.0" y="322.0" width="2.0" height="2.0" rx="0" fill="#140f34"/><rect x="258.0" y="322.0" width="2.0" height="2.0" rx="0" fill="#140f34"/><rect x="260.0" y="322.0" width="2.0" height="2.0" rx="0" fill="#140f34"/><rect x="262.0" y="322.0" width="2.0" height="2.0" rx="0" fill="#140f34"/><rect x="250.0" y="324.0" width="2.0" height="2.0" rx="0" fill="#140f34"/><rect x="262.0" y="324.0" width="2.0" height="2.0" rx="0" fill="#140f34"/><rect x="250.0" y="326.0" width="2.0" height="2.0" rx="0" fill="#140f34"/><rect x="254.0" y="326.0" width="2.0" height="2.0" rx="0" fill="#140f34"/><rect x="256.0" y="326.0" width="2.0" height="2.0" rx="0" fill="#140f34"/><rect x="258.0" y="326.0" width="2.0" height="2.0" rx="0" fill="#140f34"/><rect x="262.0" y="326.0" width="2.0" height="2.0" rx="0" fill="#140f34"/><rect x="250.0" y="328.0" width="2.0" height="2.0" rx="0" fill="#140f34"/><rect x="254.0" y="328.0" width="2.0" height="2.0" rx="0" fill="#140f34"/><rect x="256.0" y="328.0" width="2.0" height="2.0" rx="0" fill="#140f34"/><rect x="258.0" y="328.0" width="2.0" height="2.0" rx="0" fill="#140f34"/><rect x="262.0" y="328.0" width="2.0" height="2.0" rx="0" fill="#140f34"/><rect x="250.0" y="330.0" width="2.0" height="2.0" rx="0" fill="#140f34"/><rect x="254.0" y="330.0" width="2.0" height="2.0" rx="0" fill="#140f34"/><rect x="256.0" y="330.0" width="2.0" height="2.0" rx="0" fill="#140f34"/><rect x="258.0" y="330.0" width="2.0" height="2.0" rx="0" fill="#140f34"/><rect x="262.0" y="330.0" width="2.0" height="2.0" rx="0" fill="#140f34"/><rect x="250.0" y="332.0" width="2.0" height="2.0" rx="0" fill="#140f34"/><rect x="262.0" y="332.0" width="2.0" height="2.0" rx="0" fill="#140f34"/><rect x="250.0" y="334.0" width="2.0" height="2.0" rx="0" fill="#140f34"/><rect x="252.0" y="334.0" width="2.0" height="2.0" rx="0" fill="#140f34"/><rect x="254.0" y="334.0" width="2.0" height="2.0" rx="0" fill="#140f34"/><rect x="256.0" y="334.0" width="2.0" height="2.0" rx="0" fill="#140f34"/><rect x="258.0" y="334.0" width="2.0" height="2.0" rx="0" fill="#140f34"/><rect x="260.0" y="334.0" width="2.0" height="2.0" rx="0" fill="#140f34"/><rect x="262.0" y="334.0" width="2.0" height="2.0" rx="0" fill="#140f34"/><rect x="222.0" y="350.0" width="2.0" height="2.0" rx="0" fill="#140f34"/><rect x="224.0" y="350.0" width="2.0" height="2.0" rx="0" fill="#140f34"/><rect x="226.0" y="350.0" width="2.0" height="2.0" rx="0" fill="#140f34"/><rect x="228.0" y="350.0" width="2.0" height="2.0" rx="0" fill="#140f34"/><rect x="230.0" y="350.0" width="2.0" height="2.0" rx="0" fill="#140f34"/><rect x="232.0" y="350.0" width="2.0" height="2.0" rx="0" fill="#140f34"/><rect x="234.0" y="350.0" width="2.0" height="2.0" rx="0" fill="#140f34"/><rect x="222.0" y="352.0" width="2.0" height="2.0" rx="0" fill="#140f34"/><rect x="234.0" y="352.0" width="2.0" height="2.0" rx="0" fill="#140f34"/><rect x="222.0" y="354.0" width="2.0" height="2.0" rx="0" fill="#140f34"/><rect x="226.0" y="354.0" width="2.0" height="2.0" rx="0" fill="#140f34"/><rect x="228.0" y="354.0" width="2.0" height="2.0" rx="0" fill="#140f34"/><rect x="230.0" y="354.0" width="2.0" height="2.0" rx="0" fill="#140f34"/><rect x="234.0" y="354.0" width="2.0" height="2.0" rx="0" fill="#140f34"/><rect x="222.0" y="356.0" width="2.0" height="2.0" rx="0" fill="#140f34"/><rect x="226.0" y="356.0" width="2.0" height="2.0" rx="0" fill="#140f34"/><rect x="228.0" y="356.0" width="2.0" height="2.0" rx="0" fill="#140f34"/><rect x="230.0" y="356.0" width="2.0" height="2.0" rx="0" fill="#140f34"/><rect x="234.0" y="356.0" width="2.0" height="2.0" rx="0" fill="#140f34"/><rect x="222.0" y="358.0" width="2.0" height="2.0" rx="0" fill="#140f34"/><rect x="226.0" y="358.0" width="2.0" height="2.0" rx="0" fill="#140f34"/><rect x="228.0" y="358.0" width="2.0" height="2.0" rx="0" fill="#140f34"/><rect x="230.0" y="358.0" width="2.0" height="2.0" rx="0" fill="#140f34"/><rect x="234.0" y="358.0" width="2.0" height="2.0" rx="0" fill="#140f34"/><rect x="222.0" y="360.0" width="2.0" height="2.0" rx="0" fill="#140f34"/><rect x="234.0" y="360.0" width="2.0" height="2.0" rx="0" fill="#140f34"/><rect x="222.0" y="362.0" width="2.0" height="2.0" rx="0" fill="#140f34"/><rect x="224.0" y="362.0" width="2.0" height="2.0" rx="0" fill="#140f34"/><rect x="226.0" y="362.0" width="2.0" height="2.0" rx="0" fill="#140f34"/><rect x="228.0" y="362.0" width="2.0" height="2.0" rx="0" fill="#140f34"/><rect x="230.0" y="362.0" width="2.0" height="2.0" rx="0" fill="#140f34"/><rect x="232.0" y="362.0" width="2.0" height="2.0" rx="0" fill="#140f34"/><rect x="234.0" y="362.0" width="2.0" height="2.0" rx="0" fill="#140f34"/><text x="34.0" y="394.0" font-family="-apple-system,BlinkMacSystemFont,'SF Pro Display','SF Pro Text','Segoe UI',Roboto,system-ui,sans-serif" font-size="9.5" font-weight="500" fill="#6a6399" text-anchor="start">Collected items are encrypted at rest.</text><rect x="20.0" y="586.0" width="280.0" height="52.0" rx="0" fill="#0e0a26"/><rect x="20" y="586" width="280" height="1" fill="#302a60"/><rect x="49.96" y="598.96" width="4.32" height="4.32" rx="1.4" fill="none" stroke="#38bdf8" stroke-width="1.22" stroke-linecap="round" stroke-linejoin="round"/><rect x="55.72" y="598.96" width="4.32" height="4.32" rx="1.4" fill="none" stroke="#38bdf8" stroke-width="1.22" stroke-linecap="round" stroke-linejoin="round"/><rect x="49.96" y="604.72" width="4.32" height="4.32" rx="1.4" fill="none" stroke="#38bdf8" stroke-width="1.22" stroke-linecap="round" stroke-linejoin="round"/><rect x="55.72" y="604.72" width="4.32" height="4.32" rx="1.4" fill="none" stroke="#38bdf8" stroke-width="1.22" stroke-linecap="round" stroke-linejoin="round"/><text x="55.0" y="626.0" font-family="-apple-system,BlinkMacSystemFont,'SF Pro Display','SF Pro Text','Segoe UI',Roboto,system-ui,sans-serif" font-size="8.2" font-weight="600" fill="#38bdf8" text-anchor="middle">Overview</text><rect x="120.68" y="602.56" width="8.64" height="6.4799999999999995" rx="2" fill="none" stroke="#6a6399" stroke-width="1.22" stroke-linecap="round" stroke-linejoin="round"/><path d="M122.48 602.56 v-2.16 a2.52 2.52 0 0 1 5.04 0 v2.16" fill="none" stroke="#6a6399" stroke-width="1.22" stroke-linecap="round" stroke-linejoin="round"/><circle cx="125.0" cy="605.8" r="0.864" fill="#6a6399"/><text x="125.0" y="626.0" font-family="-apple-system,BlinkMacSystemFont,'SF Pro Display','SF Pro Text','Segoe UI',Roboto,system-ui,sans-serif" font-size="8.2" font-weight="600" fill="#6a6399" text-anchor="middle">Vault</text><path d="M195.0 598.24 l5.04 2.16 v3.5999999999999996 c0 3.5999999999999996 -2.16 5.04 -5.04 6.4799999999999995 c-2.88 -1.44 -5.04 -2.88 -5.04 -6.4799999999999995 v-3.5999999999999996 Z" fill="none" stroke="#6a6399" stroke-width="1.22" stroke-linecap="round" stroke-linejoin="round"/><path d="M192.84 604 l1.44 1.728 2.88 -3.2399999999999998" fill="none" stroke="#6a6399" stroke-width="1.22" stroke-linecap="round" stroke-linejoin="round"/><text x="195.0" y="626.0" font-family="-apple-system,BlinkMacSystemFont,'SF Pro Display','SF Pro Text','Segoe UI',Roboto,system-ui,sans-serif" font-size="8.2" font-weight="600" fill="#6a6399" text-anchor="middle">Audit</text><rect x="264.064" y="597.52" width="1.8719999999999999" height="2.88" rx="1" transform="rotate(0 265.0 604)" fill="#6a6399"/><rect x="264.064" y="597.52" width="1.8719999999999999" height="2.88" rx="1" transform="rotate(45 265.0 604)" fill="#6a6399"/><rect x="264.064" y="597.52" width="1.8719999999999999" height="2.88" rx="1" transform="rotate(90 265.0 604)" fill="#6a6399"/><rect x="264.064" y="597.52" width="1.8719999999999999" height="2.88" rx="1" transform="rotate(135 265.0 604)" fill="#6a6399"/><rect x="264.064" y="597.52" width="1.8719999999999999" height="2.88" rx="1" transform="rotate(180 265.0 604)" fill="#6a6399"/><rect x="264.064" y="597.52" width="1.8719999999999999" height="2.88" rx="1" transform="rotate(225 265.0 604)" fill="#6a6399"/><rect x="264.064" y="597.52" width="1.8719999999999999" height="2.88" rx="1" transform="rotate(270 265.0 604)" fill="#6a6399"/><rect x="264.064" y="597.52" width="1.8719999999999999" height="2.88" rx="1" transform="rotate(315 265.0 604)" fill="#6a6399"/><circle cx="265.0" cy="604" r="3.312" fill="none" stroke="#6a6399" stroke-width="1.22" stroke-linecap="round" stroke-linejoin="round"/><text x="265.0" y="626.0" font-family="-apple-system,BlinkMacSystemFont,'SF Pro Display','SF Pro Text','Segoe UI',Roboto,system-ui,sans-serif" font-size="8.2" font-weight="600" fill="#6a6399" text-anchor="middle">More</text><rect x="118.0" y="631.0" width="84.0" height="4.0" rx="2" fill="rgba(255,255,255,0.6)"/></svg>