<svg xmlns="http://www.w3.org/2000/svg" width="320" height="660" viewBox="0 0 320 660" role="img" aria-label="Audit Log screen"><defs>
      <linearGradient id="gScr" x1="0" y1="0" x2="0.6" y2="1">
        <stop offset="0" stop-color="#181235"/><stop offset="1" stop-color="#0c0920"/></linearGradient>
      <linearGradient id="gFrame" x1="0" y1="0" x2="1" y2="1">
        <stop offset="0" stop-color="#2a2352"/><stop offset="1" stop-color="#0a0818"/></linearGradient>
      <linearGradient id="gCard" x1="0" y1="0" x2="0.4" y2="1">
        <stop offset="0" stop-color="#201a48"/><stop offset="1" stop-color="#181240"/></linearGradient>
      <linearGradient id="gBrand" x1="0" y1="0" x2="1" y2="0">
        <stop offset="0" stop-color="#38bdf8"/><stop offset="1" stop-color="#7dd3fc"/></linearGradient>
      <linearGradient id="gAmber" x1="0" y1="0" x2="1" y2="0">
        <stop offset="0" stop-color="#ffb84d"/><stop offset="1" stop-color="#ffd27a"/></linearGradient>
      <linearGradient id="mV" x1="0" y1="0" x2="1" y2="0"><stop offset="0" stop-color="#38bdf8"/><stop offset="1" stop-color="#7dd3fc"/></linearGradient>
      <linearGradient id="mA" x1="0" y1="0" x2="1" y2="0"><stop offset="0" stop-color="#ffb84d"/><stop offset="1" stop-color="#ff9f45"/></linearGradient>
      <linearGradient id="mG" x1="0" y1="0" x2="1" y2="0"><stop offset="0" stop-color="#5fb87a"/><stop offset="1" stop-color="#7bc47f"/></linearGradient>
      <linearGradient id="mC" x1="0" y1="0" x2="1" y2="0"><stop offset="0" stop-color="#6bb6d6"/><stop offset="1" stop-color="#9fd8e8"/></linearGradient>
      <radialGradient id="orb" cx="36%" cy="30%" r="78%">
        <stop offset="0" stop-color="#cbeeff"/><stop offset="38%" stop-color="#38bdf8"/>
        <stop offset="78%" stop-color="#1f6fb2"/><stop offset="100%" stop-color="#0b2438"/></radialGradient>
      <radialGradient id="glow" cx="50%" cy="50%" r="50%">
        <stop offset="0" stop-color="#9fd8e8" stop-opacity="0.5"/><stop offset="1" stop-color="#9fd8e8" stop-opacity="0"/></radialGradient>
    </defs><rect x="10.0" y="12.0" width="300.0" height="636.0" rx="40" fill="url(#gFrame)"/><rect x="20.0" y="22.0" width="280.0" height="616.0" rx="31" fill="url(#gScr)"/><circle cx="160.0" cy="34" r="4.5" fill="#05070d"/><circle cx="160.0" cy="34" r="4.5" fill="none" stroke="#302a60" stroke-width="1"/><text x="34.0" y="56.0" font-family="-apple-system,BlinkMacSystemFont,'SF Pro Display','SF Pro Text','Segoe UI',Roboto,system-ui,sans-serif" font-size="11" font-weight="600" fill="#c7c9d9" text-anchor="start">9:41</text><rect x="277.0" y="49.0" width="8.0" height="12.0" rx="1.5" fill="none" stroke="#c7c9d9" stroke-width="1.2"/><rect x="278.5" y="53.0" width="5.0" height="7.0" rx="1" fill="#c7c9d9"/><path d="M266 61 L271 52 L276 61 Z" fill="#c7c9d9"/><path d="M253 61 L253 54 L261 61 Z" fill="#c7c9d9"/><text x="34.0" y="88.0" font-family="-apple-system,BlinkMacSystemFont,'SF Pro Display','SF Pro Text','Segoe UI',Roboto,system-ui,sans-serif" font-size="20" font-weight="700" fill="#f2effc" text-anchor="start" letter-spacing="-0.4">Audit Log</text><text x="34.0" y="106.0" font-family="-apple-system,BlinkMacSystemFont,'SF Pro Display','SF Pro Text','Segoe UI',Roboto,system-ui,sans-serif" font-size="11.5" font-weight="400" fill="#9a93c6" text-anchor="start">Append-only, hash-chained</text><line x1="50" y1="130" x2="50" y2="344" stroke="#302a60" stroke-width="2"/><circle cx="50" cy="134" r="9" fill="#0c0920" stroke="#7bc47f" stroke-width="2"/><circle cx="50" cy="134" r="3" fill="#7bc47f"/><rect x="72.0" y="116.0" width="214.0" height="46.0" rx="12" fill="url(#gCard)" stroke="#302a60" stroke-width="1"/><text x="86.0" y="133.0" font-family="-apple-system,BlinkMacSystemFont,'SF Pro Display','SF Pro Text','Segoe UI',Roboto,system-ui,sans-serif" font-size="10.5" font-weight="800" fill="#7bc47f" text-anchor="start" letter-spacing="0.6">STORE</text><rect x="235.0" y="122.0" width="43.0" height="17.0" rx="8" fill="rgba(159,216,232,0.16)"/><text x="256.5" y="134.0" font-family="-apple-system,BlinkMacSystemFont,'SF Pro Display','SF Pro Text','Segoe UI',Roboto,system-ui,sans-serif" font-size="9.5" font-weight="700" fill="#9fd8e8" text-anchor="middle" letter-spacing="0.4">#1842</text><text x="86.0" y="148.0" font-family="ui-monospace,Menlo,monospace" font-size="9.5" font-weight="500" fill="#9a93c6" text-anchor="start">records/med/contact</text><text x="86.0" y="159.0" font-family="ui-monospace,Menlo,monospace" font-size="8.5" font-weight="500" fill="#6a6399" text-anchor="start">sha256 3f9a… ↳ links prev</text><circle cx="50" cy="198" r="9" fill="#0c0920" stroke="#9fd8e8" stroke-width="2"/><circle cx="50" cy="198" r="3" fill="#9fd8e8"/><rect x="72.0" y="180.0" width="214.0" height="46.0" rx="12" fill="url(#gCard)" stroke="#302a60" stroke-width="1"/><text x="86.0" y="197.0" font-family="-apple-system,BlinkMacSystemFont,'SF Pro Display','SF Pro Text','Segoe UI',Roboto,system-ui,sans-serif" font-size="10.5" font-weight="800" fill="#9fd8e8" text-anchor="start" letter-spacing="0.6">READ</text><rect x="235.0" y="186.0" width="43.0" height="17.0" rx="8" fill="rgba(159,216,232,0.16)"/><text x="256.5" y="198.0" font-family="-apple-system,BlinkMacSystemFont,'SF Pro Display','SF Pro Text','Segoe UI',Roboto,system-ui,sans-serif" font-size="9.5" font-weight="700" fill="#9fd8e8" text-anchor="middle" letter-spacing="0.4">#1843</text><text x="86.0" y="212.0" font-family="ui-monospace,Menlo,monospace" font-size="9.5" font-weight="500" fill="#9a93c6" text-anchor="start">records/med/contact</text><text x="86.0" y="223.0" font-family="ui-monospace,Menlo,monospace" font-size="8.5" font-weight="500" fill="#6a6399" text-anchor="start">sha256 3f9a… ↳ links prev</text><circle cx="50" cy="262" r="9" fill="#0c0920" stroke="#7bc47f" stroke-width="2"/><circle cx="50" cy="262" r="3" fill="#7bc47f"/><rect x="72.0" y="244.0" width="214.0" height="46.0" rx="12" fill="url(#gCard)" stroke="#302a60" stroke-width="1"/><text x="86.0" y="261.0" font-family="-apple-system,BlinkMacSystemFont,'SF Pro Display','SF Pro Text','Segoe UI',Roboto,system-ui,sans-serif" font-size="10.5" font-weight="800" fill="#7bc47f" text-anchor="start" letter-spacing="0.6">STORE</text><rect x="235.0" y="250.0" width="43.0" height="17.0" rx="8" fill="rgba(159,216,232,0.16)"/><text x="256.5" y="262.0" font-family="-apple-system,BlinkMacSystemFont,'SF Pro Display','SF Pro Text','Segoe UI',Roboto,system-ui,sans-serif" font-size="9.5" font-weight="700" fill="#9fd8e8" text-anchor="middle" letter-spacing="0.4">#1844</text><text x="86.0" y="276.0" font-family="ui-monospace,Menlo,monospace" font-size="9.5" font-weight="500" fill="#9a93c6" text-anchor="start">contributions/qrme</text><text x="86.0" y="287.0" font-family="ui-monospace,Menlo,monospace" font-size="8.5" font-weight="500" fill="#6a6399" text-anchor="start">sha256 3f9a… ↳ links prev</text><circle cx="50" cy="326" r="9" fill="#0c0920" stroke="#e0687a" stroke-width="2"/><circle cx="50" cy="326" r="3" fill="#e0687a"/><rect x="72.0" y="308.0" width="214.0" height="46.0" rx="12" fill="url(#gCard)" stroke="#302a60" stroke-width="1"/><text x="86.0" y="325.0" font-family="-apple-system,BlinkMacSystemFont,'SF Pro Display','SF Pro Text','Segoe UI',Roboto,system-ui,sans-serif" font-size="10.5" font-weight="800" fill="#e0687a" text-anchor="start" letter-spacing="0.6">ERASE</text><rect x="235.0" y="314.0" width="43.0" height="17.0" rx="8" fill="rgba(159,216,232,0.16)"/><text x="256.5" y="326.0" font-family="-apple-system,BlinkMacSystemFont,'SF Pro Display','SF Pro Text','Segoe UI',Roboto,system-ui,sans-serif" font-size="9.5" font-weight="700" fill="#9fd8e8" text-anchor="middle" letter-spacing="0.4">#1845</text><text x="86.0" y="340.0" font-family="ui-monospace,Menlo,monospace" font-size="9.5" font-weight="500" fill="#9a93c6" text-anchor="start">records/med/old</text><text x="86.0" y="351.0" font-family="ui-monospace,Menlo,monospace" font-size="8.5" font-weight="500" fill="#6a6399" text-anchor="start">sha256 3f9a… ↳ links prev</text><rect x="20.0" y="586.0" width="280.0" height="52.0" rx="0" fill="#0e0a26"/><rect x="20" y="586" width="280" height="1" fill="#302a60"/><path d="M55.0 598.24 l5.04 2.16 v3.5999999999999996 c0 3.5999999999999996 -2.16 5.04 -5.04 6.4799999999999995 c-2.88 -1.44 -5.04 -2.88 -5.04 -6.4799999999999995 v-3.5999999999999996 Z" fill="none" stroke="#38bdf8" stroke-width="1.22" stroke-linecap="round" stroke-linejoin="round"/><path d="M52.84 604 l1.44 1.728 2.88 -3.2399999999999998" fill="none" stroke="#38bdf8" stroke-width="1.22" stroke-linecap="round" stroke-linejoin="round"/><text x="55.0" y="626.0" font-family="-apple-system,BlinkMacSystemFont,'SF Pro Display','SF Pro Text','Segoe UI',Roboto,system-ui,sans-serif" font-size="8.2" font-weight="600" fill="#38bdf8" text-anchor="middle">Audit</text><circle cx="123.56" cy="602.56" r="4.32" fill="none" stroke="#6a6399" stroke-width="1.22" stroke-linecap="round" stroke-linejoin="round"/><path d="M127.16 606.16 l2.88 2.88" fill="none" stroke="#6a6399" stroke-width="1.22" stroke-linecap="round" stroke-linejoin="round"/><text x="125.0" y="626.0" font-family="-apple-system,BlinkMacSystemFont,'SF Pro Display','SF Pro Text','Segoe UI',Roboto,system-ui,sans-serif" font-size="8.2" font-weight="600" fill="#6a6399" text-anchor="middle">Verify</text><circle cx="195.0" cy="604" r="5.3999999999999995" fill="none" stroke="#6a6399" stroke-width="1.22" stroke-linecap="round" stroke-linejoin="round"/><path d="M195.0 601.12 v2.88 l2.16 1.44" fill="none" stroke="#6a6399" stroke-width="1.22" stroke-linecap="round" stroke-linejoin="round"/><text x="195.0" y="626.0" font-family="-apple-system,BlinkMacSystemFont,'SF Pro Display','SF Pro Text','Segoe UI',Roboto,system-ui,sans-serif" font-size="8.2" font-weight="600" fill="#6a6399" text-anchor="middle">Log</text><rect x="264.064" y="597.52" width="1.8719999999999999" height="2.88" rx="1" transform="rotate(0 265.0 604)" fill="#6a6399"/><rect x="264.064" y="597.52" width="1.8719999999999999" height="2.88" rx="1" transform="rotate(45 265.0 604)" fill="#6a6399"/><rect x="264.064" y="597.52" width="1.8719999999999999" height="2.88" rx="1" transform="rotate(90 265.0 604)" fill="#6a6399"/><rect x="264.064" y="597.52" width="1.8719999999999999" height="2.88" rx="1" transform="rotate(135 265.0 604)" fill="#6a6399"/><rect x="264.064" y="597.52" width="1.8719999999999999" height="2.88" rx="1" transform="rotate(180 265.0 604)" fill="#6a6399"/><rect x="264.064" y="597.52" width="1.8719999999999999" height="2.88" rx="1" transform="rotate(225 265.0 604)" fill="#6a6399"/><rect x="264.064" y="597.52" width="1.8719999999999999" height="2.88" rx="1" transform="rotate(270 265.0 604)" fill="#6a6399"/><rect x="264.064" y="597.52" width="1.8719999999999999" height="2.88" rx="1" transform="rotate(315 265.0 604)" fill="#6a6399"/><circle cx="265.0" cy="604" r="3.312" fill="none" stroke="#6a6399" stroke-width="1.22" stroke-linecap="round" stroke-linejoin="round"/><text x="265.0" y="626.0" font-family="-apple-system,BlinkMacSystemFont,'SF Pro Display','SF Pro Text','Segoe UI',Roboto,system-ui,sans-serif" font-size="8.2" font-weight="600" fill="#6a6399" text-anchor="middle">More</text><path d="M131.0 627.5 L121.0 632 L131.0 636.5 Z" fill="none" stroke="rgba(255,255,255,0.5)" stroke-width="1.3" stroke-linejoin="round"/><circle cx="160.0" cy="632" r="4.6" fill="none" stroke="rgba(255,255,255,0.5)" stroke-width="1.3"/><rect x="189.4" y="627.4" width="9.2" height="9.2" rx="1.6" fill="none" stroke="rgba(255,255,255,0.5)" stroke-width="1.3"/></svg>