<svg xmlns="http://www.w3.org/2000/svg" width="320" height="660" viewBox="0 0 320 660" role="img" aria-label="Secure Intake screen"><defs>
      <linearGradient id="gScr" x1="0" y1="0" x2="0.6" y2="1">
        <stop offset="0" stop-color="#181235"/><stop offset="1" stop-color="#0c0920"/></linearGradient>
      <linearGradient id="gFrame" x1="0" y1="0" x2="1" y2="1">
        <stop offset="0" stop-color="#2a2352"/><stop offset="1" stop-color="#0a0818"/></linearGradient>
      <linearGradient id="gCard" x1="0" y1="0" x2="0.4" y2="1">
        <stop offset="0" stop-color="#201a48"/><stop offset="1" stop-color="#181240"/></linearGradient>
      <linearGradient id="gBrand" x1="0" y1="0" x2="1" y2="0">
        <stop offset="0" stop-color="#38bdf8"/><stop offset="1" stop-color="#7dd3fc"/></linearGradient>
      <linearGradient id="gAmber" x1="0" y1="0" x2="1" y2="0">
        <stop offset="0" stop-color="#ffb84d"/><stop offset="1" stop-color="#ffd27a"/></linearGradient>
      <linearGradient id="mV" x1="0" y1="0" x2="1" y2="0"><stop offset="0" stop-color="#38bdf8"/><stop offset="1" stop-color="#7dd3fc"/></linearGradient>
      <linearGradient id="mA" x1="0" y1="0" x2="1" y2="0"><stop offset="0" stop-color="#ffb84d"/><stop offset="1" stop-color="#ff9f45"/></linearGradient>
      <linearGradient id="mG" x1="0" y1="0" x2="1" y2="0"><stop offset="0" stop-color="#5fb87a"/><stop offset="1" stop-color="#7bc47f"/></linearGradient>
      <linearGradient id="mC" x1="0" y1="0" x2="1" y2="0"><stop offset="0" stop-color="#6bb6d6"/><stop offset="1" stop-color="#9fd8e8"/></linearGradient>
      <radialGradient id="orb" cx="36%" cy="30%" r="78%">
        <stop offset="0" stop-color="#cbeeff"/><stop offset="38%" stop-color="#38bdf8"/>
        <stop offset="78%" stop-color="#1f6fb2"/><stop offset="100%" stop-color="#0b2438"/></radialGradient>
      <radialGradient id="glow" cx="50%" cy="50%" r="50%">
        <stop offset="0" stop-color="#38bdf8" stop-opacity="0.5"/><stop offset="1" stop-color="#38bdf8" stop-opacity="0"/></radialGradient>
    </defs><rect x="10.0" y="12.0" width="300.0" height="636.0" rx="40" fill="url(#gFrame)"/><rect x="20.0" y="22.0" width="280.0" height="616.0" rx="31" fill="url(#gScr)"/><circle cx="160.0" cy="34" r="4.5" fill="#05070d"/><circle cx="160.0" cy="34" r="4.5" fill="none" stroke="#302a60" stroke-width="1"/><text x="34.0" y="56.0" font-family="-apple-system,BlinkMacSystemFont,'SF Pro Display','SF Pro Text','Segoe UI',Roboto,system-ui,sans-serif" font-size="11" font-weight="600" fill="#c7c9d9" text-anchor="start">9:41</text><rect x="277.0" y="49.0" width="8.0" height="12.0" rx="1.5" fill="none" stroke="#c7c9d9" stroke-width="1.2"/><rect x="278.5" y="53.0" width="5.0" height="7.0" rx="1" fill="#c7c9d9"/><path d="M266 61 L271 52 L276 61 Z" fill="#c7c9d9"/><path d="M253 61 L253 54 L261 61 Z" fill="#c7c9d9"/><text x="34.0" y="88.0" font-family="-apple-system,BlinkMacSystemFont,'SF Pro Display','SF Pro Text','Segoe UI',Roboto,system-ui,sans-serif" font-size="20" font-weight="700" fill="#f2effc" text-anchor="start" letter-spacing="-0.4">Secure Intake</text><text x="34.0" y="106.0" font-family="-apple-system,BlinkMacSystemFont,'SF Pro Display','SF Pro Text','Segoe UI',Roboto,system-ui,sans-serif" font-size="11.5" font-weight="400" fill="#9a93c6" text-anchor="start">Subscribers &amp; partners send files in</text><text x="34.0" y="122.0" font-family="-apple-system,BlinkMacSystemFont,'SF Pro Display','SF Pro Text','Segoe UI',Roboto,system-ui,sans-serif" font-size="9.5" font-weight="400" fill="#9a93c6" text-anchor="start">Sent in by a subscriber or partner — sealed &amp; audited.</text><rect x="34.0" y="146.0" width="252.0" height="64.0" rx="15" fill="url(#gCard)" stroke="#302a60" stroke-width="1"/><rect x="46.0" y="161.0" width="34.0" height="34.0" rx="11" fill="rgba(56,189,248,0.16)"/><circle cx="63" cy="174.32" r="3.3120000000000003" fill="none" stroke="#38bdf8" stroke-width="1.56" stroke-linecap="round" stroke-linejoin="round"/><path d="M57.48 184.44 c0 -5.5200000000000005 11.040000000000001 -5.5200000000000005 11.040000000000001 0" fill="none" stroke="#38bdf8" stroke-width="1.56" stroke-linecap="round" stroke-linejoin="round"/><text x="88.0" y="172.0" font-family="-apple-system,BlinkMacSystemFont,'SF Pro Display','SF Pro Text','Segoe UI',Roboto,system-ui,sans-serif" font-size="13" font-weight="700" fill="#f2effc" text-anchor="start">From subscriber-9</text><text x="88.0" y="188.0" font-family="-apple-system,BlinkMacSystemFont,'SF Pro Display','SF Pro Text','Segoe UI',Roboto,system-ui,sans-serif" font-size="10" font-weight="400" fill="#9a93c6" text-anchor="start">Purpose: ID verification</text><rect x="237.2" y="161.0" width="36.8" height="17.0" rx="8" fill="rgba(159,216,232,0.16)"/><text x="255.6" y="173.0" font-family="-apple-system,BlinkMacSystemFont,'SF Pro Display','SF Pro Text','Segoe UI',Roboto,system-ui,sans-serif" font-size="9.5" font-weight="700" fill="#9fd8e8" text-anchor="middle" letter-spacing="0.4">OPEN</text><rect x="34.0" y="220.0" width="252.0" height="54.0" rx="15" fill="url(#gCard)" stroke="#302a60" stroke-width="1"/><text x="48.0" y="240.0" font-family="-apple-system,BlinkMacSystemFont,'SF Pro Display','SF Pro Text','Segoe UI',Roboto,system-ui,sans-serif" font-size="9" font-weight="700" fill="#6a6399" text-anchor="start" letter-spacing="0.6">SUBMIT TOKEN</text><text x="48.0" y="260.0" font-family="ui-monospace,Menlo,monospace" font-size="10.5" font-weight="500" fill="#9fd8e8" text-anchor="start" letter-spacing="0.4">pdi_submit_9f2a… · one-shot</text><text x="272.0" y="240.0" font-family="-apple-system,BlinkMacSystemFont,'SF Pro Display','SF Pro Text','Segoe UI',Roboto,system-ui,sans-serif" font-size="9.5" font-weight="600" fill="#ffb84d" text-anchor="end">single-use</text><text x="34.0" y="284.0" font-family="-apple-system,BlinkMacSystemFont,'SF Pro Display','SF Pro Text','Segoe UI',Roboto,system-ui,sans-serif" font-size="9" font-weight="700" fill="#6a6399" text-anchor="start" letter-spacing="0.6">COMPLIANCE</text><rect x="34.0" y="300.0" width="82.0" height="22.0" rx="11" fill="rgba(255,206,84,0.16)" stroke="#ffce54" stroke-width="1"/><text x="75.0" y="315.0" font-family="-apple-system,BlinkMacSystemFont,'SF Pro Display','SF Pro Text','Segoe UI',Roboto,system-ui,sans-serif" font-size="10" font-weight="700" fill="#ffce54" text-anchor="middle">SUBSCRIBER</text><rect x="124.0" y="300.0" width="42.4" height="22.0" rx="11" fill="rgba(56,189,248,0.16)" stroke="#38bdf8" stroke-width="1"/><text x="145.2" y="315.0" font-family="-apple-system,BlinkMacSystemFont,'SF Pro Display','SF Pro Text','Segoe UI',Roboto,system-ui,sans-serif" font-size="10" font-weight="700" fill="#38bdf8" text-anchor="middle">CPNI</text><rect x="174.4" y="300.0" width="49.0" height="22.0" rx="11" fill="rgba(224,104,122,0.16)" stroke="#e0687a" stroke-width="1"/><text x="198.9" y="315.0" font-family="-apple-system,BlinkMacSystemFont,'SF Pro Display','SF Pro Text','Segoe UI',Roboto,system-ui,sans-serif" font-size="10" font-weight="700" fill="#e0687a" text-anchor="middle">HIPAA</text><rect x="34.0" y="334.0" width="252.0" height="42.0" rx="13" fill="rgba(123,196,127,0.08)" stroke="#7bc47f" stroke-width="1"/><path d="M58 348.2 l5.95 2.55 v4.25 c0 4.25 -2.55 5.95 -5.95 7.6499999999999995 c-3.4 -1.7 -5.95 -3.4 -5.95 -7.6499999999999995 v-4.25 Z" fill="none" stroke="#7bc47f" stroke-width="1.44" stroke-linecap="round" stroke-linejoin="round"/><path d="M55.45 355 l1.7 2.04 3.4 -3.8249999999999997" fill="none" stroke="#7bc47f" stroke-width="1.44" stroke-linecap="round" stroke-linejoin="round"/><text x="80.0" y="352.0" font-family="-apple-system,BlinkMacSystemFont,'SF Pro Display','SF Pro Text','Segoe UI',Roboto,system-ui,sans-serif" font-size="10.5" font-weight="600" fill="#f2effc" text-anchor="start">Sealed in vault · encrypted at rest</text><text x="80.0" y="367.0" font-family="-apple-system,BlinkMacSystemFont,'SF Pro Display','SF Pro Text','Segoe UI',Roboto,system-ui,sans-serif" font-size="9.5" font-weight="400" fill="#9a93c6" text-anchor="start">custody chain intact</text><text x="34.0" y="386.0" font-family="-apple-system,BlinkMacSystemFont,'SF Pro Display','SF Pro Text','Segoe UI',Roboto,system-ui,sans-serif" font-size="9" font-weight="700" fill="#6a6399" text-anchor="start" letter-spacing="0.6">CHAIN OF CUSTODY</text><circle cx="40" cy="411" r="4" fill="#ffb84d"/><text x="54.0" y="414.0" font-family="-apple-system,BlinkMacSystemFont,'SF Pro Display','SF Pro Text','Segoe UI',Roboto,system-ui,sans-serif" font-size="11" font-weight="650" fill="#f2effc" text-anchor="start">Requested</text><text x="286.0" y="414.0" font-family="-apple-system,BlinkMacSystemFont,'SF Pro Display','SF Pro Text','Segoe UI',Roboto,system-ui,sans-serif" font-size="9.5" font-weight="400" fill="#9a93c6" text-anchor="end">corp · token issued</text><circle cx="40" cy="435" r="4" fill="#38bdf8"/><text x="54.0" y="438.0" font-family="-apple-system,BlinkMacSystemFont,'SF Pro Display','SF Pro Text','Segoe UI',Roboto,system-ui,sans-serif" font-size="11" font-weight="650" fill="#f2effc" text-anchor="start">Submitted</text><text x="286.0" y="438.0" font-family="-apple-system,BlinkMacSystemFont,'SF Pro Display','SF Pro Text','Segoe UI',Roboto,system-ui,sans-serif" font-size="9.5" font-weight="400" fill="#9a93c6" text-anchor="end">subscriber-9 · sealed</text><circle cx="40" cy="459" r="4" fill="#9fd8e8"/><text x="54.0" y="462.0" font-family="-apple-system,BlinkMacSystemFont,'SF Pro Display','SF Pro Text','Segoe UI',Roboto,system-ui,sans-serif" font-size="11" font-weight="650" fill="#f2effc" text-anchor="start">Read</text><text x="286.0" y="462.0" font-family="-apple-system,BlinkMacSystemFont,'SF Pro Display','SF Pro Text','Segoe UI',Roboto,system-ui,sans-serif" font-size="9.5" font-weight="400" fill="#9a93c6" text-anchor="end">corp · logged</text><rect x="20.0" y="586.0" width="280.0" height="52.0" rx="0" fill="#0e0a26"/><rect x="20" y="586" width="280" height="1" fill="#302a60"/><rect x="49.96" y="598.96" width="4.32" height="4.32" rx="1.4" fill="none" stroke="#6a6399" stroke-width="1.22" stroke-linecap="round" stroke-linejoin="round"/><rect x="55.72" y="598.96" width="4.32" height="4.32" rx="1.4" fill="none" stroke="#6a6399" stroke-width="1.22" stroke-linecap="round" stroke-linejoin="round"/><rect x="49.96" y="604.72" width="4.32" height="4.32" rx="1.4" fill="none" stroke="#6a6399" stroke-width="1.22" stroke-linecap="round" stroke-linejoin="round"/><rect x="55.72" y="604.72" width="4.32" height="4.32" rx="1.4" fill="none" stroke="#6a6399" stroke-width="1.22" stroke-linecap="round" stroke-linejoin="round"/><text x="55.0" y="626.0" font-family="-apple-system,BlinkMacSystemFont,'SF Pro Display','SF Pro Text','Segoe UI',Roboto,system-ui,sans-serif" font-size="8.2" font-weight="600" fill="#6a6399" text-anchor="middle">Overview</text><rect x="120.68" y="602.56" width="8.64" height="6.4799999999999995" rx="2" fill="none" stroke="#38bdf8" stroke-width="1.22" stroke-linecap="round" stroke-linejoin="round"/><path d="M122.48 602.56 v-2.16 a2.52 2.52 0 0 1 5.04 0 v2.16" fill="none" stroke="#38bdf8" stroke-width="1.22" stroke-linecap="round" stroke-linejoin="round"/><circle cx="125.0" cy="605.8" r="0.864" fill="#38bdf8"/><text x="125.0" y="626.0" font-family="-apple-system,BlinkMacSystemFont,'SF Pro Display','SF Pro Text','Segoe UI',Roboto,system-ui,sans-serif" font-size="8.2" font-weight="600" fill="#38bdf8" text-anchor="middle">Vault</text><path d="M195.0 598.24 l5.04 2.16 v3.5999999999999996 c0 3.5999999999999996 -2.16 5.04 -5.04 6.4799999999999995 c-2.88 -1.44 -5.04 -2.88 -5.04 -6.4799999999999995 v-3.5999999999999996 Z" fill="none" stroke="#6a6399" stroke-width="1.22" stroke-linecap="round" stroke-linejoin="round"/><path d="M192.84 604 l1.44 1.728 2.88 -3.2399999999999998" fill="none" stroke="#6a6399" stroke-width="1.22" stroke-linecap="round" stroke-linejoin="round"/><text x="195.0" y="626.0" font-family="-apple-system,BlinkMacSystemFont,'SF Pro Display','SF Pro Text','Segoe UI',Roboto,system-ui,sans-serif" font-size="8.2" font-weight="600" fill="#6a6399" text-anchor="middle">Audit</text><rect x="264.064" y="597.52" width="1.8719999999999999" height="2.88" rx="1" transform="rotate(0 265.0 604)" fill="#6a6399"/><rect x="264.064" y="597.52" width="1.8719999999999999" height="2.88" rx="1" transform="rotate(45 265.0 604)" fill="#6a6399"/><rect x="264.064" y="597.52" width="1.8719999999999999" height="2.88" rx="1" transform="rotate(90 265.0 604)" fill="#6a6399"/><rect x="264.064" y="597.52" width="1.8719999999999999" height="2.88" rx="1" transform="rotate(135 265.0 604)" fill="#6a6399"/><rect x="264.064" y="597.52" width="1.8719999999999999" height="2.88" rx="1" transform="rotate(180 265.0 604)" fill="#6a6399"/><rect x="264.064" y="597.52" width="1.8719999999999999" height="2.88" rx="1" transform="rotate(225 265.0 604)" fill="#6a6399"/><rect x="264.064" y="597.52" width="1.8719999999999999" height="2.88" rx="1" transform="rotate(270 265.0 604)" fill="#6a6399"/><rect x="264.064" y="597.52" width="1.8719999999999999" height="2.88" rx="1" transform="rotate(315 265.0 604)" fill="#6a6399"/><circle cx="265.0" cy="604" r="3.312" fill="none" stroke="#6a6399" stroke-width="1.22" stroke-linecap="round" stroke-linejoin="round"/><text x="265.0" y="626.0" font-family="-apple-system,BlinkMacSystemFont,'SF Pro Display','SF Pro Text','Segoe UI',Roboto,system-ui,sans-serif" font-size="8.2" font-weight="600" fill="#6a6399" text-anchor="middle">More</text><path d="M131.0 627.5 L121.0 632 L131.0 636.5 Z" fill="none" stroke="rgba(255,255,255,0.5)" stroke-width="1.3" stroke-linejoin="round"/><circle cx="160.0" cy="632" r="4.6" fill="none" stroke="rgba(255,255,255,0.5)" stroke-width="1.3"/><rect x="189.4" y="627.4" width="9.2" height="9.2" rx="1.6" fill="none" stroke="rgba(255,255,255,0.5)" stroke-width="1.3"/></svg>