<svg xmlns="http://www.w3.org/2000/svg" width="320" height="660" viewBox="0 0 320 660" role="img" aria-label="Gate Agents screen"><defs>
      <linearGradient id="gScr" x1="0" y1="0" x2="0.6" y2="1">
        <stop offset="0" stop-color="#181235"/><stop offset="1" stop-color="#0c0920"/></linearGradient>
      <linearGradient id="gFrame" x1="0" y1="0" x2="1" y2="1">
        <stop offset="0" stop-color="#2a2352"/><stop offset="1" stop-color="#0a0818"/></linearGradient>
      <linearGradient id="gCard" x1="0" y1="0" x2="0.4" y2="1">
        <stop offset="0" stop-color="#201a48"/><stop offset="1" stop-color="#181240"/></linearGradient>
      <linearGradient id="gBrand" x1="0" y1="0" x2="1" y2="0">
        <stop offset="0" stop-color="#38bdf8"/><stop offset="1" stop-color="#7dd3fc"/></linearGradient>
      <linearGradient id="gAmber" x1="0" y1="0" x2="1" y2="0">
        <stop offset="0" stop-color="#ffb84d"/><stop offset="1" stop-color="#ffd27a"/></linearGradient>
      <linearGradient id="mV" x1="0" y1="0" x2="1" y2="0"><stop offset="0" stop-color="#38bdf8"/><stop offset="1" stop-color="#7dd3fc"/></linearGradient>
      <linearGradient id="mA" x1="0" y1="0" x2="1" y2="0"><stop offset="0" stop-color="#ffb84d"/><stop offset="1" stop-color="#ff9f45"/></linearGradient>
      <linearGradient id="mG" x1="0" y1="0" x2="1" y2="0"><stop offset="0" stop-color="#5fb87a"/><stop offset="1" stop-color="#7bc47f"/></linearGradient>
      <linearGradient id="mC" x1="0" y1="0" x2="1" y2="0"><stop offset="0" stop-color="#6bb6d6"/><stop offset="1" stop-color="#9fd8e8"/></linearGradient>
      <radialGradient id="orb" cx="36%" cy="30%" r="78%">
        <stop offset="0" stop-color="#cbeeff"/><stop offset="38%" stop-color="#38bdf8"/>
        <stop offset="78%" stop-color="#1f6fb2"/><stop offset="100%" stop-color="#0b2438"/></radialGradient>
      <radialGradient id="glow" cx="50%" cy="50%" r="50%">
        <stop offset="0" stop-color="#7bc47f" stop-opacity="0.5"/><stop offset="1" stop-color="#7bc47f" stop-opacity="0"/></radialGradient>
    </defs><rect x="10.0" y="12.0" width="300.0" height="636.0" rx="40" fill="url(#gFrame)"/><rect x="20.0" y="22.0" width="280.0" height="616.0" rx="31" fill="url(#gScr)"/><circle cx="160.0" cy="34" r="4.5" fill="#05070d"/><circle cx="160.0" cy="34" r="4.5" fill="none" stroke="#302a60" stroke-width="1"/><text x="34.0" y="56.0" font-family="-apple-system,BlinkMacSystemFont,'SF Pro Display','SF Pro Text','Segoe UI',Roboto,system-ui,sans-serif" font-size="11" font-weight="600" fill="#c7c9d9" text-anchor="start">9:41</text><rect x="277.0" y="49.0" width="8.0" height="12.0" rx="1.5" fill="none" stroke="#c7c9d9" stroke-width="1.2"/><rect x="278.5" y="53.0" width="5.0" height="7.0" rx="1" fill="#c7c9d9"/><path d="M266 61 L271 52 L276 61 Z" fill="#c7c9d9"/><path d="M253 61 L253 54 L261 61 Z" fill="#c7c9d9"/><text x="34.0" y="88.0" font-family="-apple-system,BlinkMacSystemFont,'SF Pro Display','SF Pro Text','Segoe UI',Roboto,system-ui,sans-serif" font-size="20" font-weight="700" fill="#f2effc" text-anchor="start" letter-spacing="-0.4">Gate Agents</text><text x="34.0" y="106.0" font-family="-apple-system,BlinkMacSystemFont,'SF Pro Display','SF Pro Text','Segoe UI',Roboto,system-ui,sans-serif" font-size="11.5" font-weight="400" fill="#9a93c6" text-anchor="start">What they need, at a glance</text><rect x="34.0" y="122.0" width="252.0" height="66.0" rx="16" fill="url(#gCard)" stroke="#302a60" stroke-width="1"/><circle cx="68" cy="155" r="17" fill="rgba(123,196,127,0.18)"/><circle cx="68" cy="155" r="8" fill="#7bc47f"/><text x="96.0" y="150.0" font-family="-apple-system,BlinkMacSystemFont,'SF Pro Display','SF Pro Text','Segoe UI',Roboto,system-ui,sans-serif" font-size="14.5" font-weight="700" fill="#f2effc" text-anchor="start">4 working</text><text x="96.0" y="168.0" font-family="-apple-system,BlinkMacSystemFont,'SF Pro Display','SF Pro Text','Segoe UI',Roboto,system-ui,sans-serif" font-size="10" font-weight="500" fill="#9a93c6" text-anchor="start">four entrances, quiet</text><path d="M256 148 l8 7 -8 7" fill="none" stroke="#6a6399" stroke-width="2" stroke-linecap="round"/><rect x="34.0" y="198.0" width="252.0" height="66.0" rx="16" fill="url(#gCard)" stroke="#302a60" stroke-width="1"/><circle cx="68" cy="231" r="17" fill="rgba(255,184,77,0.18)"/><circle cx="68" cy="231" r="8" fill="#ffb84d"/><text x="96.0" y="226.0" font-family="-apple-system,BlinkMacSystemFont,'SF Pro Display','SF Pro Text','Segoe UI',Roboto,system-ui,sans-serif" font-size="14.5" font-weight="700" fill="#f2effc" text-anchor="start">1 need you</text><text x="96.0" y="244.0" font-family="-apple-system,BlinkMacSystemFont,'SF Pro Display','SF Pro Text','Segoe UI',Roboto,system-ui,sans-serif" font-size="10" font-weight="500" fill="#9a93c6" text-anchor="start">a person waiting at a door</text><path d="M256 224 l8 7 -8 7" fill="none" stroke="#6a6399" stroke-width="2" stroke-linecap="round"/><rect x="34.0" y="274.0" width="252.0" height="66.0" rx="16" fill="url(#gCard)" stroke="#302a60" stroke-width="1"/><circle cx="68" cy="307" r="17" fill="rgba(224,104,122,0.18)"/><circle cx="68" cy="307" r="8" fill="#e0687a"/><text x="96.0" y="302.0" font-family="-apple-system,BlinkMacSystemFont,'SF Pro Display','SF Pro Text','Segoe UI',Roboto,system-ui,sans-serif" font-size="14.5" font-weight="700" fill="#f2effc" text-anchor="start">1 stopped</text><text x="96.0" y="320.0" font-family="-apple-system,BlinkMacSystemFont,'SF Pro Display','SF Pro Text','Segoe UI',Roboto,system-ui,sans-serif" font-size="10" font-weight="500" fill="#9a93c6" text-anchor="start">the page bounced twice</text><path d="M256 300 l8 7 -8 7" fill="none" stroke="#6a6399" stroke-width="2" stroke-linecap="round"/><rect x="20.0" y="586.0" width="280.0" height="52.0" rx="0" fill="#0e0a26"/><rect x="20" y="586" width="280" height="1" fill="#302a60"/><rect x="49.96" y="598.96" width="4.32" height="4.32" rx="1.4" fill="none" stroke="#38bdf8" stroke-width="1.22" stroke-linecap="round" stroke-linejoin="round"/><rect x="55.72" y="598.96" width="4.32" height="4.32" rx="1.4" fill="none" stroke="#38bdf8" stroke-width="1.22" stroke-linecap="round" stroke-linejoin="round"/><rect x="49.96" y="604.72" width="4.32" height="4.32" rx="1.4" fill="none" stroke="#38bdf8" stroke-width="1.22" stroke-linecap="round" stroke-linejoin="round"/><rect x="55.72" y="604.72" width="4.32" height="4.32" rx="1.4" fill="none" stroke="#38bdf8" stroke-width="1.22" stroke-linecap="round" stroke-linejoin="round"/><text x="55.0" y="626.0" font-family="-apple-system,BlinkMacSystemFont,'SF Pro Display','SF Pro Text','Segoe UI',Roboto,system-ui,sans-serif" font-size="8.2" font-weight="600" fill="#38bdf8" text-anchor="middle">Overview</text><rect x="120.68" y="602.56" width="8.64" height="6.4799999999999995" rx="2" fill="none" stroke="#6a6399" stroke-width="1.22" stroke-linecap="round" stroke-linejoin="round"/><path d="M122.48 602.56 v-2.16 a2.52 2.52 0 0 1 5.04 0 v2.16" fill="none" stroke="#6a6399" stroke-width="1.22" stroke-linecap="round" stroke-linejoin="round"/><circle cx="125.0" cy="605.8" r="0.864" fill="#6a6399"/><text x="125.0" y="626.0" font-family="-apple-system,BlinkMacSystemFont,'SF Pro Display','SF Pro Text','Segoe UI',Roboto,system-ui,sans-serif" font-size="8.2" font-weight="600" fill="#6a6399" text-anchor="middle">Vault</text><path d="M195.0 598.24 l5.04 2.16 v3.5999999999999996 c0 3.5999999999999996 -2.16 5.04 -5.04 6.4799999999999995 c-2.88 -1.44 -5.04 -2.88 -5.04 -6.4799999999999995 v-3.5999999999999996 Z" fill="none" stroke="#6a6399" stroke-width="1.22" stroke-linecap="round" stroke-linejoin="round"/><path d="M192.84 604 l1.44 1.728 2.88 -3.2399999999999998" fill="none" stroke="#6a6399" stroke-width="1.22" stroke-linecap="round" stroke-linejoin="round"/><text x="195.0" y="626.0" font-family="-apple-system,BlinkMacSystemFont,'SF Pro Display','SF Pro Text','Segoe UI',Roboto,system-ui,sans-serif" font-size="8.2" font-weight="600" fill="#6a6399" text-anchor="middle">Audit</text><rect x="264.064" y="597.52" width="1.8719999999999999" height="2.88" rx="1" transform="rotate(0 265.0 604)" fill="#6a6399"/><rect x="264.064" y="597.52" width="1.8719999999999999" height="2.88" rx="1" transform="rotate(45 265.0 604)" fill="#6a6399"/><rect x="264.064" y="597.52" width="1.8719999999999999" height="2.88" rx="1" transform="rotate(90 265.0 604)" fill="#6a6399"/><rect x="264.064" y="597.52" width="1.8719999999999999" height="2.88" rx="1" transform="rotate(135 265.0 604)" fill="#6a6399"/><rect x="264.064" y="597.52" width="1.8719999999999999" height="2.88" rx="1" transform="rotate(180 265.0 604)" fill="#6a6399"/><rect x="264.064" y="597.52" width="1.8719999999999999" height="2.88" rx="1" transform="rotate(225 265.0 604)" fill="#6a6399"/><rect x="264.064" y="597.52" width="1.8719999999999999" height="2.88" rx="1" transform="rotate(270 265.0 604)" fill="#6a6399"/><rect x="264.064" y="597.52" width="1.8719999999999999" height="2.88" rx="1" transform="rotate(315 265.0 604)" fill="#6a6399"/><circle cx="265.0" cy="604" r="3.312" fill="none" stroke="#6a6399" stroke-width="1.22" stroke-linecap="round" stroke-linejoin="round"/><text x="265.0" y="626.0" font-family="-apple-system,BlinkMacSystemFont,'SF Pro Display','SF Pro Text','Segoe UI',Roboto,system-ui,sans-serif" font-size="8.2" font-weight="600" fill="#6a6399" text-anchor="middle">More</text><path d="M131.0 627.5 L121.0 632 L131.0 636.5 Z" fill="none" stroke="rgba(255,255,255,0.5)" stroke-width="1.3" stroke-linejoin="round"/><circle cx="160.0" cy="632" r="4.6" fill="none" stroke="rgba(255,255,255,0.5)" stroke-width="1.3"/><rect x="189.4" y="627.4" width="9.2" height="9.2" rx="1.6" fill="none" stroke="rgba(255,255,255,0.5)" stroke-width="1.3"/></svg>