<svg xmlns="http://www.w3.org/2000/svg" width="1280" height="820" viewBox="0 0 1280 820" role="img" aria-label="PDI console — Overview"><defs>
      <linearGradient id="gPage" x1="0" y1="0" x2="0.4" y2="1">
        <stop offset="0" stop-color="#0d0a20"/><stop offset="1" stop-color="#080614"/></linearGradient>
      <linearGradient id="gScr" x1="0" y1="0" x2="0.5" y2="1">
        <stop offset="0" stop-color="#181235"/><stop offset="1" stop-color="#0c0920"/></linearGradient>
      <linearGradient id="gSide" x1="0" y1="0" x2="0" y2="1">
        <stop offset="0" stop-color="#161038"/><stop offset="1" stop-color="#0e0a26"/></linearGradient>
      <linearGradient id="gCard" x1="0" y1="0" x2="0.4" y2="1">
        <stop offset="0" stop-color="#201a48"/><stop offset="1" stop-color="#181240"/></linearGradient>
      <linearGradient id="gBrand" x1="0" y1="0" x2="1" y2="0">
        <stop offset="0" stop-color="#38bdf8"/><stop offset="1" stop-color="#7dd3fc"/></linearGradient>
      <linearGradient id="gAmber" x1="0" y1="0" x2="1" y2="0">
        <stop offset="0" stop-color="#ffb84d"/><stop offset="1" stop-color="#ffd27a"/></linearGradient>
      <linearGradient id="mG" x1="0" y1="0" x2="1" y2="0"><stop offset="0" stop-color="#5fb87a"/><stop offset="1" stop-color="#7bc47f"/></linearGradient>
      <linearGradient id="mC" x1="0" y1="0" x2="1" y2="0"><stop offset="0" stop-color="#6bb6d6"/><stop offset="1" stop-color="#9fd8e8"/></linearGradient>
      <radialGradient id="orb" cx="36%" cy="30%" r="78%">
        <stop offset="0" stop-color="#cbeeff"/><stop offset="38%" stop-color="#38bdf8"/>
        <stop offset="78%" stop-color="#1f6fb2"/><stop offset="100%" stop-color="#0b2438"/></radialGradient>
    </defs><rect x="0.0" y="0.0" width="1280.0" height="820.0" rx="0" fill="url(#gPage)"/><rect x="24" y="24" width="1232" height="772" rx="18" fill="url(#gScr)" stroke="#302a60" stroke-width="1"/><rect x="24.0" y="24.0" width="216.0" height="772.0" rx="18" fill="url(#gSide)"/><rect x="222.0" y="24.0" width="18.0" height="772.0" rx="0" fill="url(#gScr)"/><line x1="240" y1="24" x2="240" y2="796" stroke="#302a60" stroke-width="1"/><line x1="240" y1="78" x2="1256" y2="78" stroke="#302a60" stroke-width="1"/><circle cx="46" cy="51" r="5.5" fill="#ff5f57" opacity="0.9"/><circle cx="64" cy="51" r="5.5" fill="#febc2e" opacity="0.9"/><circle cx="82" cy="51" r="5.5" fill="#28c840" opacity="0.9"/><circle cx="120" cy="51" r="11" fill="url(#orb)"/><rect x="116.4" y="49.8" width="7.199999999999999" height="5.3999999999999995" rx="2" fill="none" stroke="rgba(255,255,255,0.95)" stroke-width="1.02" stroke-linecap="round" stroke-linejoin="round"/><path d="M117.9 49.8 v-1.7999999999999998 a2.1 2.1 0 0 1 4.2 0 v1.7999999999999998" fill="none" stroke="rgba(255,255,255,0.95)" stroke-width="1.02" stroke-linecap="round" stroke-linejoin="round"/><circle cx="120" cy="52.5" r="0.72" fill="rgba(255,255,255,0.95)"/><text x="138.0" y="49.0" font-family="-apple-system,BlinkMacSystemFont,'SF Pro Display','SF Pro Text','Segoe UI',Roboto,system-ui,sans-serif" font-size="14" font-weight="800" fill="#f2effc" text-anchor="start" letter-spacing="0.5">PDI</text><text x="138.0" y="63.0" font-family="-apple-system,BlinkMacSystemFont,'SF Pro Display','SF Pro Text','Segoe UI',Roboto,system-ui,sans-serif" font-size="8.5" font-weight="500" fill="#6a6399" text-anchor="start">Private Data Infrastructure</text><text x="268.0" y="57.0" font-family="-apple-system,BlinkMacSystemFont,'SF Pro Display','SF Pro Text','Segoe UI',Roboto,system-ui,sans-serif" font-size="15" font-weight="700" fill="#f2effc" text-anchor="start" letter-spacing="-0.2">Overview</text><rect x="1220.96" y="43.8" width="2.08" height="3.2" rx="1" transform="rotate(0 1222 51)" fill="#9a93c6"/><rect x="1220.96" y="43.8" width="2.08" height="3.2" rx="1" transform="rotate(45 1222 51)" fill="#9a93c6"/><rect x="1220.96" y="43.8" width="2.08" height="3.2" rx="1" transform="rotate(90 1222 51)" fill="#9a93c6"/><rect x="1220.96" y="43.8" width="2.08" height="3.2" rx="1" transform="rotate(135 1222 51)" fill="#9a93c6"/><rect x="1220.96" y="43.8" width="2.08" height="3.2" rx="1" transform="rotate(180 1222 51)" fill="#9a93c6"/><rect x="1220.96" y="43.8" width="2.08" height="3.2" rx="1" transform="rotate(225 1222 51)" fill="#9a93c6"/><rect x="1220.96" y="43.8" width="2.08" height="3.2" rx="1" transform="rotate(270 1222 51)" fill="#9a93c6"/><rect x="1220.96" y="43.8" width="2.08" height="3.2" rx="1" transform="rotate(315 1222 51)" fill="#9a93c6"/><circle cx="1222" cy="51" r="3.6799999999999997" fill="none" stroke="#9a93c6" stroke-width="1.36" stroke-linecap="round" stroke-linejoin="round"/><rect x="1112.0" y="46.0" width="86.0" height="16.0" rx="8" fill="rgba(123,196,127,0.14)"/><circle cx="1121.0" cy="54" r="3" fill="#7bc47f"/><text x="1128.0" y="58.0" font-family="-apple-system,BlinkMacSystemFont,'SF Pro Display','SF Pro Text','Segoe UI',Roboto,system-ui,sans-serif" font-size="9" font-weight="700" fill="#7bc47f" text-anchor="start" letter-spacing="0.5">Vault online</text><rect x="920.0" y="40.0" width="150.0" height="24.0" rx="8" fill="rgba(255,255,255,0.05)" stroke="#302a60" stroke-width="1"/><circle cx="933.6" cy="49.6" r="1.7999999999999998" fill="none" stroke="#38bdf8" stroke-width="1.02" stroke-linecap="round" stroke-linejoin="round"/><circle cx="938.4" cy="49.6" r="1.7999999999999998" fill="none" stroke="#38bdf8" stroke-width="1.02" stroke-linecap="round" stroke-linejoin="round"/><path d="M930.6 55.6 c0 -3.0 3.5999999999999996 -3.0 3.5999999999999996 0 M935.4 55.6 c0 -3.0 4.2 -3.0 5.3999999999999995 -0.6" fill="none" stroke="#38bdf8" stroke-width="1.02" stroke-linecap="round" stroke-linejoin="round"/><text x="948.0" y="55.0" font-family="-apple-system,BlinkMacSystemFont,'SF Pro Display','SF Pro Text','Segoe UI',Roboto,system-ui,sans-serif" font-size="10.5" font-weight="600" fill="#f2effc" text-anchor="start">All tenants</text><text x="1044.0" y="55.0" font-family="-apple-system,BlinkMacSystemFont,'SF Pro Display','SF Pro Text','Segoe UI',Roboto,system-ui,sans-serif" font-size="9" font-weight="600" fill="#6a6399" text-anchor="end">▾</text><rect x="36.0" y="92.0" width="192.0" height="38.0" rx="10" fill="rgba(56,189,248,0.14)"/><rect x="36.0" y="92.0" width="3.0" height="38.0" rx="2" fill="#38bdf8"/><rect x="52.96" y="105.96" width="4.32" height="4.32" rx="1.4" fill="none" stroke="#38bdf8" stroke-width="1.22" stroke-linecap="round" stroke-linejoin="round"/><rect x="58.72" y="105.96" width="4.32" height="4.32" rx="1.4" fill="none" stroke="#38bdf8" stroke-width="1.22" stroke-linecap="round" stroke-linejoin="round"/><rect x="52.96" y="111.72" width="4.32" height="4.32" rx="1.4" fill="none" stroke="#38bdf8" stroke-width="1.22" stroke-linecap="round" stroke-linejoin="round"/><rect x="58.72" y="111.72" width="4.32" height="4.32" rx="1.4" fill="none" stroke="#38bdf8" stroke-width="1.22" stroke-linecap="round" stroke-linejoin="round"/><text x="78.0" y="116.0" font-family="-apple-system,BlinkMacSystemFont,'SF Pro Display','SF Pro Text','Segoe UI',Roboto,system-ui,sans-serif" font-size="12.5" font-weight="650" fill="#f2effc" text-anchor="start">Overview</text><rect x="53.68" y="155.56" width="8.64" height="6.4799999999999995" rx="2" fill="none" stroke="#9a93c6" stroke-width="1.22" stroke-linecap="round" stroke-linejoin="round"/><path d="M55.48 155.56 v-2.16 a2.52 2.52 0 0 1 5.04 0 v2.16" fill="none" stroke="#9a93c6" stroke-width="1.22" stroke-linecap="round" stroke-linejoin="round"/><circle cx="58" cy="158.8" r="0.864" fill="#9a93c6"/><text x="78.0" y="162.0" font-family="-apple-system,BlinkMacSystemFont,'SF Pro Display','SF Pro Text','Segoe UI',Roboto,system-ui,sans-serif" font-size="12.5" font-weight="500" fill="#9a93c6" text-anchor="start">Vault</text><circle cx="55.12" cy="200.12" r="2.16" fill="none" stroke="#9a93c6" stroke-width="1.22" stroke-linecap="round" stroke-linejoin="round"/><circle cx="60.88" cy="200.12" r="2.16" fill="none" stroke="#9a93c6" stroke-width="1.22" stroke-linecap="round" stroke-linejoin="round"/><path d="M51.52 207.32 c0 -3.5999999999999996 4.32 -3.5999999999999996 4.32 0 M57.28 207.32 c0 -3.5999999999999996 5.04 -3.5999999999999996 6.4799999999999995 -0.72" fill="none" stroke="#9a93c6" stroke-width="1.22" stroke-linecap="round" stroke-linejoin="round"/><text x="78.0" y="208.0" font-family="-apple-system,BlinkMacSystemFont,'SF Pro Display','SF Pro Text','Segoe UI',Roboto,system-ui,sans-serif" font-size="12.5" font-weight="500" fill="#9a93c6" text-anchor="start">Tenants</text><path d="M58 243.24 l5.04 2.16 v3.5999999999999996 c0 3.5999999999999996 -2.16 5.04 -5.04 6.4799999999999995 c-2.88 -1.44 -5.04 -2.88 -5.04 -6.4799999999999995 v-3.5999999999999996 Z" fill="none" stroke="#9a93c6" stroke-width="1.22" stroke-linecap="round" stroke-linejoin="round"/><path d="M55.84 249 l1.44 1.728 2.88 -3.2399999999999998" fill="none" stroke="#9a93c6" stroke-width="1.22" stroke-linecap="round" stroke-linejoin="round"/><text x="78.0" y="254.0" font-family="-apple-system,BlinkMacSystemFont,'SF Pro Display','SF Pro Text','Segoe UI',Roboto,system-ui,sans-serif" font-size="12.5" font-weight="500" fill="#9a93c6" text-anchor="start">Audit</text><path d="M53.68 296.44 c0 -5.04 2.16 -6.4799999999999995 4.32 -6.4799999999999995 c2.16 0 4.32 1.44 4.32 5.04" fill="none" stroke="#9a93c6" stroke-width="1.22" stroke-linecap="round" stroke-linejoin="round"/><path d="M55.84 297.88 c0 -4.32 1.44 -5.04 2.16 -5.04 c1.44 0 2.16 1.44 2.16 3.5999999999999996" fill="none" stroke="#9a93c6" stroke-width="1.22" stroke-linecap="round" stroke-linejoin="round"/><path d="M58 299.32 v-4.32" fill="none" stroke="#9a93c6" stroke-width="1.22" stroke-linecap="round" stroke-linejoin="round"/><text x="78.0" y="300.0" font-family="-apple-system,BlinkMacSystemFont,'SF Pro Display','SF Pro Text','Segoe UI',Roboto,system-ui,sans-serif" font-size="12.5" font-weight="500" fill="#9a93c6" text-anchor="start">Encryption</text><rect x="53.68" y="335.24" width="8.64" height="11.52" rx="1.5" fill="none" stroke="#9a93c6" stroke-width="1.22" stroke-linecap="round" stroke-linejoin="round"/><rect x="55.12" y="337.4" width="1.44" height="1.44" rx="0.4" fill="#9a93c6"/><rect x="57.28" y="337.4" width="1.44" height="1.44" rx="0.4" fill="#9a93c6"/><rect x="59.44" y="337.4" width="1.44" height="1.44" rx="0.4" fill="#9a93c6"/><rect x="55.12" y="339.84799999999996" width="1.44" height="1.44" rx="0.4" fill="#9a93c6"/><rect x="57.28" y="339.84799999999996" width="1.44" height="1.44" rx="0.4" fill="#9a93c6"/><rect x="59.44" y="339.84799999999996" width="1.44" height="1.44" rx="0.4" fill="#9a93c6"/><rect x="55.12" y="342.296" width="1.44" height="1.44" rx="0.4" fill="#9a93c6"/><rect x="57.28" y="342.296" width="1.44" height="1.44" rx="0.4" fill="#9a93c6"/><rect x="59.44" y="342.296" width="1.44" height="1.44" rx="0.4" fill="#9a93c6"/><text x="78.0" y="346.0" font-family="-apple-system,BlinkMacSystemFont,'SF Pro Display','SF Pro Text','Segoe UI',Roboto,system-ui,sans-serif" font-size="12.5" font-weight="500" fill="#9a93c6" text-anchor="start">Deployment</text><rect x="52.96" y="387.71999999999997" width="2.304" height="3.5999999999999996" rx="1" fill="#9a93c6"/><rect x="56.56" y="384.84" width="2.304" height="6.4799999999999995" rx="1" fill="#9a93c6"/><rect x="60.16" y="388.44" width="2.304" height="2.88" rx="1" fill="#9a93c6"/><rect x="63.76" y="383.4" width="2.304" height="7.92" rx="1" fill="#9a93c6"/><text x="78.0" y="392.0" font-family="-apple-system,BlinkMacSystemFont,'SF Pro Display','SF Pro Text','Segoe UI',Roboto,system-ui,sans-serif" font-size="12.5" font-weight="500" fill="#9a93c6" text-anchor="start">Health</text><rect x="57.064" y="426.52" width="1.8719999999999999" height="2.88" rx="1" transform="rotate(0 58 433)" fill="#9a93c6"/><rect x="57.064" y="426.52" width="1.8719999999999999" height="2.88" rx="1" transform="rotate(45 58 433)" fill="#9a93c6"/><rect x="57.064" y="426.52" width="1.8719999999999999" height="2.88" rx="1" transform="rotate(90 58 433)" fill="#9a93c6"/><rect x="57.064" y="426.52" width="1.8719999999999999" height="2.88" rx="1" transform="rotate(135 58 433)" fill="#9a93c6"/><rect x="57.064" y="426.52" width="1.8719999999999999" height="2.88" rx="1" transform="rotate(180 58 433)" fill="#9a93c6"/><rect x="57.064" y="426.52" width="1.8719999999999999" height="2.88" rx="1" transform="rotate(225 58 433)" fill="#9a93c6"/><rect x="57.064" y="426.52" width="1.8719999999999999" height="2.88" rx="1" transform="rotate(270 58 433)" fill="#9a93c6"/><rect x="57.064" y="426.52" width="1.8719999999999999" height="2.88" rx="1" transform="rotate(315 58 433)" fill="#9a93c6"/><circle cx="58" cy="433" r="3.312" fill="none" stroke="#9a93c6" stroke-width="1.22" stroke-linecap="round" stroke-linejoin="round"/><text x="78.0" y="438.0" font-family="-apple-system,BlinkMacSystemFont,'SF Pro Display','SF Pro Text','Segoe UI',Roboto,system-ui,sans-serif" font-size="12.5" font-weight="500" fill="#9a93c6" text-anchor="start">Settings</text><line x1="40" y1="726" x2="224" y2="726" stroke="#302a60" stroke-width="1"/><rect x="40.0" y="740.0" width="184.0" height="40.0" rx="10" fill="rgba(255,255,255,0.04)" stroke="#302a60" stroke-width="1"/><path d="M58 754.72 l4.62 1.98 v3.3000000000000003 c0 3.3000000000000003 -1.98 4.62 -4.62 5.94 c-2.64 -1.32 -4.62 -2.64 -4.62 -5.94 v-3.3000000000000003 Z" fill="none" stroke="#7bc47f" stroke-width="1.12" stroke-linecap="round" stroke-linejoin="round"/><path d="M56.02 760 l1.32 1.584 2.64 -2.97" fill="none" stroke="#7bc47f" stroke-width="1.12" stroke-linecap="round" stroke-linejoin="round"/><text x="76.0" y="756.0" font-family="-apple-system,BlinkMacSystemFont,'SF Pro Display','SF Pro Text','Segoe UI',Roboto,system-ui,sans-serif" font-size="10.5" font-weight="650" fill="#f2effc" text-anchor="start">Chain intact</text><text x="76.0" y="769.0" font-family="-apple-system,BlinkMacSystemFont,'SF Pro Display','SF Pro Text','Segoe UI',Roboto,system-ui,sans-serif" font-size="8.5" font-weight="500" fill="#6a6399" text-anchor="start">on-prem · Tier III+</text><marker id="ah" markerWidth="8" markerHeight="8" refX="6" refY="3" orient="auto"><path d="M0 0 L6 3 L0 6 Z" fill="#6a6399"/></marker><rect x="268.0" y="106.0" width="225.0" height="96.0" rx="14" fill="url(#gCard)" stroke="#302a60" stroke-width="1"/><text x="286.0" y="134.0" font-family="-apple-system,BlinkMacSystemFont,'SF Pro Display','SF Pro Text','Segoe UI',Roboto,system-ui,sans-serif" font-size="11" font-weight="600" fill="#9a93c6" text-anchor="start">Tenants</text><text x="286.0" y="168.0" font-family="-apple-system,BlinkMacSystemFont,'SF Pro Display','SF Pro Text','Segoe UI',Roboto,system-ui,sans-serif" font-size="27" font-weight="800" fill="#38bdf8" text-anchor="start">2</text><text x="286.0" y="186.0" font-family="-apple-system,BlinkMacSystemFont,'SF Pro Display','SF Pro Text','Segoe UI',Roboto,system-ui,sans-serif" font-size="9.5" font-weight="500" fill="#6a6399" text-anchor="start">qrme · jim-mini</text><rect x="445.0" y="120.0" width="34.0" height="34.0" rx="11" fill="rgba(56,189,248,0.16)"/><circle cx="458.32" cy="133.32" r="2.7600000000000002" fill="none" stroke="#38bdf8" stroke-width="1.56" stroke-linecap="round" stroke-linejoin="round"/><circle cx="465.68" cy="133.32" r="2.7600000000000002" fill="none" stroke="#38bdf8" stroke-width="1.56" stroke-linecap="round" stroke-linejoin="round"/><path d="M453.72 142.52 c0 -4.6000000000000005 5.5200000000000005 -4.6000000000000005 5.5200000000000005 0 M461.08 142.52 c0 -4.6000000000000005 6.44 -4.6000000000000005 8.280000000000001 -0.92" fill="none" stroke="#38bdf8" stroke-width="1.56" stroke-linecap="round" stroke-linejoin="round"/><rect x="513.0" y="106.0" width="225.0" height="96.0" rx="14" fill="url(#gCard)" stroke="#302a60" stroke-width="1"/><text x="531.0" y="134.0" font-family="-apple-system,BlinkMacSystemFont,'SF Pro Display','SF Pro Text','Segoe UI',Roboto,system-ui,sans-serif" font-size="11" font-weight="600" fill="#9a93c6" text-anchor="start">Records sealed</text><text x="531.0" y="168.0" font-family="-apple-system,BlinkMacSystemFont,'SF Pro Display','SF Pro Text','Segoe UI',Roboto,system-ui,sans-serif" font-size="27" font-weight="800" fill="#ffb84d" text-anchor="start">1,842</text><text x="531.0" y="186.0" font-family="-apple-system,BlinkMacSystemFont,'SF Pro Display','SF Pro Text','Segoe UI',Roboto,system-ui,sans-serif" font-size="9.5" font-weight="500" fill="#6a6399" text-anchor="start">+312 this month</text><rect x="690.0" y="120.0" width="34.0" height="34.0" rx="11" fill="rgba(255,184,77,0.16)"/><ellipse cx="707.0" cy="132.4" rx="6.44" ry="2.3920000000000003" fill="none" stroke="#ffb84d" stroke-width="1.56" stroke-linecap="round" stroke-linejoin="round"/><path d="M700.56 132.4 v9.200000000000001 c0 1.3800000000000001 2.7600000000000002 2.3920000000000003 6.44 2.3920000000000003 s6.44 -1.0120000000000002 6.44 -2.3920000000000003 v-9.200000000000001 M700.56 137 c0 1.3800000000000001 2.7600000000000002 2.3920000000000003 6.44 2.3920000000000003 s6.44 -1.0120000000000002 6.44 -2.3920000000000003" fill="none" stroke="#ffb84d" stroke-width="1.56" stroke-linecap="round" stroke-linejoin="round"/><rect x="758.0" y="106.0" width="225.0" height="96.0" rx="14" fill="url(#gCard)" stroke="#302a60" stroke-width="1"/><text x="776.0" y="134.0" font-family="-apple-system,BlinkMacSystemFont,'SF Pro Display','SF Pro Text','Segoe UI',Roboto,system-ui,sans-serif" font-size="11" font-weight="600" fill="#9a93c6" text-anchor="start">Audit chain</text><text x="776.0" y="166.0" font-family="-apple-system,BlinkMacSystemFont,'SF Pro Display','SF Pro Text','Segoe UI',Roboto,system-ui,sans-serif" font-size="22" font-weight="800" fill="#7bc47f" text-anchor="start">OK</text><text x="776.0" y="186.0" font-family="-apple-system,BlinkMacSystemFont,'SF Pro Display','SF Pro Text','Segoe UI',Roboto,system-ui,sans-serif" font-size="9.5" font-weight="500" fill="#6a6399" text-anchor="start">1,845 entries</text><rect x="935.0" y="120.0" width="34.0" height="34.0" rx="11" fill="rgba(123,196,127,0.16)"/><path d="M952.0 129.64 l6.44 2.7600000000000002 v4.6000000000000005 c0 4.6000000000000005 -2.7600000000000002 6.44 -6.44 8.280000000000001 c-3.68 -1.84 -6.44 -3.68 -6.44 -8.280000000000001 v-4.6000000000000005 Z" fill="none" stroke="#7bc47f" stroke-width="1.56" stroke-linecap="round" stroke-linejoin="round"/><path d="M949.24 137 l1.84 2.208 3.68 -4.140000000000001" fill="none" stroke="#7bc47f" stroke-width="1.56" stroke-linecap="round" stroke-linejoin="round"/><rect x="905.4" y="177.0" width="61.6" height="17.0" rx="8" fill="rgba(123,196,127,0.16)"/><text x="936.2" y="189.0" font-family="-apple-system,BlinkMacSystemFont,'SF Pro Display','SF Pro Text','Segoe UI',Roboto,system-ui,sans-serif" font-size="9.5" font-weight="700" fill="#7bc47f" text-anchor="middle" letter-spacing="0.4">VERIFIED</text><rect x="1003.0" y="106.0" width="225.0" height="96.0" rx="14" fill="url(#gCard)" stroke="#302a60" stroke-width="1"/><text x="1021.0" y="134.0" font-family="-apple-system,BlinkMacSystemFont,'SF Pro Display','SF Pro Text','Segoe UI',Roboto,system-ui,sans-serif" font-size="11" font-weight="600" fill="#9a93c6" text-anchor="start">Deployment</text><text x="1021.0" y="166.0" font-family="-apple-system,BlinkMacSystemFont,'SF Pro Display','SF Pro Text','Segoe UI',Roboto,system-ui,sans-serif" font-size="22" font-weight="800" fill="#9fd8e8" text-anchor="start">Tier III+</text><text x="1021.0" y="186.0" font-family="-apple-system,BlinkMacSystemFont,'SF Pro Display','SF Pro Text','Segoe UI',Roboto,system-ui,sans-serif" font-size="9.5" font-weight="500" fill="#6a6399" text-anchor="start">colocation · your keys</text><rect x="1180.0" y="120.0" width="34.0" height="34.0" rx="11" fill="rgba(159,216,232,0.16)"/><rect x="1191.48" y="129.64" width="11.040000000000001" height="14.72" rx="1.5" fill="none" stroke="#9fd8e8" stroke-width="1.56" stroke-linecap="round" stroke-linejoin="round"/><rect x="1193.32" y="132.4" width="1.84" height="1.84" rx="0.4" fill="#9fd8e8"/><rect x="1196.08" y="132.4" width="1.84" height="1.84" rx="0.4" fill="#9fd8e8"/><rect x="1198.84" y="132.4" width="1.84" height="1.84" rx="0.4" fill="#9fd8e8"/><rect x="1193.32" y="135.52800000000002" width="1.84" height="1.84" rx="0.4" fill="#9fd8e8"/><rect x="1196.08" y="135.52800000000002" width="1.84" height="1.84" rx="0.4" fill="#9fd8e8"/><rect x="1198.84" y="135.52800000000002" width="1.84" height="1.84" rx="0.4" fill="#9fd8e8"/><rect x="1193.32" y="138.656" width="1.84" height="1.84" rx="0.4" fill="#9fd8e8"/><rect x="1196.08" y="138.656" width="1.84" height="1.84" rx="0.4" fill="#9fd8e8"/><rect x="1198.84" y="138.656" width="1.84" height="1.84" rx="0.4" fill="#9fd8e8"/><rect x="268.0" y="224.0" width="614.4" height="268.0" rx="14" fill="url(#gCard)" stroke="#302a60" stroke-width="1"/><text x="286.0" y="251.0" font-family="-apple-system,BlinkMacSystemFont,'SF Pro Display','SF Pro Text','Segoe UI',Roboto,system-ui,sans-serif" font-size="12.5" font-weight="700" fill="#f2effc" text-anchor="start">Records sealed over time</text><text x="864.4" y="251.0" font-family="-apple-system,BlinkMacSystemFont,'SF Pro Display','SF Pro Text','Segoe UI',Roboto,system-ui,sans-serif" font-size="10" font-weight="600" fill="#6a6399" text-anchor="end">last 12 months</text><line x1="288" y1="319.0" x2="862.4" y2="319.0" stroke="rgba(48,42,96,0.5)" stroke-width="1"/><line x1="288" y1="362.0" x2="862.4" y2="362.0" stroke="rgba(48,42,96,0.5)" stroke-width="1"/><line x1="288" y1="405.0" x2="862.4" y2="405.0" stroke="rgba(48,42,96,0.5)" stroke-width="1"/><polygon points="288,448 288.0,429.6 340.2,416.6 392.4,409.1 444.7,399.3 496.9,386.4 549.1,377.2 601.3,365.9 653.5,347.5 705.7,332.4 758.0,312.9 810.2,292.4 862.4,276.0 862.4,448" fill="rgba(56,189,248,0.13)"/><polyline points="288.0,429.6 340.2,416.6 392.4,409.1 444.7,399.3 496.9,386.4 549.1,377.2 601.3,365.9 653.5,347.5 705.7,332.4 758.0,312.9 810.2,292.4 862.4,276.0" fill="none" stroke="#38bdf8" stroke-width="2.5" stroke-linejoin="round" stroke-linecap="round"/><circle cx="862.4" cy="276.0" r="4" fill="#38bdf8"/><text x="288.0" y="476.0" font-family="-apple-system,BlinkMacSystemFont,'SF Pro Display','SF Pro Text','Segoe UI',Roboto,system-ui,sans-serif" font-size="9" font-weight="500" fill="#6a6399" text-anchor="start">Jan</text><text x="862.4" y="476.0" font-family="-apple-system,BlinkMacSystemFont,'SF Pro Display','SF Pro Text','Segoe UI',Roboto,system-ui,sans-serif" font-size="9" font-weight="500" fill="#6a6399" text-anchor="end">Dec</text><rect x="902.4" y="224.0" width="325.6" height="268.0" rx="14" fill="url(#gCard)" stroke="#302a60" stroke-width="1"/><text x="920.4" y="251.0" font-family="-apple-system,BlinkMacSystemFont,'SF Pro Display','SF Pro Text','Segoe UI',Roboto,system-ui,sans-serif" font-size="12.5" font-weight="700" fill="#f2effc" text-anchor="start">Chain integrity</text><circle cx="1065.2" cy="352" r="58" fill="none" stroke="rgba(123,196,127,0.16)" stroke-width="11"/><circle cx="1065.2" cy="352" r="58" fill="none" stroke="#7bc47f" stroke-width="11" stroke-linecap="round" stroke-dasharray="364.4 364.4" transform="rotate(-90 1065.2 352)"/><path d="M1065.2 330.8 l13.299999999999999 5.699999999999999 v9.5 c0 9.5 -5.699999999999999 13.299999999999999 -13.299999999999999 17.099999999999998 c-7.6 -3.8 -13.299999999999999 -7.6 -13.299999999999999 -17.099999999999998 v-9.5 Z" fill="none" stroke="#7bc47f" stroke-width="3.23" stroke-linecap="round" stroke-linejoin="round"/><path d="M1059.5 346 l3.8 4.56 7.6 -8.549999999999999" fill="none" stroke="#7bc47f" stroke-width="3.23" stroke-linecap="round" stroke-linejoin="round"/><text x="1065.2" y="372.0" font-family="-apple-system,BlinkMacSystemFont,'SF Pro Display','SF Pro Text','Segoe UI',Roboto,system-ui,sans-serif" font-size="12" font-weight="800" fill="#7bc47f" text-anchor="middle" letter-spacing="1">INTACT</text><text x="1065.2" y="450.0" font-family="-apple-system,BlinkMacSystemFont,'SF Pro Display','SF Pro Text','Segoe UI',Roboto,system-ui,sans-serif" font-size="10" font-weight="600" fill="#9a93c6" text-anchor="middle">GET /audit/verify</text><text x="1065.2" y="466.0" font-family="-apple-system,BlinkMacSystemFont,'SF Pro Display','SF Pro Text','Segoe UI',Roboto,system-ui,sans-serif" font-size="9" font-weight="500" fill="#6a6399" text-anchor="middle">no record was retroactively edited</text><rect x="268.0" y="514.0" width="614.4" height="254.0" rx="14" fill="url(#gCard)" stroke="#302a60" stroke-width="1"/><text x="286.0" y="541.0" font-family="-apple-system,BlinkMacSystemFont,'SF Pro Display','SF Pro Text','Segoe UI',Roboto,system-ui,sans-serif" font-size="12.5" font-weight="700" fill="#f2effc" text-anchor="start">Recent audit</text><text x="864.4" y="541.0" font-family="-apple-system,BlinkMacSystemFont,'SF Pro Display','SF Pro Text','Segoe UI',Roboto,system-ui,sans-serif" font-size="10" font-weight="600" fill="#6a6399" text-anchor="end">live</text><text x="296.0" y="570.0" font-family="-apple-system,BlinkMacSystemFont,'SF Pro Display','SF Pro Text','Segoe UI',Roboto,system-ui,sans-serif" font-size="9.5" font-weight="700" fill="#6a6399" text-anchor="start" letter-spacing="0.4">OP</text><text x="388.5" y="570.0" font-family="-apple-system,BlinkMacSystemFont,'SF Pro Display','SF Pro Text','Segoe UI',Roboto,system-ui,sans-serif" font-size="9.5" font-weight="700" fill="#6a6399" text-anchor="start" letter-spacing="0.4">KEY</text><text x="654.6" y="570.0" font-family="-apple-system,BlinkMacSystemFont,'SF Pro Display','SF Pro Text','Segoe UI',Roboto,system-ui,sans-serif" font-size="9.5" font-weight="700" fill="#6a6399" text-anchor="start" letter-spacing="0.4">TENANT</text><text x="854.4" y="570.0" font-family="-apple-system,BlinkMacSystemFont,'SF Pro Display','SF Pro Text','Segoe UI',Roboto,system-ui,sans-serif" font-size="9.5" font-weight="700" fill="#6a6399" text-anchor="end" letter-spacing="0.4">TIME</text><line x1="286" y1="580" x2="864.4" y2="580" stroke="#302a60" stroke-width="1"/><text x="296.0" y="604.0" font-family="-apple-system,BlinkMacSystemFont,'SF Pro Display','SF Pro Text','Segoe UI',Roboto,system-ui,sans-serif" font-size="10.5" font-weight="800" fill="#7bc47f" text-anchor="start">STORE</text><text x="388.5" y="604.0" font-family="-apple-system,BlinkMacSystemFont,'SF Pro Display','SF Pro Text','Segoe UI',Roboto,system-ui,sans-serif" font-size="10.5" font-weight="500" fill="#f2effc" text-anchor="start">records/med/contact</text><text x="654.6" y="604.0" font-family="-apple-system,BlinkMacSystemFont,'SF Pro Display','SF Pro Text','Segoe UI',Roboto,system-ui,sans-serif" font-size="10.5" font-weight="500" fill="#f2effc" text-anchor="start">jim-mini</text><text x="854.4" y="604.0" font-family="-apple-system,BlinkMacSystemFont,'SF Pro Display','SF Pro Text','Segoe UI',Roboto,system-ui,sans-serif" font-size="10.5" font-weight="500" fill="#9a93c6" text-anchor="end">10:02</text><line x1="286" y1="612" x2="864.4" y2="612" stroke="rgba(48,42,96,0.45)" stroke-width="1"/><text x="296.0" y="636.0" font-family="-apple-system,BlinkMacSystemFont,'SF Pro Display','SF Pro Text','Segoe UI',Roboto,system-ui,sans-serif" font-size="10.5" font-weight="800" fill="#9fd8e8" text-anchor="start">READ</text><text x="388.5" y="636.0" font-family="-apple-system,BlinkMacSystemFont,'SF Pro Display','SF Pro Text','Segoe UI',Roboto,system-ui,sans-serif" font-size="10.5" font-weight="500" fill="#f2effc" text-anchor="start">profiles/src/ava</text><text x="654.6" y="636.0" font-family="-apple-system,BlinkMacSystemFont,'SF Pro Display','SF Pro Text','Segoe UI',Roboto,system-ui,sans-serif" font-size="10.5" font-weight="500" fill="#f2effc" text-anchor="start">qrme</text><text x="854.4" y="636.0" font-family="-apple-system,BlinkMacSystemFont,'SF Pro Display','SF Pro Text','Segoe UI',Roboto,system-ui,sans-serif" font-size="10.5" font-weight="500" fill="#9a93c6" text-anchor="end">10:01</text><line x1="286" y1="644" x2="864.4" y2="644" stroke="rgba(48,42,96,0.45)" stroke-width="1"/><text x="296.0" y="668.0" font-family="-apple-system,BlinkMacSystemFont,'SF Pro Display','SF Pro Text','Segoe UI',Roboto,system-ui,sans-serif" font-size="10.5" font-weight="800" fill="#7bc47f" text-anchor="start">STORE</text><text x="388.5" y="668.0" font-family="-apple-system,BlinkMacSystemFont,'SF Pro Display','SF Pro Text','Segoe UI',Roboto,system-ui,sans-serif" font-size="10.5" font-weight="500" fill="#f2effc" text-anchor="start">contributions/qrme/8f3a</text><text x="654.6" y="668.0" font-family="-apple-system,BlinkMacSystemFont,'SF Pro Display','SF Pro Text','Segoe UI',Roboto,system-ui,sans-serif" font-size="10.5" font-weight="500" fill="#f2effc" text-anchor="start">qrme</text><text x="854.4" y="668.0" font-family="-apple-system,BlinkMacSystemFont,'SF Pro Display','SF Pro Text','Segoe UI',Roboto,system-ui,sans-serif" font-size="10.5" font-weight="500" fill="#9a93c6" text-anchor="end">09:58</text><line x1="286" y1="676" x2="864.4" y2="676" stroke="rgba(48,42,96,0.45)" stroke-width="1"/><text x="296.0" y="700.0" font-family="-apple-system,BlinkMacSystemFont,'SF Pro Display','SF Pro Text','Segoe UI',Roboto,system-ui,sans-serif" font-size="10.5" font-weight="800" fill="#e0687a" text-anchor="start">ERASE</text><text x="388.5" y="700.0" font-family="-apple-system,BlinkMacSystemFont,'SF Pro Display','SF Pro Text','Segoe UI',Roboto,system-ui,sans-serif" font-size="10.5" font-weight="500" fill="#f2effc" text-anchor="start">records/med/old-contact</text><text x="654.6" y="700.0" font-family="-apple-system,BlinkMacSystemFont,'SF Pro Display','SF Pro Text','Segoe UI',Roboto,system-ui,sans-serif" font-size="10.5" font-weight="500" fill="#f2effc" text-anchor="start">jim-mini</text><text x="854.4" y="700.0" font-family="-apple-system,BlinkMacSystemFont,'SF Pro Display','SF Pro Text','Segoe UI',Roboto,system-ui,sans-serif" font-size="10.5" font-weight="500" fill="#9a93c6" text-anchor="end">09:55</text><line x1="286" y1="708" x2="864.4" y2="708" stroke="rgba(48,42,96,0.45)" stroke-width="1"/><rect x="902.4" y="514.0" width="325.6" height="254.0" rx="14" fill="url(#gCard)" stroke="#302a60" stroke-width="1"/><text x="920.4" y="541.0" font-family="-apple-system,BlinkMacSystemFont,'SF Pro Display','SF Pro Text','Segoe UI',Roboto,system-ui,sans-serif" font-size="12.5" font-weight="700" fill="#f2effc" text-anchor="start">Tenants</text><rect x="920.4" y="558.0" width="289.6" height="52.0" rx="11" fill="rgba(255,255,255,0.03)" stroke="#302a60" stroke-width="1"/><circle cx="944.4" cy="584" r="15" fill="rgba(56,189,248,0.2)" stroke="#38bdf8" stroke-width="1.2"/><circle cx="941.1999999999999" cy="580.8" r="2.4000000000000004" fill="none" stroke="#38bdf8" stroke-width="1.36" stroke-linecap="round" stroke-linejoin="round"/><circle cx="947.6" cy="580.8" r="2.4000000000000004" fill="none" stroke="#38bdf8" stroke-width="1.36" stroke-linecap="round" stroke-linejoin="round"/><path d="M937.1999999999999 588.8 c0 -4.0 4.800000000000001 -4.0 4.800000000000001 0 M943.6 588.8 c0 -4.0 5.6000000000000005 -4.0 7.2 -0.8" fill="none" stroke="#38bdf8" stroke-width="1.36" stroke-linecap="round" stroke-linejoin="round"/><text x="968.4" y="580.0" font-family="-apple-system,BlinkMacSystemFont,'SF Pro Display','SF Pro Text','Segoe UI',Roboto,system-ui,sans-serif" font-size="12" font-weight="700" fill="#f2effc" text-anchor="start">qrme</text><text x="968.4" y="596.0" font-family="-apple-system,BlinkMacSystemFont,'SF Pro Display','SF Pro Text','Segoe UI',Roboto,system-ui,sans-serif" font-size="10" font-weight="500" fill="#9a93c6" text-anchor="start">1,204 records</text><rect x="1160.0" y="575.0" width="50.0" height="16.0" rx="8" fill="rgba(123,196,127,0.14)"/><circle cx="1169.0" cy="583" r="3" fill="#7bc47f"/><text x="1176.0" y="587.0" font-family="-apple-system,BlinkMacSystemFont,'SF Pro Display','SF Pro Text','Segoe UI',Roboto,system-ui,sans-serif" font-size="9" font-weight="700" fill="#7bc47f" text-anchor="start" letter-spacing="0.5">ACTIVE</text><rect x="920.4" y="620.0" width="289.6" height="52.0" rx="11" fill="rgba(255,255,255,0.03)" stroke="#302a60" stroke-width="1"/><circle cx="944.4" cy="646" r="15" fill="rgba(159,216,232,0.2)" stroke="#9fd8e8" stroke-width="1.2"/><circle cx="941.1999999999999" cy="642.8" r="2.4000000000000004" fill="none" stroke="#9fd8e8" stroke-width="1.36" stroke-linecap="round" stroke-linejoin="round"/><circle cx="947.6" cy="642.8" r="2.4000000000000004" fill="none" stroke="#9fd8e8" stroke-width="1.36" stroke-linecap="round" stroke-linejoin="round"/><path d="M937.1999999999999 650.8 c0 -4.0 4.800000000000001 -4.0 4.800000000000001 0 M943.6 650.8 c0 -4.0 5.6000000000000005 -4.0 7.2 -0.8" fill="none" stroke="#9fd8e8" stroke-width="1.36" stroke-linecap="round" stroke-linejoin="round"/><text x="968.4" y="642.0" font-family="-apple-system,BlinkMacSystemFont,'SF Pro Display','SF Pro Text','Segoe UI',Roboto,system-ui,sans-serif" font-size="12" font-weight="700" fill="#f2effc" text-anchor="start">jim-mini</text><text x="968.4" y="658.0" font-family="-apple-system,BlinkMacSystemFont,'SF Pro Display','SF Pro Text','Segoe UI',Roboto,system-ui,sans-serif" font-size="10" font-weight="500" fill="#9a93c6" text-anchor="start">638 records</text><rect x="1160.0" y="637.0" width="50.0" height="16.0" rx="8" fill="rgba(123,196,127,0.14)"/><circle cx="1169.0" cy="645" r="3" fill="#7bc47f"/><text x="1176.0" y="649.0" font-family="-apple-system,BlinkMacSystemFont,'SF Pro Display','SF Pro Text','Segoe UI',Roboto,system-ui,sans-serif" font-size="9" font-weight="700" fill="#7bc47f" text-anchor="start" letter-spacing="0.5">ACTIVE</text></svg>