<svg xmlns="http://www.w3.org/2000/svg" width="1280" height="820" viewBox="0 0 1280 820" role="img" aria-label="PDI console — Deployment &amp; Health"><defs>
      <linearGradient id="gPage" x1="0" y1="0" x2="0.4" y2="1">
        <stop offset="0" stop-color="#0d0a20"/><stop offset="1" stop-color="#080614"/></linearGradient>
      <linearGradient id="gScr" x1="0" y1="0" x2="0.5" y2="1">
        <stop offset="0" stop-color="#181235"/><stop offset="1" stop-color="#0c0920"/></linearGradient>
      <linearGradient id="gSide" x1="0" y1="0" x2="0" y2="1">
        <stop offset="0" stop-color="#161038"/><stop offset="1" stop-color="#0e0a26"/></linearGradient>
      <linearGradient id="gCard" x1="0" y1="0" x2="0.4" y2="1">
        <stop offset="0" stop-color="#201a48"/><stop offset="1" stop-color="#181240"/></linearGradient>
      <linearGradient id="gBrand" x1="0" y1="0" x2="1" y2="0">
        <stop offset="0" stop-color="#38bdf8"/><stop offset="1" stop-color="#7dd3fc"/></linearGradient>
      <linearGradient id="gAmber" x1="0" y1="0" x2="1" y2="0">
        <stop offset="0" stop-color="#ffb84d"/><stop offset="1" stop-color="#ffd27a"/></linearGradient>
      <linearGradient id="mG" x1="0" y1="0" x2="1" y2="0"><stop offset="0" stop-color="#5fb87a"/><stop offset="1" stop-color="#7bc47f"/></linearGradient>
      <linearGradient id="mC" x1="0" y1="0" x2="1" y2="0"><stop offset="0" stop-color="#6bb6d6"/><stop offset="1" stop-color="#9fd8e8"/></linearGradient>
      <radialGradient id="orb" cx="36%" cy="30%" r="78%">
        <stop offset="0" stop-color="#cbeeff"/><stop offset="38%" stop-color="#38bdf8"/>
        <stop offset="78%" stop-color="#1f6fb2"/><stop offset="100%" stop-color="#0b2438"/></radialGradient>
    </defs><rect x="0.0" y="0.0" width="1280.0" height="820.0" rx="0" fill="url(#gPage)"/><rect x="24" y="24" width="1232" height="772" rx="18" fill="url(#gScr)" stroke="#302a60" stroke-width="1"/><rect x="24.0" y="24.0" width="216.0" height="772.0" rx="18" fill="url(#gSide)"/><rect x="222.0" y="24.0" width="18.0" height="772.0" rx="0" fill="url(#gScr)"/><line x1="240" y1="24" x2="240" y2="796" stroke="#302a60" stroke-width="1"/><line x1="240" y1="78" x2="1256" y2="78" stroke="#302a60" stroke-width="1"/><circle cx="46" cy="51" r="5.5" fill="#ff5f57" opacity="0.9"/><circle cx="64" cy="51" r="5.5" fill="#febc2e" opacity="0.9"/><circle cx="82" cy="51" r="5.5" fill="#28c840" opacity="0.9"/><circle cx="120" cy="51" r="11" fill="url(#orb)"/><rect x="116.4" y="49.8" width="7.199999999999999" height="5.3999999999999995" rx="2" fill="none" stroke="rgba(255,255,255,0.95)" stroke-width="1.02" stroke-linecap="round" stroke-linejoin="round"/><path d="M117.9 49.8 v-1.7999999999999998 a2.1 2.1 0 0 1 4.2 0 v1.7999999999999998" fill="none" stroke="rgba(255,255,255,0.95)" stroke-width="1.02" stroke-linecap="round" stroke-linejoin="round"/><circle cx="120" cy="52.5" r="0.72" fill="rgba(255,255,255,0.95)"/><text x="138.0" y="49.0" font-family="-apple-system,BlinkMacSystemFont,'SF Pro Display','SF Pro Text','Segoe UI',Roboto,system-ui,sans-serif" font-size="14" font-weight="800" fill="#f2effc" text-anchor="start" letter-spacing="0.5">PDI</text><text x="138.0" y="63.0" font-family="-apple-system,BlinkMacSystemFont,'SF Pro Display','SF Pro Text','Segoe UI',Roboto,system-ui,sans-serif" font-size="8.5" font-weight="500" fill="#6a6399" text-anchor="start">Private Data Infrastructure</text><text x="268.0" y="57.0" font-family="-apple-system,BlinkMacSystemFont,'SF Pro Display','SF Pro Text','Segoe UI',Roboto,system-ui,sans-serif" font-size="15" font-weight="700" fill="#f2effc" text-anchor="start" letter-spacing="-0.2">Deployment &amp; Health</text><rect x="1220.96" y="43.8" width="2.08" height="3.2" rx="1" transform="rotate(0 1222 51)" fill="#9a93c6"/><rect x="1220.96" y="43.8" width="2.08" height="3.2" rx="1" transform="rotate(45 1222 51)" fill="#9a93c6"/><rect x="1220.96" y="43.8" width="2.08" height="3.2" rx="1" transform="rotate(90 1222 51)" fill="#9a93c6"/><rect x="1220.96" y="43.8" width="2.08" height="3.2" rx="1" transform="rotate(135 1222 51)" fill="#9a93c6"/><rect x="1220.96" y="43.8" width="2.08" height="3.2" rx="1" transform="rotate(180 1222 51)" fill="#9a93c6"/><rect x="1220.96" y="43.8" width="2.08" height="3.2" rx="1" transform="rotate(225 1222 51)" fill="#9a93c6"/><rect x="1220.96" y="43.8" width="2.08" height="3.2" rx="1" transform="rotate(270 1222 51)" fill="#9a93c6"/><rect x="1220.96" y="43.8" width="2.08" height="3.2" rx="1" transform="rotate(315 1222 51)" fill="#9a93c6"/><circle cx="1222" cy="51" r="3.6799999999999997" fill="none" stroke="#9a93c6" stroke-width="1.36" stroke-linecap="round" stroke-linejoin="round"/><rect x="1112.0" y="46.0" width="86.0" height="16.0" rx="8" fill="rgba(123,196,127,0.14)"/><circle cx="1121.0" cy="54" r="3" fill="#7bc47f"/><text x="1128.0" y="58.0" font-family="-apple-system,BlinkMacSystemFont,'SF Pro Display','SF Pro Text','Segoe UI',Roboto,system-ui,sans-serif" font-size="9" font-weight="700" fill="#7bc47f" text-anchor="start" letter-spacing="0.5">Vault online</text><rect x="920.0" y="40.0" width="150.0" height="24.0" rx="8" fill="rgba(255,255,255,0.05)" stroke="#302a60" stroke-width="1"/><circle cx="933.6" cy="49.6" r="1.7999999999999998" fill="none" stroke="#38bdf8" stroke-width="1.02" stroke-linecap="round" stroke-linejoin="round"/><circle cx="938.4" cy="49.6" r="1.7999999999999998" fill="none" stroke="#38bdf8" stroke-width="1.02" stroke-linecap="round" stroke-linejoin="round"/><path d="M930.6 55.6 c0 -3.0 3.5999999999999996 -3.0 3.5999999999999996 0 M935.4 55.6 c0 -3.0 4.2 -3.0 5.3999999999999995 -0.6" fill="none" stroke="#38bdf8" stroke-width="1.02" stroke-linecap="round" stroke-linejoin="round"/><text x="948.0" y="55.0" font-family="-apple-system,BlinkMacSystemFont,'SF Pro Display','SF Pro Text','Segoe UI',Roboto,system-ui,sans-serif" font-size="10.5" font-weight="600" fill="#f2effc" text-anchor="start">All tenants</text><text x="1044.0" y="55.0" font-family="-apple-system,BlinkMacSystemFont,'SF Pro Display','SF Pro Text','Segoe UI',Roboto,system-ui,sans-serif" font-size="9" font-weight="600" fill="#6a6399" text-anchor="end">▾</text><rect x="52.96" y="105.96" width="4.32" height="4.32" rx="1.4" fill="none" stroke="#9a93c6" stroke-width="1.22" stroke-linecap="round" stroke-linejoin="round"/><rect x="58.72" y="105.96" width="4.32" height="4.32" rx="1.4" fill="none" stroke="#9a93c6" stroke-width="1.22" stroke-linecap="round" stroke-linejoin="round"/><rect x="52.96" y="111.72" width="4.32" height="4.32" rx="1.4" fill="none" stroke="#9a93c6" stroke-width="1.22" stroke-linecap="round" stroke-linejoin="round"/><rect x="58.72" y="111.72" width="4.32" height="4.32" rx="1.4" fill="none" stroke="#9a93c6" stroke-width="1.22" stroke-linecap="round" stroke-linejoin="round"/><text x="78.0" y="116.0" font-family="-apple-system,BlinkMacSystemFont,'SF Pro Display','SF Pro Text','Segoe UI',Roboto,system-ui,sans-serif" font-size="12.5" font-weight="500" fill="#9a93c6" text-anchor="start">Overview</text><rect x="53.68" y="155.56" width="8.64" height="6.4799999999999995" rx="2" fill="none" stroke="#9a93c6" stroke-width="1.22" stroke-linecap="round" stroke-linejoin="round"/><path d="M55.48 155.56 v-2.16 a2.52 2.52 0 0 1 5.04 0 v2.16" fill="none" stroke="#9a93c6" stroke-width="1.22" stroke-linecap="round" stroke-linejoin="round"/><circle cx="58" cy="158.8" r="0.864" fill="#9a93c6"/><text x="78.0" y="162.0" font-family="-apple-system,BlinkMacSystemFont,'SF Pro Display','SF Pro Text','Segoe UI',Roboto,system-ui,sans-serif" font-size="12.5" font-weight="500" fill="#9a93c6" text-anchor="start">Vault</text><circle cx="55.12" cy="200.12" r="2.16" fill="none" stroke="#9a93c6" stroke-width="1.22" stroke-linecap="round" stroke-linejoin="round"/><circle cx="60.88" cy="200.12" r="2.16" fill="none" stroke="#9a93c6" stroke-width="1.22" stroke-linecap="round" stroke-linejoin="round"/><path d="M51.52 207.32 c0 -3.5999999999999996 4.32 -3.5999999999999996 4.32 0 M57.28 207.32 c0 -3.5999999999999996 5.04 -3.5999999999999996 6.4799999999999995 -0.72" fill="none" stroke="#9a93c6" stroke-width="1.22" stroke-linecap="round" stroke-linejoin="round"/><text x="78.0" y="208.0" font-family="-apple-system,BlinkMacSystemFont,'SF Pro Display','SF Pro Text','Segoe UI',Roboto,system-ui,sans-serif" font-size="12.5" font-weight="500" fill="#9a93c6" text-anchor="start">Tenants</text><path d="M58 243.24 l5.04 2.16 v3.5999999999999996 c0 3.5999999999999996 -2.16 5.04 -5.04 6.4799999999999995 c-2.88 -1.44 -5.04 -2.88 -5.04 -6.4799999999999995 v-3.5999999999999996 Z" fill="none" stroke="#9a93c6" stroke-width="1.22" stroke-linecap="round" stroke-linejoin="round"/><path d="M55.84 249 l1.44 1.728 2.88 -3.2399999999999998" fill="none" stroke="#9a93c6" stroke-width="1.22" stroke-linecap="round" stroke-linejoin="round"/><text x="78.0" y="254.0" font-family="-apple-system,BlinkMacSystemFont,'SF Pro Display','SF Pro Text','Segoe UI',Roboto,system-ui,sans-serif" font-size="12.5" font-weight="500" fill="#9a93c6" text-anchor="start">Audit</text><path d="M53.68 296.44 c0 -5.04 2.16 -6.4799999999999995 4.32 -6.4799999999999995 c2.16 0 4.32 1.44 4.32 5.04" fill="none" stroke="#9a93c6" stroke-width="1.22" stroke-linecap="round" stroke-linejoin="round"/><path d="M55.84 297.88 c0 -4.32 1.44 -5.04 2.16 -5.04 c1.44 0 2.16 1.44 2.16 3.5999999999999996" fill="none" stroke="#9a93c6" stroke-width="1.22" stroke-linecap="round" stroke-linejoin="round"/><path d="M58 299.32 v-4.32" fill="none" stroke="#9a93c6" stroke-width="1.22" stroke-linecap="round" stroke-linejoin="round"/><text x="78.0" y="300.0" font-family="-apple-system,BlinkMacSystemFont,'SF Pro Display','SF Pro Text','Segoe UI',Roboto,system-ui,sans-serif" font-size="12.5" font-weight="500" fill="#9a93c6" text-anchor="start">Encryption</text><rect x="36.0" y="322.0" width="192.0" height="38.0" rx="10" fill="rgba(56,189,248,0.14)"/><rect x="36.0" y="322.0" width="3.0" height="38.0" rx="2" fill="#38bdf8"/><rect x="53.68" y="335.24" width="8.64" height="11.52" rx="1.5" fill="none" stroke="#38bdf8" stroke-width="1.22" stroke-linecap="round" stroke-linejoin="round"/><rect x="55.12" y="337.4" width="1.44" height="1.44" rx="0.4" fill="#38bdf8"/><rect x="57.28" y="337.4" width="1.44" height="1.44" rx="0.4" fill="#38bdf8"/><rect x="59.44" y="337.4" width="1.44" height="1.44" rx="0.4" fill="#38bdf8"/><rect x="55.12" y="339.84799999999996" width="1.44" height="1.44" rx="0.4" fill="#38bdf8"/><rect x="57.28" y="339.84799999999996" width="1.44" height="1.44" rx="0.4" fill="#38bdf8"/><rect x="59.44" y="339.84799999999996" width="1.44" height="1.44" rx="0.4" fill="#38bdf8"/><rect x="55.12" y="342.296" width="1.44" height="1.44" rx="0.4" fill="#38bdf8"/><rect x="57.28" y="342.296" width="1.44" height="1.44" rx="0.4" fill="#38bdf8"/><rect x="59.44" y="342.296" width="1.44" height="1.44" rx="0.4" fill="#38bdf8"/><text x="78.0" y="346.0" font-family="-apple-system,BlinkMacSystemFont,'SF Pro Display','SF Pro Text','Segoe UI',Roboto,system-ui,sans-serif" font-size="12.5" font-weight="650" fill="#f2effc" text-anchor="start">Deployment</text><rect x="52.96" y="387.71999999999997" width="2.304" height="3.5999999999999996" rx="1" fill="#9a93c6"/><rect x="56.56" y="384.84" width="2.304" height="6.4799999999999995" rx="1" fill="#9a93c6"/><rect x="60.16" y="388.44" width="2.304" height="2.88" rx="1" fill="#9a93c6"/><rect x="63.76" y="383.4" width="2.304" height="7.92" rx="1" fill="#9a93c6"/><text x="78.0" y="392.0" font-family="-apple-system,BlinkMacSystemFont,'SF Pro Display','SF Pro Text','Segoe UI',Roboto,system-ui,sans-serif" font-size="12.5" font-weight="500" fill="#9a93c6" text-anchor="start">Health</text><rect x="57.064" y="426.52" width="1.8719999999999999" height="2.88" rx="1" transform="rotate(0 58 433)" fill="#9a93c6"/><rect x="57.064" y="426.52" width="1.8719999999999999" height="2.88" rx="1" transform="rotate(45 58 433)" fill="#9a93c6"/><rect x="57.064" y="426.52" width="1.8719999999999999" height="2.88" rx="1" transform="rotate(90 58 433)" fill="#9a93c6"/><rect x="57.064" y="426.52" width="1.8719999999999999" height="2.88" rx="1" transform="rotate(135 58 433)" fill="#9a93c6"/><rect x="57.064" y="426.52" width="1.8719999999999999" height="2.88" rx="1" transform="rotate(180 58 433)" fill="#9a93c6"/><rect x="57.064" y="426.52" width="1.8719999999999999" height="2.88" rx="1" transform="rotate(225 58 433)" fill="#9a93c6"/><rect x="57.064" y="426.52" width="1.8719999999999999" height="2.88" rx="1" transform="rotate(270 58 433)" fill="#9a93c6"/><rect x="57.064" y="426.52" width="1.8719999999999999" height="2.88" rx="1" transform="rotate(315 58 433)" fill="#9a93c6"/><circle cx="58" cy="433" r="3.312" fill="none" stroke="#9a93c6" stroke-width="1.22" stroke-linecap="round" stroke-linejoin="round"/><text x="78.0" y="438.0" font-family="-apple-system,BlinkMacSystemFont,'SF Pro Display','SF Pro Text','Segoe UI',Roboto,system-ui,sans-serif" font-size="12.5" font-weight="500" fill="#9a93c6" text-anchor="start">Settings</text><line x1="40" y1="726" x2="224" y2="726" stroke="#302a60" stroke-width="1"/><rect x="40.0" y="740.0" width="184.0" height="40.0" rx="10" fill="rgba(255,255,255,0.04)" stroke="#302a60" stroke-width="1"/><path d="M58 754.72 l4.62 1.98 v3.3000000000000003 c0 3.3000000000000003 -1.98 4.62 -4.62 5.94 c-2.64 -1.32 -4.62 -2.64 -4.62 -5.94 v-3.3000000000000003 Z" fill="none" stroke="#7bc47f" stroke-width="1.12" stroke-linecap="round" stroke-linejoin="round"/><path d="M56.02 760 l1.32 1.584 2.64 -2.97" fill="none" stroke="#7bc47f" stroke-width="1.12" stroke-linecap="round" stroke-linejoin="round"/><text x="76.0" y="756.0" font-family="-apple-system,BlinkMacSystemFont,'SF Pro Display','SF Pro Text','Segoe UI',Roboto,system-ui,sans-serif" font-size="10.5" font-weight="650" fill="#f2effc" text-anchor="start">Chain intact</text><text x="76.0" y="769.0" font-family="-apple-system,BlinkMacSystemFont,'SF Pro Display','SF Pro Text','Segoe UI',Roboto,system-ui,sans-serif" font-size="8.5" font-weight="500" fill="#6a6399" text-anchor="start">on-prem · Tier III+</text><marker id="ah" markerWidth="8" markerHeight="8" refX="6" refY="3" orient="auto"><path d="M0 0 L6 3 L0 6 Z" fill="#6a6399"/></marker><rect x="268.0" y="106.0" width="499.2" height="300.0" rx="14" fill="url(#gCard)" stroke="#302a60" stroke-width="1"/><text x="286.0" y="133.0" font-family="-apple-system,BlinkMacSystemFont,'SF Pro Display','SF Pro Text','Segoe UI',Roboto,system-ui,sans-serif" font-size="12.5" font-weight="700" fill="#f2effc" text-anchor="start">Deployment</text><text x="749.2" y="133.0" font-family="-apple-system,BlinkMacSystemFont,'SF Pro Display','SF Pro Text','Segoe UI',Roboto,system-ui,sans-serif" font-size="10" font-weight="600" fill="#6a6399" text-anchor="end">models the proposal&#x27;s tiers</text><rect x="292.0" y="152.0" width="451.2" height="76.0" rx="13" fill="rgba(56,189,248,0.1)" stroke="#38bdf8" stroke-width="1.4"/><rect x="306.0" y="173.0" width="34.0" height="34.0" rx="11" fill="rgba(56,189,248,0.16)"/><rect x="317.48" y="182.64" width="11.040000000000001" height="14.72" rx="1.5" fill="none" stroke="#38bdf8" stroke-width="1.56" stroke-linecap="round" stroke-linejoin="round"/><rect x="319.32" y="185.4" width="1.84" height="1.84" rx="0.4" fill="#38bdf8"/><rect x="322.08" y="185.4" width="1.84" height="1.84" rx="0.4" fill="#38bdf8"/><rect x="324.84" y="185.4" width="1.84" height="1.84" rx="0.4" fill="#38bdf8"/><rect x="319.32" y="188.52800000000002" width="1.84" height="1.84" rx="0.4" fill="#38bdf8"/><rect x="322.08" y="188.52800000000002" width="1.84" height="1.84" rx="0.4" fill="#38bdf8"/><rect x="324.84" y="188.52800000000002" width="1.84" height="1.84" rx="0.4" fill="#38bdf8"/><rect x="319.32" y="191.656" width="1.84" height="1.84" rx="0.4" fill="#38bdf8"/><rect x="322.08" y="191.656" width="1.84" height="1.84" rx="0.4" fill="#38bdf8"/><rect x="324.84" y="191.656" width="1.84" height="1.84" rx="0.4" fill="#38bdf8"/><text x="352.0" y="186.0" font-family="-apple-system,BlinkMacSystemFont,'SF Pro Display','SF Pro Text','Segoe UI',Roboto,system-ui,sans-serif" font-size="13.5" font-weight="700" fill="#f2effc" text-anchor="start">On-premises</text><text x="352.0" y="204.0" font-family="-apple-system,BlinkMacSystemFont,'SF Pro Display','SF Pro Text','Segoe UI',Roboto,system-ui,sans-serif" font-size="10" font-weight="500" fill="#9a93c6" text-anchor="start">in your own facility · your hardware</text><rect x="677.2" y="181.0" width="50.0" height="16.0" rx="8" fill="rgba(123,196,127,0.14)"/><circle cx="686.2" cy="189" r="3" fill="#7bc47f"/><text x="693.2" y="193.0" font-family="-apple-system,BlinkMacSystemFont,'SF Pro Display','SF Pro Text','Segoe UI',Roboto,system-ui,sans-serif" font-size="9" font-weight="700" fill="#7bc47f" text-anchor="start" letter-spacing="0.5">ACTIVE</text><rect x="292.0" y="240.0" width="451.2" height="76.0" rx="13" fill="rgba(255,255,255,0.03)" stroke="#302a60" stroke-width="1"/><rect x="306.0" y="261.0" width="34.0" height="34.0" rx="11" fill="rgba(159,216,232,0.16)"/><path d="M323 270.64 l6.44 2.7600000000000002 v4.6000000000000005 c0 4.6000000000000005 -2.7600000000000002 6.44 -6.44 8.280000000000001 c-3.68 -1.84 -6.44 -3.68 -6.44 -8.280000000000001 v-4.6000000000000005 Z" fill="none" stroke="#9fd8e8" stroke-width="1.56" stroke-linecap="round" stroke-linejoin="round"/><path d="M320.24 278 l1.84 2.208 3.68 -4.140000000000001" fill="none" stroke="#9fd8e8" stroke-width="1.56" stroke-linecap="round" stroke-linejoin="round"/><text x="352.0" y="274.0" font-family="-apple-system,BlinkMacSystemFont,'SF Pro Display','SF Pro Text','Segoe UI',Roboto,system-ui,sans-serif" font-size="13.5" font-weight="700" fill="#f2effc" text-anchor="start">Colocation · Tier III+</text><text x="352.0" y="292.0" font-family="-apple-system,BlinkMacSystemFont,'SF Pro Display','SF Pro Text','Segoe UI',Roboto,system-ui,sans-serif" font-size="10" font-weight="500" fill="#9a93c6" text-anchor="start">carrier-grade data center, your keys</text><rect x="292.0" y="328.0" width="451.2" height="44.0" rx="11" fill="rgba(123,196,127,0.08)" stroke="#7bc47f" stroke-width="1"/><path d="M308.9 351.7 c0 -5.95 2.55 -7.6499999999999995 5.1 -7.6499999999999995 c2.55 0 5.1 1.7 5.1 5.95" fill="none" stroke="#7bc47f" stroke-width="1.44" stroke-linecap="round" stroke-linejoin="round"/><path d="M311.45 353.4 c0 -5.1 1.7 -5.95 2.55 -5.95 c1.7 0 2.55 1.7 2.55 4.25" fill="none" stroke="#7bc47f" stroke-width="1.44" stroke-linecap="round" stroke-linejoin="round"/><path d="M314 355.1 v-5.1" fill="none" stroke="#7bc47f" stroke-width="1.44" stroke-linecap="round" stroke-linejoin="round"/><text x="336.0" y="347.0" font-family="-apple-system,BlinkMacSystemFont,'SF Pro Display','SF Pro Text','Segoe UI',Roboto,system-ui,sans-serif" font-size="11" font-weight="650" fill="#f2effc" text-anchor="start">Your hardware, your keys, your walls</text><text x="336.0" y="362.0" font-family="-apple-system,BlinkMacSystemFont,'SF Pro Display','SF Pro Text','Segoe UI',Roboto,system-ui,sans-serif" font-size="9.5" font-weight="500" fill="#9a93c6" text-anchor="start">PDI_MASTER_KEY lives in your KMS/HSM</text><rect x="787.2" y="106.0" width="212.4" height="84.0" rx="14" fill="url(#gCard)" stroke="#302a60" stroke-width="1"/><text x="805.2" y="134.0" font-family="-apple-system,BlinkMacSystemFont,'SF Pro Display','SF Pro Text','Segoe UI',Roboto,system-ui,sans-serif" font-size="11" font-weight="600" fill="#9a93c6" text-anchor="start">Uptime</text><text x="805.2" y="168.0" font-family="-apple-system,BlinkMacSystemFont,'SF Pro Display','SF Pro Text','Segoe UI',Roboto,system-ui,sans-serif" font-size="27" font-weight="800" fill="#7bc47f" text-anchor="start">99.99%</text><text x="805.2" y="186.0" font-family="-apple-system,BlinkMacSystemFont,'SF Pro Display','SF Pro Text','Segoe UI',Roboto,system-ui,sans-serif" font-size="9.5" font-weight="500" fill="#6a6399" text-anchor="start">30-day</text><rect x="951.6" y="120.0" width="34.0" height="34.0" rx="11" fill="rgba(123,196,127,0.16)"/><path d="M970.44 129.64 L963.08 137.92 L968.6 137.92 L966.76 144.36 L974.12 136.08 L968.6 136.08 Z" fill="#7bc47f"/><rect x="1015.6" y="106.0" width="212.4" height="84.0" rx="14" fill="url(#gCard)" stroke="#302a60" stroke-width="1"/><text x="1033.6" y="134.0" font-family="-apple-system,BlinkMacSystemFont,'SF Pro Display','SF Pro Text','Segoe UI',Roboto,system-ui,sans-serif" font-size="11" font-weight="600" fill="#9a93c6" text-anchor="start">p50 latency</text><text x="1033.6" y="168.0" font-family="-apple-system,BlinkMacSystemFont,'SF Pro Display','SF Pro Text','Segoe UI',Roboto,system-ui,sans-serif" font-size="27" font-weight="800" fill="#38bdf8" text-anchor="start">8 ms</text><text x="1033.6" y="186.0" font-family="-apple-system,BlinkMacSystemFont,'SF Pro Display','SF Pro Text','Segoe UI',Roboto,system-ui,sans-serif" font-size="9.5" font-weight="500" fill="#6a6399" text-anchor="start">seal + audit</text><rect x="1180.0" y="120.0" width="34.0" height="34.0" rx="11" fill="rgba(56,189,248,0.16)"/><circle cx="1197.0" cy="137" r="6.9" fill="none" stroke="#38bdf8" stroke-width="1.56" stroke-linecap="round" stroke-linejoin="round"/><path d="M1197.0 133.32 v3.68 l2.7600000000000002 1.84" fill="none" stroke="#38bdf8" stroke-width="1.56" stroke-linecap="round" stroke-linejoin="round"/><rect x="787.2" y="206.0" width="212.4" height="84.0" rx="14" fill="url(#gCard)" stroke="#302a60" stroke-width="1"/><text x="805.2" y="234.0" font-family="-apple-system,BlinkMacSystemFont,'SF Pro Display','SF Pro Text','Segoe UI',Roboto,system-ui,sans-serif" font-size="11" font-weight="600" fill="#9a93c6" text-anchor="start">Requests</text><text x="805.2" y="268.0" font-family="-apple-system,BlinkMacSystemFont,'SF Pro Display','SF Pro Text','Segoe UI',Roboto,system-ui,sans-serif" font-size="27" font-weight="800" fill="#ffb84d" text-anchor="start">1.2k</text><text x="805.2" y="286.0" font-family="-apple-system,BlinkMacSystemFont,'SF Pro Display','SF Pro Text','Segoe UI',Roboto,system-ui,sans-serif" font-size="9.5" font-weight="500" fill="#6a6399" text-anchor="start">per minute</text><rect x="951.6" y="220.0" width="34.0" height="34.0" rx="11" fill="rgba(255,184,77,0.16)"/><rect x="962.16" y="237.92000000000002" width="2.9440000000000004" height="4.6000000000000005" rx="1" fill="#ffb84d"/><rect x="966.76" y="234.24" width="2.9440000000000004" height="8.280000000000001" rx="1" fill="#ffb84d"/><rect x="971.36" y="238.84" width="2.9440000000000004" height="3.68" rx="1" fill="#ffb84d"/><rect x="975.9599999999999" y="232.4" width="2.9440000000000004" height="10.120000000000001" rx="1" fill="#ffb84d"/><rect x="1015.6" y="206.0" width="212.4" height="84.0" rx="14" fill="url(#gCard)" stroke="#302a60" stroke-width="1"/><text x="1033.6" y="234.0" font-family="-apple-system,BlinkMacSystemFont,'SF Pro Display','SF Pro Text','Segoe UI',Roboto,system-ui,sans-serif" font-size="11" font-weight="600" fill="#9a93c6" text-anchor="start">Tenants</text><text x="1033.6" y="268.0" font-family="-apple-system,BlinkMacSystemFont,'SF Pro Display','SF Pro Text','Segoe UI',Roboto,system-ui,sans-serif" font-size="27" font-weight="800" fill="#9fd8e8" text-anchor="start">2</text><text x="1033.6" y="286.0" font-family="-apple-system,BlinkMacSystemFont,'SF Pro Display','SF Pro Text','Segoe UI',Roboto,system-ui,sans-serif" font-size="9.5" font-weight="500" fill="#6a6399" text-anchor="start">isolated</text><rect x="1180.0" y="220.0" width="34.0" height="34.0" rx="11" fill="rgba(159,216,232,0.16)"/><circle cx="1193.32" cy="233.32" r="2.7600000000000002" fill="none" stroke="#9fd8e8" stroke-width="1.56" stroke-linecap="round" stroke-linejoin="round"/><circle cx="1200.68" cy="233.32" r="2.7600000000000002" fill="none" stroke="#9fd8e8" stroke-width="1.56" stroke-linecap="round" stroke-linejoin="round"/><path d="M1188.72 242.52 c0 -4.6000000000000005 5.5200000000000005 -4.6000000000000005 5.5200000000000005 0 M1196.08 242.52 c0 -4.6000000000000005 6.44 -4.6000000000000005 8.280000000000001 -0.92" fill="none" stroke="#9fd8e8" stroke-width="1.56" stroke-linecap="round" stroke-linejoin="round"/><rect x="268.0" y="428.0" width="960.0" height="340.0" rx="14" fill="url(#gCard)" stroke="#302a60" stroke-width="1"/><text x="286.0" y="455.0" font-family="-apple-system,BlinkMacSystemFont,'SF Pro Display','SF Pro Text','Segoe UI',Roboto,system-ui,sans-serif" font-size="12.5" font-weight="700" fill="#f2effc" text-anchor="start">System health</text><text x="1210.0" y="455.0" font-family="-apple-system,BlinkMacSystemFont,'SF Pro Display','SF Pro Text','Segoe UI',Roboto,system-ui,sans-serif" font-size="10" font-weight="600" fill="#6a6399" text-anchor="end">GET /health · continuous verify</text><rect x="286.0" y="472.0" width="215.0" height="276.0" rx="12" fill="rgba(255,255,255,0.03)" stroke="#302a60" stroke-width="1"/><circle cx="308.0" cy="500" r="6" fill="#7bc47f"/><text x="324.0" y="504.0" font-family="-apple-system,BlinkMacSystemFont,'SF Pro Display','SF Pro Text','Segoe UI',Roboto,system-ui,sans-serif" font-size="12.5" font-weight="700" fill="#f2effc" text-anchor="start">API</text><text x="302.0" y="528.0" font-family="-apple-system,BlinkMacSystemFont,'SF Pro Display','SF Pro Text','Segoe UI',Roboto,system-ui,sans-serif" font-size="10" font-weight="500" fill="#9a93c6" text-anchor="start">pdi.api</text><rect x="450.2" y="491.0" width="36.8" height="17.0" rx="8" fill="rgba(123,196,127,0.16)"/><text x="468.6" y="503.0" font-family="-apple-system,BlinkMacSystemFont,'SF Pro Display','SF Pro Text','Segoe UI',Roboto,system-ui,sans-serif" font-size="9.5" font-weight="700" fill="#7bc47f" text-anchor="middle" letter-spacing="0.4">live</text><text x="302.0" y="552.0" font-family="-apple-system,BlinkMacSystemFont,'SF Pro Display','SF Pro Text','Segoe UI',Roboto,system-ui,sans-serif" font-size="9.5" font-weight="500" fill="#6a6399" text-anchor="start">200 OK</text><rect x="517.0" y="472.0" width="215.0" height="276.0" rx="12" fill="rgba(255,255,255,0.03)" stroke="#302a60" stroke-width="1"/><circle cx="539.0" cy="500" r="6" fill="#7bc47f"/><text x="555.0" y="504.0" font-family="-apple-system,BlinkMacSystemFont,'SF Pro Display','SF Pro Text','Segoe UI',Roboto,system-ui,sans-serif" font-size="12.5" font-weight="700" fill="#f2effc" text-anchor="start">Vault store</text><text x="533.0" y="528.0" font-family="-apple-system,BlinkMacSystemFont,'SF Pro Display','SF Pro Text','Segoe UI',Roboto,system-ui,sans-serif" font-size="10" font-weight="500" fill="#9a93c6" text-anchor="start">AES-256-GCM</text><rect x="668.8" y="491.0" width="49.2" height="17.0" rx="8" fill="rgba(123,196,127,0.16)"/><text x="693.4" y="503.0" font-family="-apple-system,BlinkMacSystemFont,'SF Pro Display','SF Pro Text','Segoe UI',Roboto,system-ui,sans-serif" font-size="9.5" font-weight="700" fill="#7bc47f" text-anchor="middle" letter-spacing="0.4">sealed</text><text x="533.0" y="552.0" font-family="-apple-system,BlinkMacSystemFont,'SF Pro Display','SF Pro Text','Segoe UI',Roboto,system-ui,sans-serif" font-size="9.5" font-weight="500" fill="#6a6399" text-anchor="start">ciphertext only</text><rect x="748.0" y="472.0" width="215.0" height="276.0" rx="12" fill="rgba(255,255,255,0.03)" stroke="#302a60" stroke-width="1"/><circle cx="770.0" cy="500" r="6" fill="#7bc47f"/><text x="786.0" y="504.0" font-family="-apple-system,BlinkMacSystemFont,'SF Pro Display','SF Pro Text','Segoe UI',Roboto,system-ui,sans-serif" font-size="12.5" font-weight="700" fill="#f2effc" text-anchor="start">Audit chain</text><text x="764.0" y="528.0" font-family="-apple-system,BlinkMacSystemFont,'SF Pro Display','SF Pro Text','Segoe UI',Roboto,system-ui,sans-serif" font-size="10" font-weight="500" fill="#9a93c6" text-anchor="start">hash-chain</text><rect x="899.8" y="491.0" width="49.2" height="17.0" rx="8" fill="rgba(123,196,127,0.16)"/><text x="924.4" y="503.0" font-family="-apple-system,BlinkMacSystemFont,'SF Pro Display','SF Pro Text','Segoe UI',Roboto,system-ui,sans-serif" font-size="9.5" font-weight="700" fill="#7bc47f" text-anchor="middle" letter-spacing="0.4">intact</text><text x="764.0" y="552.0" font-family="-apple-system,BlinkMacSystemFont,'SF Pro Display','SF Pro Text','Segoe UI',Roboto,system-ui,sans-serif" font-size="9.5" font-weight="500" fill="#6a6399" text-anchor="start">1,845 verified</text><rect x="979.0" y="472.0" width="215.0" height="276.0" rx="12" fill="rgba(255,255,255,0.03)" stroke="#302a60" stroke-width="1"/><circle cx="1001.0" cy="500" r="6" fill="#7bc47f"/><text x="1017.0" y="504.0" font-family="-apple-system,BlinkMacSystemFont,'SF Pro Display','SF Pro Text','Segoe UI',Roboto,system-ui,sans-serif" font-size="12.5" font-weight="700" fill="#f2effc" text-anchor="start">Snapshot</text><text x="995.0" y="528.0" font-family="-apple-system,BlinkMacSystemFont,'SF Pro Display','SF Pro Text','Segoe UI',Roboto,system-ui,sans-serif" font-size="10" font-weight="500" fill="#9a93c6" text-anchor="start">DR export</text><rect x="1137.0" y="491.0" width="43.0" height="17.0" rx="8" fill="rgba(123,196,127,0.16)"/><text x="1158.5" y="503.0" font-family="-apple-system,BlinkMacSystemFont,'SF Pro Display','SF Pro Text','Segoe UI',Roboto,system-ui,sans-serif" font-size="9.5" font-weight="700" fill="#7bc47f" text-anchor="middle" letter-spacing="0.4">ready</text><text x="995.0" y="552.0" font-family="-apple-system,BlinkMacSystemFont,'SF Pro Display','SF Pro Text','Segoe UI',Roboto,system-ui,sans-serif" font-size="9.5" font-weight="500" fill="#6a6399" text-anchor="start">ciphertext only</text></svg>