<svg xmlns="http://www.w3.org/2000/svg" width="1280" height="820" viewBox="0 0 1280 820" role="img" aria-label="PDI console — Tenants &amp; Access"><defs>
      <linearGradient id="gPage" x1="0" y1="0" x2="0.4" y2="1">
        <stop offset="0" stop-color="#0d0a20"/><stop offset="1" stop-color="#080614"/></linearGradient>
      <linearGradient id="gScr" x1="0" y1="0" x2="0.5" y2="1">
        <stop offset="0" stop-color="#181235"/><stop offset="1" stop-color="#0c0920"/></linearGradient>
      <linearGradient id="gSide" x1="0" y1="0" x2="0" y2="1">
        <stop offset="0" stop-color="#161038"/><stop offset="1" stop-color="#0e0a26"/></linearGradient>
      <linearGradient id="gCard" x1="0" y1="0" x2="0.4" y2="1">
        <stop offset="0" stop-color="#201a48"/><stop offset="1" stop-color="#181240"/></linearGradient>
      <linearGradient id="gBrand" x1="0" y1="0" x2="1" y2="0">
        <stop offset="0" stop-color="#38bdf8"/><stop offset="1" stop-color="#7dd3fc"/></linearGradient>
      <linearGradient id="gAmber" x1="0" y1="0" x2="1" y2="0">
        <stop offset="0" stop-color="#ffb84d"/><stop offset="1" stop-color="#ffd27a"/></linearGradient>
      <linearGradient id="mG" x1="0" y1="0" x2="1" y2="0"><stop offset="0" stop-color="#5fb87a"/><stop offset="1" stop-color="#7bc47f"/></linearGradient>
      <linearGradient id="mC" x1="0" y1="0" x2="1" y2="0"><stop offset="0" stop-color="#6bb6d6"/><stop offset="1" stop-color="#9fd8e8"/></linearGradient>
      <radialGradient id="orb" cx="36%" cy="30%" r="78%">
        <stop offset="0" stop-color="#cbeeff"/><stop offset="38%" stop-color="#38bdf8"/>
        <stop offset="78%" stop-color="#1f6fb2"/><stop offset="100%" stop-color="#0b2438"/></radialGradient>
    </defs><rect x="0.0" y="0.0" width="1280.0" height="820.0" rx="0" fill="url(#gPage)"/><rect x="24" y="24" width="1232" height="772" rx="10" fill="url(#gScr)" stroke="#302a60" stroke-width="1"/><rect x="24.0" y="24.0" width="216.0" height="772.0" rx="18" fill="url(#gSide)"/><rect x="222.0" y="24.0" width="18.0" height="772.0" rx="0" fill="url(#gScr)"/><line x1="240" y1="24" x2="240" y2="796" stroke="#302a60" stroke-width="1"/><line x1="240" y1="78" x2="1256" y2="78" stroke="#302a60" stroke-width="1"/><line x1="1164" y1="52" x2="1175" y2="52" stroke="#9a93c6" stroke-width="1.3"/><rect x="1193.0" y="46.0" width="11.0" height="11.0" rx="1.5" fill="none" stroke="#9a93c6" stroke-width="1.3"/><path d="M1223 46 l11 11 M1234 46 l-11 11" stroke="#9a93c6" stroke-width="1.3" stroke-linecap="round"/><circle cx="120" cy="51" r="11" fill="url(#orb)"/><rect x="116.4" y="49.8" width="7.199999999999999" height="5.3999999999999995" rx="2" fill="none" stroke="rgba(255,255,255,0.95)" stroke-width="1.02" stroke-linecap="round" stroke-linejoin="round"/><path d="M117.9 49.8 v-1.7999999999999998 a2.1 2.1 0 0 1 4.2 0 v1.7999999999999998" fill="none" stroke="rgba(255,255,255,0.95)" stroke-width="1.02" stroke-linecap="round" stroke-linejoin="round"/><circle cx="120" cy="52.5" r="0.72" fill="rgba(255,255,255,0.95)"/><text x="138.0" y="49.0" font-family="-apple-system,BlinkMacSystemFont,'SF Pro Display','SF Pro Text','Segoe UI',Roboto,system-ui,sans-serif" font-size="14" font-weight="800" fill="#f2effc" text-anchor="start" letter-spacing="0.5">PDI</text><text x="138.0" y="63.0" font-family="-apple-system,BlinkMacSystemFont,'SF Pro Display','SF Pro Text','Segoe UI',Roboto,system-ui,sans-serif" font-size="8.5" font-weight="500" fill="#6a6399" text-anchor="start">Private Data Infrastructure</text><text x="268.0" y="57.0" font-family="-apple-system,BlinkMacSystemFont,'SF Pro Display','SF Pro Text','Segoe UI',Roboto,system-ui,sans-serif" font-size="15" font-weight="700" fill="#f2effc" text-anchor="start" letter-spacing="-0.2">Tenants &amp; Access</text><rect x="1134.96" y="43.8" width="2.08" height="3.2" rx="1" transform="rotate(0 1136 51)" fill="#9a93c6"/><rect x="1134.96" y="43.8" width="2.08" height="3.2" rx="1" transform="rotate(45 1136 51)" fill="#9a93c6"/><rect x="1134.96" y="43.8" width="2.08" height="3.2" rx="1" transform="rotate(90 1136 51)" fill="#9a93c6"/><rect x="1134.96" y="43.8" width="2.08" height="3.2" rx="1" transform="rotate(135 1136 51)" fill="#9a93c6"/><rect x="1134.96" y="43.8" width="2.08" height="3.2" rx="1" transform="rotate(180 1136 51)" fill="#9a93c6"/><rect x="1134.96" y="43.8" width="2.08" height="3.2" rx="1" transform="rotate(225 1136 51)" fill="#9a93c6"/><rect x="1134.96" y="43.8" width="2.08" height="3.2" rx="1" transform="rotate(270 1136 51)" fill="#9a93c6"/><rect x="1134.96" y="43.8" width="2.08" height="3.2" rx="1" transform="rotate(315 1136 51)" fill="#9a93c6"/><circle cx="1136" cy="51" r="3.6799999999999997" fill="none" stroke="#9a93c6" stroke-width="1.36" stroke-linecap="round" stroke-linejoin="round"/><rect x="1026.0" y="46.0" width="86.0" height="16.0" rx="8" fill="rgba(123,196,127,0.14)"/><circle cx="1035.0" cy="54" r="3" fill="#7bc47f"/><text x="1042.0" y="58.0" font-family="-apple-system,BlinkMacSystemFont,'SF Pro Display','SF Pro Text','Segoe UI',Roboto,system-ui,sans-serif" font-size="9" font-weight="700" fill="#7bc47f" text-anchor="start" letter-spacing="0.5">Vault online</text><rect x="834.0" y="40.0" width="150.0" height="24.0" rx="8" fill="rgba(255,255,255,0.05)" stroke="#302a60" stroke-width="1"/><circle cx="847.6" cy="49.6" r="1.7999999999999998" fill="none" stroke="#38bdf8" stroke-width="1.02" stroke-linecap="round" stroke-linejoin="round"/><circle cx="852.4" cy="49.6" r="1.7999999999999998" fill="none" stroke="#38bdf8" stroke-width="1.02" stroke-linecap="round" stroke-linejoin="round"/><path d="M844.6 55.6 c0 -3.0 3.5999999999999996 -3.0 3.5999999999999996 0 M849.4 55.6 c0 -3.0 4.2 -3.0 5.3999999999999995 -0.6" fill="none" stroke="#38bdf8" stroke-width="1.02" stroke-linecap="round" stroke-linejoin="round"/><text x="862.0" y="55.0" font-family="-apple-system,BlinkMacSystemFont,'SF Pro Display','SF Pro Text','Segoe UI',Roboto,system-ui,sans-serif" font-size="10.5" font-weight="600" fill="#f2effc" text-anchor="start">All tenants</text><text x="958.0" y="55.0" font-family="-apple-system,BlinkMacSystemFont,'SF Pro Display','SF Pro Text','Segoe UI',Roboto,system-ui,sans-serif" font-size="9" font-weight="600" fill="#6a6399" text-anchor="end">▾</text><rect x="52.96" y="105.96" width="4.32" height="4.32" rx="1.4" fill="none" stroke="#9a93c6" stroke-width="1.22" stroke-linecap="round" stroke-linejoin="round"/><rect x="58.72" y="105.96" width="4.32" height="4.32" rx="1.4" fill="none" stroke="#9a93c6" stroke-width="1.22" stroke-linecap="round" stroke-linejoin="round"/><rect x="52.96" y="111.72" width="4.32" height="4.32" rx="1.4" fill="none" stroke="#9a93c6" stroke-width="1.22" stroke-linecap="round" stroke-linejoin="round"/><rect x="58.72" y="111.72" width="4.32" height="4.32" rx="1.4" fill="none" stroke="#9a93c6" stroke-width="1.22" stroke-linecap="round" stroke-linejoin="round"/><text x="78.0" y="116.0" font-family="-apple-system,BlinkMacSystemFont,'SF Pro Display','SF Pro Text','Segoe UI',Roboto,system-ui,sans-serif" font-size="12.5" font-weight="500" fill="#9a93c6" text-anchor="start">Overview</text><rect x="53.68" y="155.56" width="8.64" height="6.4799999999999995" rx="2" fill="none" stroke="#9a93c6" stroke-width="1.22" stroke-linecap="round" stroke-linejoin="round"/><path d="M55.48 155.56 v-2.16 a2.52 2.52 0 0 1 5.04 0 v2.16" fill="none" stroke="#9a93c6" stroke-width="1.22" stroke-linecap="round" stroke-linejoin="round"/><circle cx="58" cy="158.8" r="0.864" fill="#9a93c6"/><text x="78.0" y="162.0" font-family="-apple-system,BlinkMacSystemFont,'SF Pro Display','SF Pro Text','Segoe UI',Roboto,system-ui,sans-serif" font-size="12.5" font-weight="500" fill="#9a93c6" text-anchor="start">Vault</text><rect x="36.0" y="184.0" width="192.0" height="38.0" rx="10" fill="rgba(56,189,248,0.14)"/><rect x="36.0" y="184.0" width="3.0" height="38.0" rx="2" fill="#38bdf8"/><circle cx="55.12" cy="200.12" r="2.16" fill="none" stroke="#38bdf8" stroke-width="1.22" stroke-linecap="round" stroke-linejoin="round"/><circle cx="60.88" cy="200.12" r="2.16" fill="none" stroke="#38bdf8" stroke-width="1.22" stroke-linecap="round" stroke-linejoin="round"/><path d="M51.52 207.32 c0 -3.5999999999999996 4.32 -3.5999999999999996 4.32 0 M57.28 207.32 c0 -3.5999999999999996 5.04 -3.5999999999999996 6.4799999999999995 -0.72" fill="none" stroke="#38bdf8" stroke-width="1.22" stroke-linecap="round" stroke-linejoin="round"/><text x="78.0" y="208.0" font-family="-apple-system,BlinkMacSystemFont,'SF Pro Display','SF Pro Text','Segoe UI',Roboto,system-ui,sans-serif" font-size="12.5" font-weight="650" fill="#f2effc" text-anchor="start">Tenants</text><path d="M58 243.24 l5.04 2.16 v3.5999999999999996 c0 3.5999999999999996 -2.16 5.04 -5.04 6.4799999999999995 c-2.88 -1.44 -5.04 -2.88 -5.04 -6.4799999999999995 v-3.5999999999999996 Z" fill="none" stroke="#9a93c6" stroke-width="1.22" stroke-linecap="round" stroke-linejoin="round"/><path d="M55.84 249 l1.44 1.728 2.88 -3.2399999999999998" fill="none" stroke="#9a93c6" stroke-width="1.22" stroke-linecap="round" stroke-linejoin="round"/><text x="78.0" y="254.0" font-family="-apple-system,BlinkMacSystemFont,'SF Pro Display','SF Pro Text','Segoe UI',Roboto,system-ui,sans-serif" font-size="12.5" font-weight="500" fill="#9a93c6" text-anchor="start">Audit</text><path d="M53.68 296.44 c0 -5.04 2.16 -6.4799999999999995 4.32 -6.4799999999999995 c2.16 0 4.32 1.44 4.32 5.04" fill="none" stroke="#9a93c6" stroke-width="1.22" stroke-linecap="round" stroke-linejoin="round"/><path d="M55.84 297.88 c0 -4.32 1.44 -5.04 2.16 -5.04 c1.44 0 2.16 1.44 2.16 3.5999999999999996" fill="none" stroke="#9a93c6" stroke-width="1.22" stroke-linecap="round" stroke-linejoin="round"/><path d="M58 299.32 v-4.32" fill="none" stroke="#9a93c6" stroke-width="1.22" stroke-linecap="round" stroke-linejoin="round"/><text x="78.0" y="300.0" font-family="-apple-system,BlinkMacSystemFont,'SF Pro Display','SF Pro Text','Segoe UI',Roboto,system-ui,sans-serif" font-size="12.5" font-weight="500" fill="#9a93c6" text-anchor="start">Encryption</text><rect x="53.68" y="335.24" width="8.64" height="11.52" rx="1.5" fill="none" stroke="#9a93c6" stroke-width="1.22" stroke-linecap="round" stroke-linejoin="round"/><rect x="55.12" y="337.4" width="1.44" height="1.44" rx="0.4" fill="#9a93c6"/><rect x="57.28" y="337.4" width="1.44" height="1.44" rx="0.4" fill="#9a93c6"/><rect x="59.44" y="337.4" width="1.44" height="1.44" rx="0.4" fill="#9a93c6"/><rect x="55.12" y="339.84799999999996" width="1.44" height="1.44" rx="0.4" fill="#9a93c6"/><rect x="57.28" y="339.84799999999996" width="1.44" height="1.44" rx="0.4" fill="#9a93c6"/><rect x="59.44" y="339.84799999999996" width="1.44" height="1.44" rx="0.4" fill="#9a93c6"/><rect x="55.12" y="342.296" width="1.44" height="1.44" rx="0.4" fill="#9a93c6"/><rect x="57.28" y="342.296" width="1.44" height="1.44" rx="0.4" fill="#9a93c6"/><rect x="59.44" y="342.296" width="1.44" height="1.44" rx="0.4" fill="#9a93c6"/><text x="78.0" y="346.0" font-family="-apple-system,BlinkMacSystemFont,'SF Pro Display','SF Pro Text','Segoe UI',Roboto,system-ui,sans-serif" font-size="12.5" font-weight="500" fill="#9a93c6" text-anchor="start">Deployment</text><rect x="52.96" y="387.71999999999997" width="2.304" height="3.5999999999999996" rx="1" fill="#9a93c6"/><rect x="56.56" y="384.84" width="2.304" height="6.4799999999999995" rx="1" fill="#9a93c6"/><rect x="60.16" y="388.44" width="2.304" height="2.88" rx="1" fill="#9a93c6"/><rect x="63.76" y="383.4" width="2.304" height="7.92" rx="1" fill="#9a93c6"/><text x="78.0" y="392.0" font-family="-apple-system,BlinkMacSystemFont,'SF Pro Display','SF Pro Text','Segoe UI',Roboto,system-ui,sans-serif" font-size="12.5" font-weight="500" fill="#9a93c6" text-anchor="start">Health</text><rect x="57.064" y="426.52" width="1.8719999999999999" height="2.88" rx="1" transform="rotate(0 58 433)" fill="#9a93c6"/><rect x="57.064" y="426.52" width="1.8719999999999999" height="2.88" rx="1" transform="rotate(45 58 433)" fill="#9a93c6"/><rect x="57.064" y="426.52" width="1.8719999999999999" height="2.88" rx="1" transform="rotate(90 58 433)" fill="#9a93c6"/><rect x="57.064" y="426.52" width="1.8719999999999999" height="2.88" rx="1" transform="rotate(135 58 433)" fill="#9a93c6"/><rect x="57.064" y="426.52" width="1.8719999999999999" height="2.88" rx="1" transform="rotate(180 58 433)" fill="#9a93c6"/><rect x="57.064" y="426.52" width="1.8719999999999999" height="2.88" rx="1" transform="rotate(225 58 433)" fill="#9a93c6"/><rect x="57.064" y="426.52" width="1.8719999999999999" height="2.88" rx="1" transform="rotate(270 58 433)" fill="#9a93c6"/><rect x="57.064" y="426.52" width="1.8719999999999999" height="2.88" rx="1" transform="rotate(315 58 433)" fill="#9a93c6"/><circle cx="58" cy="433" r="3.312" fill="none" stroke="#9a93c6" stroke-width="1.22" stroke-linecap="round" stroke-linejoin="round"/><text x="78.0" y="438.0" font-family="-apple-system,BlinkMacSystemFont,'SF Pro Display','SF Pro Text','Segoe UI',Roboto,system-ui,sans-serif" font-size="12.5" font-weight="500" fill="#9a93c6" text-anchor="start">Settings</text><line x1="40" y1="726" x2="224" y2="726" stroke="#302a60" stroke-width="1"/><rect x="40.0" y="740.0" width="184.0" height="40.0" rx="10" fill="rgba(255,255,255,0.04)" stroke="#302a60" stroke-width="1"/><path d="M58 754.72 l4.62 1.98 v3.3000000000000003 c0 3.3000000000000003 -1.98 4.62 -4.62 5.94 c-2.64 -1.32 -4.62 -2.64 -4.62 -5.94 v-3.3000000000000003 Z" fill="none" stroke="#7bc47f" stroke-width="1.12" stroke-linecap="round" stroke-linejoin="round"/><path d="M56.02 760 l1.32 1.584 2.64 -2.97" fill="none" stroke="#7bc47f" stroke-width="1.12" stroke-linecap="round" stroke-linejoin="round"/><text x="76.0" y="756.0" font-family="-apple-system,BlinkMacSystemFont,'SF Pro Display','SF Pro Text','Segoe UI',Roboto,system-ui,sans-serif" font-size="10.5" font-weight="650" fill="#f2effc" text-anchor="start">Chain intact</text><text x="76.0" y="769.0" font-family="-apple-system,BlinkMacSystemFont,'SF Pro Display','SF Pro Text','Segoe UI',Roboto,system-ui,sans-serif" font-size="8.5" font-weight="500" fill="#6a6399" text-anchor="start">on-prem · Tier III+</text><marker id="ah" markerWidth="8" markerHeight="8" refX="6" refY="3" orient="auto"><path d="M0 0 L6 3 L0 6 Z" fill="#6a6399"/></marker><rect x="268.0" y="106.0" width="470.0" height="128.0" rx="14" fill="url(#gCard)" stroke="#302a60" stroke-width="1"/><circle cx="310.0" cy="150" r="20" fill="rgba(56,189,248,0.18)" stroke="#38bdf8" stroke-width="1.4"/><circle cx="306.0" cy="146.0" r="3.0" fill="none" stroke="#38bdf8" stroke-width="1.70" stroke-linecap="round" stroke-linejoin="round"/><circle cx="314.0" cy="146.0" r="3.0" fill="none" stroke="#38bdf8" stroke-width="1.70" stroke-linecap="round" stroke-linejoin="round"/><path d="M301.0 156.0 c0 -5.0 6.0 -5.0 6.0 0 M309.0 156.0 c0 -5.0 7.0 -5.0 9.0 -1.0" fill="none" stroke="#38bdf8" stroke-width="1.70" stroke-linecap="round" stroke-linejoin="round"/><text x="342.0" y="146.0" font-family="-apple-system,BlinkMacSystemFont,'SF Pro Display','SF Pro Text','Segoe UI',Roboto,system-ui,sans-serif" font-size="15" font-weight="750" fill="#f2effc" text-anchor="start">qrme</text><text x="342.0" y="163.0" font-family="-apple-system,BlinkMacSystemFont,'SF Pro Display','SF Pro Text','Segoe UI',Roboto,system-ui,sans-serif" font-size="10" font-weight="500" fill="#9a93c6" text-anchor="start">AI synthetic profiles</text><rect x="670.0" y="141.0" width="50.0" height="16.0" rx="8" fill="rgba(123,196,127,0.14)"/><circle cx="679.0" cy="149" r="3" fill="#7bc47f"/><text x="686.0" y="153.0" font-family="-apple-system,BlinkMacSystemFont,'SF Pro Display','SF Pro Text','Segoe UI',Roboto,system-ui,sans-serif" font-size="9" font-weight="700" fill="#7bc47f" text-anchor="start" letter-spacing="0.5">ACTIVE</text><text x="292.0" y="198.0" font-family="-apple-system,BlinkMacSystemFont,'SF Pro Display','SF Pro Text','Segoe UI',Roboto,system-ui,sans-serif" font-size="18" font-weight="800" fill="#38bdf8" text-anchor="start">1,204</text><text x="292.0" y="216.0" font-family="-apple-system,BlinkMacSystemFont,'SF Pro Display','SF Pro Text','Segoe UI',Roboto,system-ui,sans-serif" font-size="9.5" font-weight="600" fill="#6a6399" text-anchor="start" letter-spacing="0.3">Records</text><text x="432.7" y="198.0" font-family="-apple-system,BlinkMacSystemFont,'SF Pro Display','SF Pro Text','Segoe UI',Roboto,system-ui,sans-serif" font-size="18" font-weight="800" fill="#38bdf8" text-anchor="start">3</text><text x="432.7" y="216.0" font-family="-apple-system,BlinkMacSystemFont,'SF Pro Display','SF Pro Text','Segoe UI',Roboto,system-ui,sans-serif" font-size="9.5" font-weight="600" fill="#6a6399" text-anchor="start" letter-spacing="0.3">Tokens</text><text x="573.3" y="198.0" font-family="-apple-system,BlinkMacSystemFont,'SF Pro Display','SF Pro Text','Segoe UI',Roboto,system-ui,sans-serif" font-size="18" font-weight="800" fill="#38bdf8" text-anchor="start">AAD</text><text x="573.3" y="216.0" font-family="-apple-system,BlinkMacSystemFont,'SF Pro Display','SF Pro Text','Segoe UI',Roboto,system-ui,sans-serif" font-size="9.5" font-weight="600" fill="#6a6399" text-anchor="start" letter-spacing="0.3">Isolation</text><rect x="758.0" y="106.0" width="470.0" height="128.0" rx="14" fill="url(#gCard)" stroke="#302a60" stroke-width="1"/><circle cx="800.0" cy="150" r="20" fill="rgba(159,216,232,0.18)" stroke="#9fd8e8" stroke-width="1.4"/><circle cx="796.0" cy="146.0" r="3.0" fill="none" stroke="#9fd8e8" stroke-width="1.70" stroke-linecap="round" stroke-linejoin="round"/><circle cx="804.0" cy="146.0" r="3.0" fill="none" stroke="#9fd8e8" stroke-width="1.70" stroke-linecap="round" stroke-linejoin="round"/><path d="M791.0 156.0 c0 -5.0 6.0 -5.0 6.0 0 M799.0 156.0 c0 -5.0 7.0 -5.0 9.0 -1.0" fill="none" stroke="#9fd8e8" stroke-width="1.70" stroke-linecap="round" stroke-linejoin="round"/><text x="832.0" y="146.0" font-family="-apple-system,BlinkMacSystemFont,'SF Pro Display','SF Pro Text','Segoe UI',Roboto,system-ui,sans-serif" font-size="15" font-weight="750" fill="#f2effc" text-anchor="start">jim-mini</text><text x="832.0" y="163.0" font-family="-apple-system,BlinkMacSystemFont,'SF Pro Display','SF Pro Text','Segoe UI',Roboto,system-ui,sans-serif" font-size="10" font-weight="500" fill="#9a93c6" text-anchor="start">Guardian personal guidance</text><rect x="1160.0" y="141.0" width="50.0" height="16.0" rx="8" fill="rgba(123,196,127,0.14)"/><circle cx="1169.0" cy="149" r="3" fill="#7bc47f"/><text x="1176.0" y="153.0" font-family="-apple-system,BlinkMacSystemFont,'SF Pro Display','SF Pro Text','Segoe UI',Roboto,system-ui,sans-serif" font-size="9" font-weight="700" fill="#7bc47f" text-anchor="start" letter-spacing="0.5">ACTIVE</text><text x="782.0" y="198.0" font-family="-apple-system,BlinkMacSystemFont,'SF Pro Display','SF Pro Text','Segoe UI',Roboto,system-ui,sans-serif" font-size="18" font-weight="800" fill="#9fd8e8" text-anchor="start">638</text><text x="782.0" y="216.0" font-family="-apple-system,BlinkMacSystemFont,'SF Pro Display','SF Pro Text','Segoe UI',Roboto,system-ui,sans-serif" font-size="9.5" font-weight="600" fill="#6a6399" text-anchor="start" letter-spacing="0.3">Records</text><text x="922.7" y="198.0" font-family="-apple-system,BlinkMacSystemFont,'SF Pro Display','SF Pro Text','Segoe UI',Roboto,system-ui,sans-serif" font-size="18" font-weight="800" fill="#9fd8e8" text-anchor="start">2</text><text x="922.7" y="216.0" font-family="-apple-system,BlinkMacSystemFont,'SF Pro Display','SF Pro Text','Segoe UI',Roboto,system-ui,sans-serif" font-size="9.5" font-weight="600" fill="#6a6399" text-anchor="start" letter-spacing="0.3">Tokens</text><text x="1063.3" y="198.0" font-family="-apple-system,BlinkMacSystemFont,'SF Pro Display','SF Pro Text','Segoe UI',Roboto,system-ui,sans-serif" font-size="18" font-weight="800" fill="#9fd8e8" text-anchor="start">AAD</text><text x="1063.3" y="216.0" font-family="-apple-system,BlinkMacSystemFont,'SF Pro Display','SF Pro Text','Segoe UI',Roboto,system-ui,sans-serif" font-size="9.5" font-weight="600" fill="#6a6399" text-anchor="start" letter-spacing="0.3">Isolation</text><rect x="268.0" y="256.0" width="960.0" height="512.0" rx="14" fill="url(#gCard)" stroke="#302a60" stroke-width="1"/><text x="286.0" y="283.0" font-family="-apple-system,BlinkMacSystemFont,'SF Pro Display','SF Pro Text','Segoe UI',Roboto,system-ui,sans-serif" font-size="12.5" font-weight="700" fill="#f2effc" text-anchor="start">Access tokens</text><text x="1210.0" y="283.0" font-family="-apple-system,BlinkMacSystemFont,'SF Pro Display','SF Pro Text','Segoe UI',Roboto,system-ui,sans-serif" font-size="10" font-weight="600" fill="#6a6399" text-anchor="end">hashed at rest · shown once at issuance</text><text x="296.0" y="314.0" font-family="-apple-system,BlinkMacSystemFont,'SF Pro Display','SF Pro Text','Segoe UI',Roboto,system-ui,sans-serif" font-size="9.5" font-weight="700" fill="#6a6399" text-anchor="start" letter-spacing="0.4">TOKEN</text><text x="554.7" y="314.0" font-family="-apple-system,BlinkMacSystemFont,'SF Pro Display','SF Pro Text','Segoe UI',Roboto,system-ui,sans-serif" font-size="9.5" font-weight="700" fill="#6a6399" text-anchor="start" letter-spacing="0.4">TENANT</text><text x="702.6" y="314.0" font-family="-apple-system,BlinkMacSystemFont,'SF Pro Display','SF Pro Text','Segoe UI',Roboto,system-ui,sans-serif" font-size="9.5" font-weight="700" fill="#6a6399" text-anchor="start" letter-spacing="0.4">SCOPE</text><text x="813.4" y="314.0" font-family="-apple-system,BlinkMacSystemFont,'SF Pro Display','SF Pro Text','Segoe UI',Roboto,system-ui,sans-serif" font-size="9.5" font-weight="700" fill="#6a6399" text-anchor="start" letter-spacing="0.4">CREATED</text><text x="961.3" y="314.0" font-family="-apple-system,BlinkMacSystemFont,'SF Pro Display','SF Pro Text','Segoe UI',Roboto,system-ui,sans-serif" font-size="9.5" font-weight="700" fill="#6a6399" text-anchor="start" letter-spacing="0.4">LAST USED</text><text x="1200.0" y="314.0" font-family="-apple-system,BlinkMacSystemFont,'SF Pro Display','SF Pro Text','Segoe UI',Roboto,system-ui,sans-serif" font-size="9.5" font-weight="700" fill="#6a6399" text-anchor="end" letter-spacing="0.4">STATUS</text><line x1="286" y1="324" x2="1210" y2="324" stroke="#302a60" stroke-width="1"/><text x="296.0" y="348.0" font-family="-apple-system,BlinkMacSystemFont,'SF Pro Display','SF Pro Text','Segoe UI',Roboto,system-ui,sans-serif" font-size="10.5" font-weight="600" fill="#9fd8e8" text-anchor="start">pdi_live_k7Q2••••3f9a</text><text x="554.7" y="348.0" font-family="-apple-system,BlinkMacSystemFont,'SF Pro Display','SF Pro Text','Segoe UI',Roboto,system-ui,sans-serif" font-size="10.5" font-weight="500" fill="#f2effc" text-anchor="start">qrme</text><text x="702.6" y="348.0" font-family="-apple-system,BlinkMacSystemFont,'SF Pro Display','SF Pro Text','Segoe UI',Roboto,system-ui,sans-serif" font-size="10.5" font-weight="700" fill="#ffb84d" text-anchor="start">write</text><text x="813.4" y="348.0" font-family="-apple-system,BlinkMacSystemFont,'SF Pro Display','SF Pro Text','Segoe UI',Roboto,system-ui,sans-serif" font-size="10.5" font-weight="500" fill="#f2effc" text-anchor="start">2026-01-04</text><text x="961.3" y="348.0" font-family="-apple-system,BlinkMacSystemFont,'SF Pro Display','SF Pro Text','Segoe UI',Roboto,system-ui,sans-serif" font-size="10.5" font-weight="500" fill="#9a93c6" text-anchor="start">10:02</text><text x="1200.0" y="348.0" font-family="-apple-system,BlinkMacSystemFont,'SF Pro Display','SF Pro Text','Segoe UI',Roboto,system-ui,sans-serif" font-size="10.5" font-weight="600" fill="#7bc47f" text-anchor="end">active</text><line x1="286" y1="362" x2="1210" y2="362" stroke="rgba(48,42,96,0.45)" stroke-width="1"/><text x="296.0" y="386.0" font-family="-apple-system,BlinkMacSystemFont,'SF Pro Display','SF Pro Text','Segoe UI',Roboto,system-ui,sans-serif" font-size="10.5" font-weight="600" fill="#9fd8e8" text-anchor="start">pdi_live_m2X9••••b1c8</text><text x="554.7" y="386.0" font-family="-apple-system,BlinkMacSystemFont,'SF Pro Display','SF Pro Text','Segoe UI',Roboto,system-ui,sans-serif" font-size="10.5" font-weight="500" fill="#f2effc" text-anchor="start">qrme</text><text x="702.6" y="386.0" font-family="-apple-system,BlinkMacSystemFont,'SF Pro Display','SF Pro Text','Segoe UI',Roboto,system-ui,sans-serif" font-size="10.5" font-weight="700" fill="#7bc47f" text-anchor="start">read</text><text x="813.4" y="386.0" font-family="-apple-system,BlinkMacSystemFont,'SF Pro Display','SF Pro Text','Segoe UI',Roboto,system-ui,sans-serif" font-size="10.5" font-weight="500" fill="#f2effc" text-anchor="start">2026-02-11</text><text x="961.3" y="386.0" font-family="-apple-system,BlinkMacSystemFont,'SF Pro Display','SF Pro Text','Segoe UI',Roboto,system-ui,sans-serif" font-size="10.5" font-weight="500" fill="#9a93c6" text-anchor="start">10:01</text><text x="1200.0" y="386.0" font-family="-apple-system,BlinkMacSystemFont,'SF Pro Display','SF Pro Text','Segoe UI',Roboto,system-ui,sans-serif" font-size="10.5" font-weight="600" fill="#7bc47f" text-anchor="end">active</text><line x1="286" y1="400" x2="1210" y2="400" stroke="rgba(48,42,96,0.45)" stroke-width="1"/><text x="296.0" y="424.0" font-family="-apple-system,BlinkMacSystemFont,'SF Pro Display','SF Pro Text','Segoe UI',Roboto,system-ui,sans-serif" font-size="10.5" font-weight="600" fill="#9fd8e8" text-anchor="start">pdi_live_p5R7••••9d0e</text><text x="554.7" y="424.0" font-family="-apple-system,BlinkMacSystemFont,'SF Pro Display','SF Pro Text','Segoe UI',Roboto,system-ui,sans-serif" font-size="10.5" font-weight="500" fill="#f2effc" text-anchor="start">jim-mini</text><text x="702.6" y="424.0" font-family="-apple-system,BlinkMacSystemFont,'SF Pro Display','SF Pro Text','Segoe UI',Roboto,system-ui,sans-serif" font-size="10.5" font-weight="700" fill="#ffb84d" text-anchor="start">write</text><text x="813.4" y="424.0" font-family="-apple-system,BlinkMacSystemFont,'SF Pro Display','SF Pro Text','Segoe UI',Roboto,system-ui,sans-serif" font-size="10.5" font-weight="500" fill="#f2effc" text-anchor="start">2026-01-04</text><text x="961.3" y="424.0" font-family="-apple-system,BlinkMacSystemFont,'SF Pro Display','SF Pro Text','Segoe UI',Roboto,system-ui,sans-serif" font-size="10.5" font-weight="500" fill="#9a93c6" text-anchor="start">09:55</text><text x="1200.0" y="424.0" font-family="-apple-system,BlinkMacSystemFont,'SF Pro Display','SF Pro Text','Segoe UI',Roboto,system-ui,sans-serif" font-size="10.5" font-weight="600" fill="#7bc47f" text-anchor="end">active</text><line x1="286" y1="438" x2="1210" y2="438" stroke="rgba(48,42,96,0.45)" stroke-width="1"/><text x="296.0" y="462.0" font-family="-apple-system,BlinkMacSystemFont,'SF Pro Display','SF Pro Text','Segoe UI',Roboto,system-ui,sans-serif" font-size="10.5" font-weight="600" fill="#9fd8e8" text-anchor="start">pdi_live_t8W1••••4a6f</text><text x="554.7" y="462.0" font-family="-apple-system,BlinkMacSystemFont,'SF Pro Display','SF Pro Text','Segoe UI',Roboto,system-ui,sans-serif" font-size="10.5" font-weight="500" fill="#f2effc" text-anchor="start">jim-mini</text><text x="702.6" y="462.0" font-family="-apple-system,BlinkMacSystemFont,'SF Pro Display','SF Pro Text','Segoe UI',Roboto,system-ui,sans-serif" font-size="10.5" font-weight="700" fill="#7bc47f" text-anchor="start">read</text><text x="813.4" y="462.0" font-family="-apple-system,BlinkMacSystemFont,'SF Pro Display','SF Pro Text','Segoe UI',Roboto,system-ui,sans-serif" font-size="10.5" font-weight="500" fill="#f2effc" text-anchor="start">2026-03-20</text><text x="961.3" y="462.0" font-family="-apple-system,BlinkMacSystemFont,'SF Pro Display','SF Pro Text','Segoe UI',Roboto,system-ui,sans-serif" font-size="10.5" font-weight="500" fill="#9a93c6" text-anchor="start">08:50</text><text x="1200.0" y="462.0" font-family="-apple-system,BlinkMacSystemFont,'SF Pro Display','SF Pro Text','Segoe UI',Roboto,system-ui,sans-serif" font-size="10.5" font-weight="600" fill="#7bc47f" text-anchor="end">active</text><line x1="286" y1="476" x2="1210" y2="476" stroke="rgba(48,42,96,0.45)" stroke-width="1"/><text x="296.0" y="500.0" font-family="-apple-system,BlinkMacSystemFont,'SF Pro Display','SF Pro Text','Segoe UI',Roboto,system-ui,sans-serif" font-size="10.5" font-weight="600" fill="#9fd8e8" text-anchor="start">pdi_live_z3K4••••7c2b</text><text x="554.7" y="500.0" font-family="-apple-system,BlinkMacSystemFont,'SF Pro Display','SF Pro Text','Segoe UI',Roboto,system-ui,sans-serif" font-size="10.5" font-weight="500" fill="#f2effc" text-anchor="start">qrme</text><text x="702.6" y="500.0" font-family="-apple-system,BlinkMacSystemFont,'SF Pro Display','SF Pro Text','Segoe UI',Roboto,system-ui,sans-serif" font-size="10.5" font-weight="700" fill="#7bc47f" text-anchor="start">read</text><text x="813.4" y="500.0" font-family="-apple-system,BlinkMacSystemFont,'SF Pro Display','SF Pro Text','Segoe UI',Roboto,system-ui,sans-serif" font-size="10.5" font-weight="500" fill="#f2effc" text-anchor="start">2025-12-01</text><text x="961.3" y="500.0" font-family="-apple-system,BlinkMacSystemFont,'SF Pro Display','SF Pro Text','Segoe UI',Roboto,system-ui,sans-serif" font-size="10.5" font-weight="500" fill="#9a93c6" text-anchor="start">—</text><text x="1200.0" y="500.0" font-family="-apple-system,BlinkMacSystemFont,'SF Pro Display','SF Pro Text','Segoe UI',Roboto,system-ui,sans-serif" font-size="10.5" font-weight="600" fill="#6a6399" text-anchor="end">revoked</text><line x1="286" y1="514" x2="1210" y2="514" stroke="rgba(48,42,96,0.45)" stroke-width="1"/></svg>