<svg xmlns="http://www.w3.org/2000/svg" width="1280" height="820" viewBox="0 0 1280 820" role="img" aria-label="PDI console — Encryption &amp; Keys"><defs>
      <linearGradient id="gPage" x1="0" y1="0" x2="0.4" y2="1">
        <stop offset="0" stop-color="#0d0a20"/><stop offset="1" stop-color="#080614"/></linearGradient>
      <linearGradient id="gScr" x1="0" y1="0" x2="0.5" y2="1">
        <stop offset="0" stop-color="#181235"/><stop offset="1" stop-color="#0c0920"/></linearGradient>
      <linearGradient id="gSide" x1="0" y1="0" x2="0" y2="1">
        <stop offset="0" stop-color="#161038"/><stop offset="1" stop-color="#0e0a26"/></linearGradient>
      <linearGradient id="gCard" x1="0" y1="0" x2="0.4" y2="1">
        <stop offset="0" stop-color="#201a48"/><stop offset="1" stop-color="#181240"/></linearGradient>
      <linearGradient id="gBrand" x1="0" y1="0" x2="1" y2="0">
        <stop offset="0" stop-color="#38bdf8"/><stop offset="1" stop-color="#7dd3fc"/></linearGradient>
      <linearGradient id="gAmber" x1="0" y1="0" x2="1" y2="0">
        <stop offset="0" stop-color="#ffb84d"/><stop offset="1" stop-color="#ffd27a"/></linearGradient>
      <linearGradient id="mG" x1="0" y1="0" x2="1" y2="0"><stop offset="0" stop-color="#5fb87a"/><stop offset="1" stop-color="#7bc47f"/></linearGradient>
      <linearGradient id="mC" x1="0" y1="0" x2="1" y2="0"><stop offset="0" stop-color="#6bb6d6"/><stop offset="1" stop-color="#9fd8e8"/></linearGradient>
      <radialGradient id="orb" cx="36%" cy="30%" r="78%">
        <stop offset="0" stop-color="#cbeeff"/><stop offset="38%" stop-color="#38bdf8"/>
        <stop offset="78%" stop-color="#1f6fb2"/><stop offset="100%" stop-color="#0b2438"/></radialGradient>
    </defs><rect x="0.0" y="0.0" width="1280.0" height="820.0" rx="0" fill="url(#gPage)"/><rect x="24" y="24" width="1232" height="772" rx="10" fill="url(#gScr)" stroke="#302a60" stroke-width="1"/><rect x="24.0" y="24.0" width="216.0" height="772.0" rx="18" fill="url(#gSide)"/><rect x="222.0" y="24.0" width="18.0" height="772.0" rx="0" fill="url(#gScr)"/><line x1="240" y1="24" x2="240" y2="796" stroke="#302a60" stroke-width="1"/><line x1="240" y1="78" x2="1256" y2="78" stroke="#302a60" stroke-width="1"/><line x1="1164" y1="52" x2="1175" y2="52" stroke="#9a93c6" stroke-width="1.3"/><rect x="1193.0" y="46.0" width="11.0" height="11.0" rx="1.5" fill="none" stroke="#9a93c6" stroke-width="1.3"/><path d="M1223 46 l11 11 M1234 46 l-11 11" stroke="#9a93c6" stroke-width="1.3" stroke-linecap="round"/><circle cx="120" cy="51" r="11" fill="url(#orb)"/><rect x="116.4" y="49.8" width="7.199999999999999" height="5.3999999999999995" rx="2" fill="none" stroke="rgba(255,255,255,0.95)" stroke-width="1.02" stroke-linecap="round" stroke-linejoin="round"/><path d="M117.9 49.8 v-1.7999999999999998 a2.1 2.1 0 0 1 4.2 0 v1.7999999999999998" fill="none" stroke="rgba(255,255,255,0.95)" stroke-width="1.02" stroke-linecap="round" stroke-linejoin="round"/><circle cx="120" cy="52.5" r="0.72" fill="rgba(255,255,255,0.95)"/><text x="138.0" y="49.0" font-family="-apple-system,BlinkMacSystemFont,'SF Pro Display','SF Pro Text','Segoe UI',Roboto,system-ui,sans-serif" font-size="14" font-weight="800" fill="#f2effc" text-anchor="start" letter-spacing="0.5">PDI</text><text x="138.0" y="63.0" font-family="-apple-system,BlinkMacSystemFont,'SF Pro Display','SF Pro Text','Segoe UI',Roboto,system-ui,sans-serif" font-size="8.5" font-weight="500" fill="#6a6399" text-anchor="start">Private Data Infrastructure</text><text x="268.0" y="57.0" font-family="-apple-system,BlinkMacSystemFont,'SF Pro Display','SF Pro Text','Segoe UI',Roboto,system-ui,sans-serif" font-size="15" font-weight="700" fill="#f2effc" text-anchor="start" letter-spacing="-0.2">Encryption &amp; Keys</text><rect x="1134.96" y="43.8" width="2.08" height="3.2" rx="1" transform="rotate(0 1136 51)" fill="#9a93c6"/><rect x="1134.96" y="43.8" width="2.08" height="3.2" rx="1" transform="rotate(45 1136 51)" fill="#9a93c6"/><rect x="1134.96" y="43.8" width="2.08" height="3.2" rx="1" transform="rotate(90 1136 51)" fill="#9a93c6"/><rect x="1134.96" y="43.8" width="2.08" height="3.2" rx="1" transform="rotate(135 1136 51)" fill="#9a93c6"/><rect x="1134.96" y="43.8" width="2.08" height="3.2" rx="1" transform="rotate(180 1136 51)" fill="#9a93c6"/><rect x="1134.96" y="43.8" width="2.08" height="3.2" rx="1" transform="rotate(225 1136 51)" fill="#9a93c6"/><rect x="1134.96" y="43.8" width="2.08" height="3.2" rx="1" transform="rotate(270 1136 51)" fill="#9a93c6"/><rect x="1134.96" y="43.8" width="2.08" height="3.2" rx="1" transform="rotate(315 1136 51)" fill="#9a93c6"/><circle cx="1136" cy="51" r="3.6799999999999997" fill="none" stroke="#9a93c6" stroke-width="1.36" stroke-linecap="round" stroke-linejoin="round"/><rect x="1026.0" y="46.0" width="86.0" height="16.0" rx="8" fill="rgba(123,196,127,0.14)"/><circle cx="1035.0" cy="54" r="3" fill="#7bc47f"/><text x="1042.0" y="58.0" font-family="-apple-system,BlinkMacSystemFont,'SF Pro Display','SF Pro Text','Segoe UI',Roboto,system-ui,sans-serif" font-size="9" font-weight="700" fill="#7bc47f" text-anchor="start" letter-spacing="0.5">Vault online</text><rect x="834.0" y="40.0" width="150.0" height="24.0" rx="8" fill="rgba(255,255,255,0.05)" stroke="#302a60" stroke-width="1"/><circle cx="847.6" cy="49.6" r="1.7999999999999998" fill="none" stroke="#38bdf8" stroke-width="1.02" stroke-linecap="round" stroke-linejoin="round"/><circle cx="852.4" cy="49.6" r="1.7999999999999998" fill="none" stroke="#38bdf8" stroke-width="1.02" stroke-linecap="round" stroke-linejoin="round"/><path d="M844.6 55.6 c0 -3.0 3.5999999999999996 -3.0 3.5999999999999996 0 M849.4 55.6 c0 -3.0 4.2 -3.0 5.3999999999999995 -0.6" fill="none" stroke="#38bdf8" stroke-width="1.02" stroke-linecap="round" stroke-linejoin="round"/><text x="862.0" y="55.0" font-family="-apple-system,BlinkMacSystemFont,'SF Pro Display','SF Pro Text','Segoe UI',Roboto,system-ui,sans-serif" font-size="10.5" font-weight="600" fill="#f2effc" text-anchor="start">All tenants</text><text x="958.0" y="55.0" font-family="-apple-system,BlinkMacSystemFont,'SF Pro Display','SF Pro Text','Segoe UI',Roboto,system-ui,sans-serif" font-size="9" font-weight="600" fill="#6a6399" text-anchor="end">▾</text><rect x="52.96" y="105.96" width="4.32" height="4.32" rx="1.4" fill="none" stroke="#9a93c6" stroke-width="1.22" stroke-linecap="round" stroke-linejoin="round"/><rect x="58.72" y="105.96" width="4.32" height="4.32" rx="1.4" fill="none" stroke="#9a93c6" stroke-width="1.22" stroke-linecap="round" stroke-linejoin="round"/><rect x="52.96" y="111.72" width="4.32" height="4.32" rx="1.4" fill="none" stroke="#9a93c6" stroke-width="1.22" stroke-linecap="round" stroke-linejoin="round"/><rect x="58.72" y="111.72" width="4.32" height="4.32" rx="1.4" fill="none" stroke="#9a93c6" stroke-width="1.22" stroke-linecap="round" stroke-linejoin="round"/><text x="78.0" y="116.0" font-family="-apple-system,BlinkMacSystemFont,'SF Pro Display','SF Pro Text','Segoe UI',Roboto,system-ui,sans-serif" font-size="12.5" font-weight="500" fill="#9a93c6" text-anchor="start">Overview</text><rect x="53.68" y="155.56" width="8.64" height="6.4799999999999995" rx="2" fill="none" stroke="#9a93c6" stroke-width="1.22" stroke-linecap="round" stroke-linejoin="round"/><path d="M55.48 155.56 v-2.16 a2.52 2.52 0 0 1 5.04 0 v2.16" fill="none" stroke="#9a93c6" stroke-width="1.22" stroke-linecap="round" stroke-linejoin="round"/><circle cx="58" cy="158.8" r="0.864" fill="#9a93c6"/><text x="78.0" y="162.0" font-family="-apple-system,BlinkMacSystemFont,'SF Pro Display','SF Pro Text','Segoe UI',Roboto,system-ui,sans-serif" font-size="12.5" font-weight="500" fill="#9a93c6" text-anchor="start">Vault</text><circle cx="55.12" cy="200.12" r="2.16" fill="none" stroke="#9a93c6" stroke-width="1.22" stroke-linecap="round" stroke-linejoin="round"/><circle cx="60.88" cy="200.12" r="2.16" fill="none" stroke="#9a93c6" stroke-width="1.22" stroke-linecap="round" stroke-linejoin="round"/><path d="M51.52 207.32 c0 -3.5999999999999996 4.32 -3.5999999999999996 4.32 0 M57.28 207.32 c0 -3.5999999999999996 5.04 -3.5999999999999996 6.4799999999999995 -0.72" fill="none" stroke="#9a93c6" stroke-width="1.22" stroke-linecap="round" stroke-linejoin="round"/><text x="78.0" y="208.0" font-family="-apple-system,BlinkMacSystemFont,'SF Pro Display','SF Pro Text','Segoe UI',Roboto,system-ui,sans-serif" font-size="12.5" font-weight="500" fill="#9a93c6" text-anchor="start">Tenants</text><path d="M58 243.24 l5.04 2.16 v3.5999999999999996 c0 3.5999999999999996 -2.16 5.04 -5.04 6.4799999999999995 c-2.88 -1.44 -5.04 -2.88 -5.04 -6.4799999999999995 v-3.5999999999999996 Z" fill="none" stroke="#9a93c6" stroke-width="1.22" stroke-linecap="round" stroke-linejoin="round"/><path d="M55.84 249 l1.44 1.728 2.88 -3.2399999999999998" fill="none" stroke="#9a93c6" stroke-width="1.22" stroke-linecap="round" stroke-linejoin="round"/><text x="78.0" y="254.0" font-family="-apple-system,BlinkMacSystemFont,'SF Pro Display','SF Pro Text','Segoe UI',Roboto,system-ui,sans-serif" font-size="12.5" font-weight="500" fill="#9a93c6" text-anchor="start">Audit</text><rect x="36.0" y="276.0" width="192.0" height="38.0" rx="10" fill="rgba(56,189,248,0.14)"/><rect x="36.0" y="276.0" width="3.0" height="38.0" rx="2" fill="#38bdf8"/><path d="M53.68 296.44 c0 -5.04 2.16 -6.4799999999999995 4.32 -6.4799999999999995 c2.16 0 4.32 1.44 4.32 5.04" fill="none" stroke="#38bdf8" stroke-width="1.22" stroke-linecap="round" stroke-linejoin="round"/><path d="M55.84 297.88 c0 -4.32 1.44 -5.04 2.16 -5.04 c1.44 0 2.16 1.44 2.16 3.5999999999999996" fill="none" stroke="#38bdf8" stroke-width="1.22" stroke-linecap="round" stroke-linejoin="round"/><path d="M58 299.32 v-4.32" fill="none" stroke="#38bdf8" stroke-width="1.22" stroke-linecap="round" stroke-linejoin="round"/><text x="78.0" y="300.0" font-family="-apple-system,BlinkMacSystemFont,'SF Pro Display','SF Pro Text','Segoe UI',Roboto,system-ui,sans-serif" font-size="12.5" font-weight="650" fill="#f2effc" text-anchor="start">Encryption</text><rect x="53.68" y="335.24" width="8.64" height="11.52" rx="1.5" fill="none" stroke="#9a93c6" stroke-width="1.22" stroke-linecap="round" stroke-linejoin="round"/><rect x="55.12" y="337.4" width="1.44" height="1.44" rx="0.4" fill="#9a93c6"/><rect x="57.28" y="337.4" width="1.44" height="1.44" rx="0.4" fill="#9a93c6"/><rect x="59.44" y="337.4" width="1.44" height="1.44" rx="0.4" fill="#9a93c6"/><rect x="55.12" y="339.84799999999996" width="1.44" height="1.44" rx="0.4" fill="#9a93c6"/><rect x="57.28" y="339.84799999999996" width="1.44" height="1.44" rx="0.4" fill="#9a93c6"/><rect x="59.44" y="339.84799999999996" width="1.44" height="1.44" rx="0.4" fill="#9a93c6"/><rect x="55.12" y="342.296" width="1.44" height="1.44" rx="0.4" fill="#9a93c6"/><rect x="57.28" y="342.296" width="1.44" height="1.44" rx="0.4" fill="#9a93c6"/><rect x="59.44" y="342.296" width="1.44" height="1.44" rx="0.4" fill="#9a93c6"/><text x="78.0" y="346.0" font-family="-apple-system,BlinkMacSystemFont,'SF Pro Display','SF Pro Text','Segoe UI',Roboto,system-ui,sans-serif" font-size="12.5" font-weight="500" fill="#9a93c6" text-anchor="start">Deployment</text><rect x="52.96" y="387.71999999999997" width="2.304" height="3.5999999999999996" rx="1" fill="#9a93c6"/><rect x="56.56" y="384.84" width="2.304" height="6.4799999999999995" rx="1" fill="#9a93c6"/><rect x="60.16" y="388.44" width="2.304" height="2.88" rx="1" fill="#9a93c6"/><rect x="63.76" y="383.4" width="2.304" height="7.92" rx="1" fill="#9a93c6"/><text x="78.0" y="392.0" font-family="-apple-system,BlinkMacSystemFont,'SF Pro Display','SF Pro Text','Segoe UI',Roboto,system-ui,sans-serif" font-size="12.5" font-weight="500" fill="#9a93c6" text-anchor="start">Health</text><rect x="57.064" y="426.52" width="1.8719999999999999" height="2.88" rx="1" transform="rotate(0 58 433)" fill="#9a93c6"/><rect x="57.064" y="426.52" width="1.8719999999999999" height="2.88" rx="1" transform="rotate(45 58 433)" fill="#9a93c6"/><rect x="57.064" y="426.52" width="1.8719999999999999" height="2.88" rx="1" transform="rotate(90 58 433)" fill="#9a93c6"/><rect x="57.064" y="426.52" width="1.8719999999999999" height="2.88" rx="1" transform="rotate(135 58 433)" fill="#9a93c6"/><rect x="57.064" y="426.52" width="1.8719999999999999" height="2.88" rx="1" transform="rotate(180 58 433)" fill="#9a93c6"/><rect x="57.064" y="426.52" width="1.8719999999999999" height="2.88" rx="1" transform="rotate(225 58 433)" fill="#9a93c6"/><rect x="57.064" y="426.52" width="1.8719999999999999" height="2.88" rx="1" transform="rotate(270 58 433)" fill="#9a93c6"/><rect x="57.064" y="426.52" width="1.8719999999999999" height="2.88" rx="1" transform="rotate(315 58 433)" fill="#9a93c6"/><circle cx="58" cy="433" r="3.312" fill="none" stroke="#9a93c6" stroke-width="1.22" stroke-linecap="round" stroke-linejoin="round"/><text x="78.0" y="438.0" font-family="-apple-system,BlinkMacSystemFont,'SF Pro Display','SF Pro Text','Segoe UI',Roboto,system-ui,sans-serif" font-size="12.5" font-weight="500" fill="#9a93c6" text-anchor="start">Settings</text><line x1="40" y1="726" x2="224" y2="726" stroke="#302a60" stroke-width="1"/><rect x="40.0" y="740.0" width="184.0" height="40.0" rx="10" fill="rgba(255,255,255,0.04)" stroke="#302a60" stroke-width="1"/><path d="M58 754.72 l4.62 1.98 v3.3000000000000003 c0 3.3000000000000003 -1.98 4.62 -4.62 5.94 c-2.64 -1.32 -4.62 -2.64 -4.62 -5.94 v-3.3000000000000003 Z" fill="none" stroke="#7bc47f" stroke-width="1.12" stroke-linecap="round" stroke-linejoin="round"/><path d="M56.02 760 l1.32 1.584 2.64 -2.97" fill="none" stroke="#7bc47f" stroke-width="1.12" stroke-linecap="round" stroke-linejoin="round"/><text x="76.0" y="756.0" font-family="-apple-system,BlinkMacSystemFont,'SF Pro Display','SF Pro Text','Segoe UI',Roboto,system-ui,sans-serif" font-size="10.5" font-weight="650" fill="#f2effc" text-anchor="start">Chain intact</text><text x="76.0" y="769.0" font-family="-apple-system,BlinkMacSystemFont,'SF Pro Display','SF Pro Text','Segoe UI',Roboto,system-ui,sans-serif" font-size="8.5" font-weight="500" fill="#6a6399" text-anchor="start">on-prem · Tier III+</text><marker id="ah" markerWidth="8" markerHeight="8" refX="6" refY="3" orient="auto"><path d="M0 0 L6 3 L0 6 Z" fill="#6a6399"/></marker><rect x="268.0" y="106.0" width="576.0" height="662.0" rx="14" fill="url(#gCard)" stroke="#302a60" stroke-width="1"/><text x="286.0" y="133.0" font-family="-apple-system,BlinkMacSystemFont,'SF Pro Display','SF Pro Text','Segoe UI',Roboto,system-ui,sans-serif" font-size="12.5" font-weight="700" fill="#f2effc" text-anchor="start">Encryption pipeline</text><rect x="308.0" y="198.0" width="170.0" height="72.0" rx="13" fill="rgba(255,184,77,0.1)" stroke="#ffb84d" stroke-width="1.3"/><text x="393.0" y="230.0" font-family="-apple-system,BlinkMacSystemFont,'SF Pro Display','SF Pro Text','Segoe UI',Roboto,system-ui,sans-serif" font-size="13" font-weight="700" fill="#ffb84d" text-anchor="middle">Plaintext</text><text x="393.0" y="248.0" font-family="-apple-system,BlinkMacSystemFont,'SF Pro Display','SF Pro Text','Segoe UI',Roboto,system-ui,sans-serif" font-size="9.5" font-weight="500" fill="#9a93c6" text-anchor="middle">in memory only</text><circle cx="556.0" cy="234" r="30" fill="rgba(56,189,248,0.14)" stroke="#38bdf8" stroke-width="1.6"/><rect x="547.6" y="227.2" width="16.799999999999997" height="12.6" rx="2" fill="none" stroke="#38bdf8" stroke-width="2.38" stroke-linecap="round" stroke-linejoin="round"/><path d="M551.1 227.2 v-4.199999999999999 a4.8999999999999995 4.8999999999999995 0 0 1 9.799999999999999 0 v4.199999999999999" fill="none" stroke="#38bdf8" stroke-width="2.38" stroke-linecap="round" stroke-linejoin="round"/><circle cx="556.0" cy="233.5" r="1.68" fill="#38bdf8"/><text x="556.0" y="282.0" font-family="-apple-system,BlinkMacSystemFont,'SF Pro Display','SF Pro Text','Segoe UI',Roboto,system-ui,sans-serif" font-size="11" font-weight="800" fill="#38bdf8" text-anchor="middle" letter-spacing="0.4">AES-256-GCM</text><text x="556.0" y="298.0" font-family="-apple-system,BlinkMacSystemFont,'SF Pro Display','SF Pro Text','Segoe UI',Roboto,system-ui,sans-serif" font-size="9" font-weight="500" fill="#9a93c6" text-anchor="middle">AAD = tenant + key</text><path d="M486 234 L522.0 234" stroke="#6a6399" stroke-width="1.5" marker-end="url(#ah)"/><path d="M590.0 234 L618.0 234" stroke="#6a6399" stroke-width="1.5"/><rect x="626.0" y="198.0" width="170.0" height="72.0" rx="13" fill="rgba(159,216,232,0.1)" stroke="#9fd8e8" stroke-width="1.3"/><text x="711.0" y="230.0" font-family="-apple-system,BlinkMacSystemFont,'SF Pro Display','SF Pro Text','Segoe UI',Roboto,system-ui,sans-serif" font-size="13" font-weight="700" fill="#9fd8e8" text-anchor="middle">Ciphertext</text><text x="711.0" y="248.0" font-family="-apple-system,BlinkMacSystemFont,'SF Pro Display','SF Pro Text','Segoe UI',Roboto,system-ui,sans-serif" font-size="9.5" font-weight="500" fill="#9a93c6" text-anchor="middle">on disk</text><rect x="292.0" y="346.0" width="528.0" height="52.0" rx="11" fill="rgba(255,255,255,0.03)" stroke="#302a60" stroke-width="1"/><rect x="304.0" y="355.0" width="34.0" height="34.0" rx="11" fill="rgba(56,189,248,0.16)"/><path d="M315.48 373.84 c0 -6.44 2.7600000000000002 -8.280000000000001 5.5200000000000005 -8.280000000000001 c2.7600000000000002 0 5.5200000000000005 1.84 5.5200000000000005 6.44" fill="none" stroke="#38bdf8" stroke-width="1.56" stroke-linecap="round" stroke-linejoin="round"/><path d="M318.24 375.68 c0 -5.5200000000000005 1.84 -6.44 2.7600000000000002 -6.44 c1.84 0 2.7600000000000002 1.84 2.7600000000000002 4.6000000000000005" fill="none" stroke="#38bdf8" stroke-width="1.56" stroke-linecap="round" stroke-linejoin="round"/><path d="M321 377.52 v-5.5200000000000005" fill="none" stroke="#38bdf8" stroke-width="1.56" stroke-linecap="round" stroke-linejoin="round"/><text x="350.0" y="370.0" font-family="-apple-system,BlinkMacSystemFont,'SF Pro Display','SF Pro Text','Segoe UI',Roboto,system-ui,sans-serif" font-size="12" font-weight="650" fill="#f2effc" text-anchor="start">AAD binds tenant + key</text><text x="350.0" y="386.0" font-family="-apple-system,BlinkMacSystemFont,'SF Pro Display','SF Pro Text','Segoe UI',Roboto,system-ui,sans-serif" font-size="10" font-weight="500" fill="#9a93c6" text-anchor="start">ciphertext can&#x27;t be relocated between tenants</text><rect x="292.0" y="408.0" width="528.0" height="52.0" rx="11" fill="rgba(255,255,255,0.03)" stroke="#302a60" stroke-width="1"/><rect x="304.0" y="417.0" width="34.0" height="34.0" rx="11" fill="rgba(123,196,127,0.16)"/><path d="M321 426.64 l6.44 2.7600000000000002 v4.6000000000000005 c0 4.6000000000000005 -2.7600000000000002 6.44 -6.44 8.280000000000001 c-3.68 -1.84 -6.44 -3.68 -6.44 -8.280000000000001 v-4.6000000000000005 Z" fill="none" stroke="#7bc47f" stroke-width="1.56" stroke-linecap="round" stroke-linejoin="round"/><path d="M318.24 434 l1.84 2.208 3.68 -4.140000000000001" fill="none" stroke="#7bc47f" stroke-width="1.56" stroke-linecap="round" stroke-linejoin="round"/><text x="350.0" y="432.0" font-family="-apple-system,BlinkMacSystemFont,'SF Pro Display','SF Pro Text','Segoe UI',Roboto,system-ui,sans-serif" font-size="12" font-weight="650" fill="#f2effc" text-anchor="start">Authenticated encryption</text><text x="350.0" y="448.0" font-family="-apple-system,BlinkMacSystemFont,'SF Pro Display','SF Pro Text','Segoe UI',Roboto,system-ui,sans-serif" font-size="10" font-weight="500" fill="#9a93c6" text-anchor="start">tamper is detected on decrypt</text><rect x="292.0" y="470.0" width="528.0" height="52.0" rx="11" fill="rgba(255,255,255,0.03)" stroke="#302a60" stroke-width="1"/><rect x="304.0" y="479.0" width="34.0" height="34.0" rx="11" fill="rgba(159,216,232,0.16)"/><rect x="315.48" y="494.16" width="11.040000000000001" height="8.280000000000001" rx="2" fill="none" stroke="#9fd8e8" stroke-width="1.56" stroke-linecap="round" stroke-linejoin="round"/><path d="M317.78 494.16 v-2.7600000000000002 a3.22 3.22 0 0 1 6.44 0 v2.7600000000000002" fill="none" stroke="#9fd8e8" stroke-width="1.56" stroke-linecap="round" stroke-linejoin="round"/><circle cx="321" cy="498.3" r="1.104" fill="#9fd8e8"/><text x="350.0" y="494.0" font-family="-apple-system,BlinkMacSystemFont,'SF Pro Display','SF Pro Text','Segoe UI',Roboto,system-ui,sans-serif" font-size="12" font-weight="650" fill="#f2effc" text-anchor="start">Only ciphertext touches disk</text><text x="350.0" y="510.0" font-family="-apple-system,BlinkMacSystemFont,'SF Pro Display','SF Pro Text','Segoe UI',Roboto,system-ui,sans-serif" font-size="10" font-weight="500" fill="#9a93c6" text-anchor="start">the database on disk holds nothing readable</text><rect x="864.0" y="106.0" width="364.0" height="662.0" rx="14" fill="url(#gCard)" stroke="#302a60" stroke-width="1"/><text x="882.0" y="133.0" font-family="-apple-system,BlinkMacSystemFont,'SF Pro Display','SF Pro Text','Segoe UI',Roboto,system-ui,sans-serif" font-size="12.5" font-weight="700" fill="#f2effc" text-anchor="start">Key management</text><rect x="882.0" y="152.0" width="328.0" height="60.0" rx="11" fill="rgba(255,255,255,0.03)" stroke="#302a60" stroke-width="1"/><rect x="894.0" y="165.0" width="34.0" height="34.0" rx="11" fill="rgba(56,189,248,0.16)"/><rect x="905.48" y="180.16" width="11.040000000000001" height="8.280000000000001" rx="2" fill="none" stroke="#38bdf8" stroke-width="1.56" stroke-linecap="round" stroke-linejoin="round"/><path d="M907.78 180.16 v-2.7600000000000002 a3.22 3.22 0 0 1 6.44 0 v2.7600000000000002" fill="none" stroke="#38bdf8" stroke-width="1.56" stroke-linecap="round" stroke-linejoin="round"/><circle cx="911.0" cy="184.3" r="1.104" fill="#38bdf8"/><text x="940.0" y="179.0" font-family="-apple-system,BlinkMacSystemFont,'SF Pro Display','SF Pro Text','Segoe UI',Roboto,system-ui,sans-serif" font-size="12" font-weight="650" fill="#f2effc" text-anchor="start">PDI_MASTER_KEY</text><text x="940.0" y="195.0" font-family="-apple-system,BlinkMacSystemFont,'SF Pro Display','SF Pro Text','Segoe UI',Roboto,system-ui,sans-serif" font-size="9.5" font-weight="500" fill="#9a93c6" text-anchor="start">base64 · 32-byte AES-256</text><rect x="1165.4" y="168.0" width="30.6" height="17.0" rx="8" fill="rgba(123,196,127,0.16)"/><text x="1180.7" y="180.0" font-family="-apple-system,BlinkMacSystemFont,'SF Pro Display','SF Pro Text','Segoe UI',Roboto,system-ui,sans-serif" font-size="9.5" font-weight="700" fill="#7bc47f" text-anchor="middle" letter-spacing="0.4">SET</text><rect x="882.0" y="222.0" width="328.0" height="60.0" rx="11" fill="rgba(255,255,255,0.03)" stroke="#302a60" stroke-width="1"/><rect x="894.0" y="235.0" width="34.0" height="34.0" rx="11" fill="rgba(159,216,232,0.16)"/><rect x="905.48" y="244.64" width="11.040000000000001" height="14.72" rx="1.5" fill="none" stroke="#9fd8e8" stroke-width="1.56" stroke-linecap="round" stroke-linejoin="round"/><rect x="907.32" y="247.4" width="1.84" height="1.84" rx="0.4" fill="#9fd8e8"/><rect x="910.08" y="247.4" width="1.84" height="1.84" rx="0.4" fill="#9fd8e8"/><rect x="912.84" y="247.4" width="1.84" height="1.84" rx="0.4" fill="#9fd8e8"/><rect x="907.32" y="250.52800000000002" width="1.84" height="1.84" rx="0.4" fill="#9fd8e8"/><rect x="910.08" y="250.52800000000002" width="1.84" height="1.84" rx="0.4" fill="#9fd8e8"/><rect x="912.84" y="250.52800000000002" width="1.84" height="1.84" rx="0.4" fill="#9fd8e8"/><rect x="907.32" y="253.656" width="1.84" height="1.84" rx="0.4" fill="#9fd8e8"/><rect x="910.08" y="253.656" width="1.84" height="1.84" rx="0.4" fill="#9fd8e8"/><rect x="912.84" y="253.656" width="1.84" height="1.84" rx="0.4" fill="#9fd8e8"/><text x="940.0" y="249.0" font-family="-apple-system,BlinkMacSystemFont,'SF Pro Display','SF Pro Text','Segoe UI',Roboto,system-ui,sans-serif" font-size="12" font-weight="650" fill="#f2effc" text-anchor="start">KMS / HSM</text><text x="940.0" y="265.0" font-family="-apple-system,BlinkMacSystemFont,'SF Pro Display','SF Pro Text','Segoe UI',Roboto,system-ui,sans-serif" font-size="9.5" font-weight="500" fill="#9a93c6" text-anchor="start">inside your private facility</text><rect x="882.0" y="292.0" width="328.0" height="60.0" rx="11" fill="rgba(255,255,255,0.03)" stroke="#302a60" stroke-width="1"/><rect x="894.0" y="305.0" width="34.0" height="34.0" rx="11" fill="rgba(123,196,127,0.16)"/><path d="M905.48 323.84 c0 -6.44 2.7600000000000002 -8.280000000000001 5.5200000000000005 -8.280000000000001 c2.7600000000000002 0 5.5200000000000005 1.84 5.5200000000000005 6.44" fill="none" stroke="#7bc47f" stroke-width="1.56" stroke-linecap="round" stroke-linejoin="round"/><path d="M908.24 325.68 c0 -5.5200000000000005 1.84 -6.44 2.7600000000000002 -6.44 c1.84 0 2.7600000000000002 1.84 2.7600000000000002 4.6000000000000005" fill="none" stroke="#7bc47f" stroke-width="1.56" stroke-linecap="round" stroke-linejoin="round"/><path d="M911.0 327.52 v-5.5200000000000005" fill="none" stroke="#7bc47f" stroke-width="1.56" stroke-linecap="round" stroke-linejoin="round"/><text x="940.0" y="319.0" font-family="-apple-system,BlinkMacSystemFont,'SF Pro Display','SF Pro Text','Segoe UI',Roboto,system-ui,sans-serif" font-size="12" font-weight="650" fill="#f2effc" text-anchor="start">Per-record AAD</text><text x="940.0" y="335.0" font-family="-apple-system,BlinkMacSystemFont,'SF Pro Display','SF Pro Text','Segoe UI',Roboto,system-ui,sans-serif" font-size="9.5" font-weight="500" fill="#9a93c6" text-anchor="start">binds tenant + key</text><rect x="882.0" y="362.0" width="328.0" height="60.0" rx="11" fill="rgba(255,255,255,0.03)" stroke="#302a60" stroke-width="1"/><rect x="894.0" y="375.0" width="34.0" height="34.0" rx="11" fill="rgba(255,184,77,0.16)"/><path d="M911.0 384.64 L918.36 397.52 H903.64 Z" fill="none" stroke="#ffb84d" stroke-width="1.56" stroke-linecap="round" stroke-linejoin="round"/><path d="M911.0 389.24 v3.68" fill="none" stroke="#ffb84d" stroke-width="1.56" stroke-linecap="round" stroke-linejoin="round"/><circle cx="911.0" cy="395.68" r="0.8280000000000001" fill="#ffb84d"/><text x="940.0" y="389.0" font-family="-apple-system,BlinkMacSystemFont,'SF Pro Display','SF Pro Text','Segoe UI',Roboto,system-ui,sans-serif" font-size="12" font-weight="650" fill="#f2effc" text-anchor="start">Ephemeral if unset</text><text x="940.0" y="405.0" font-family="-apple-system,BlinkMacSystemFont,'SF Pro Display','SF Pro Text','Segoe UI',Roboto,system-ui,sans-serif" font-size="9.5" font-weight="500" fill="#9a93c6" text-anchor="start">dev only — never production</text><rect x="882.0" y="436.0" width="328.0" height="44.0" rx="11" fill="rgba(56,189,248,0.08)" stroke="#38bdf8" stroke-width="1"/><circle cx="906.0" cy="458" r="6.0" fill="none" stroke="#38bdf8" stroke-width="1.36" stroke-linecap="round" stroke-linejoin="round"/><path d="M906.0 454.8 v3.2 l2.4000000000000004 1.6" fill="none" stroke="#38bdf8" stroke-width="1.36" stroke-linecap="round" stroke-linejoin="round"/><text x="928.0" y="454.0" font-family="-apple-system,BlinkMacSystemFont,'SF Pro Display','SF Pro Text','Segoe UI',Roboto,system-ui,sans-serif" font-size="11" font-weight="650" fill="#f2effc" text-anchor="start">Rotation</text><text x="928.0" y="469.0" font-family="-apple-system,BlinkMacSystemFont,'SF Pro Display','SF Pro Text','Segoe UI',Roboto,system-ui,sans-serif" font-size="9.5" font-weight="500" fill="#9a93c6" text-anchor="start">re-seal under a new key, audited</text></svg>